ply
format ascii 1.0
element vertex 275
property float x
property float y
property float z
property uchar red
property uchar green
property uchar blue
end_header
0.0000 0.0000 0.0750 0 220 0
0.0052 -0.0003 0.0713 0 220 0
0.0034 -0.0001 0.0744 0 220 0
0.0112 -0.0001 0.0692 0 220 0
0.0015 -0.0000 0.0757 0 220 0
0.0009 -0.0002 0.0747 0 220 0
0.0000 -0.0005 0.0767 0 220 0
-0.0003 -0.0000 0.0774 0 220 0
0.0068 -0.0002 0.0685 0 220 0
-0.0019 -0.0007 0.0774 0 220 0
0.0090 -0.0001 0.0684 0 220 0
-0.0001 -0.0000 0.0739 0 220 0
0.0031 -0.0004 0.0725 0 220 0
0.0068 -0.0004 0.0667 0 220 0
0.0078 0.0001 0.0726 0 220 0
0.0107 0.0006 0.0718 0 220 0
0.0065 0.0000 0.0725 0 220 0
0.0052 -0.0002 0.0724 0 220 0
0.0050 0.0000 0.0725 0 220 0
0.0024 -0.0000 0.0739 0 220 0
0.0083 0.0001 0.0714 0 220 0
0.0056 -0.0003 0.0722 0 220 0
0.0029 -0.0002 0.0740 0 220 0
-0.0014 -0.0002 0.0767 0 220 0
0.0022 -0.0003 0.0731 0 220 0
0.0009 0.0001 0.0776 0 220 0
0.0014 -0.0003 0.0724 0 220 0
0.0051 -0.0001 0.0718 0 220 0
0.0055 -0.0007 0.0707 0 220 0
-0.0024 -0.0005 0.0778 0 220 0
0.0061 0.0001 0.0734 0 220 0
-0.0027 -0.0001 0.0787 0 220 0
0.0073 -0.0002 0.0690 0 220 0
0.0083 0.0002 0.0744 0 220 0
0.0060 0.0001 0.0726 0 220 0
0.0063 0.0001 0.0715 0 220 0
0.0028 -0.0000 0.0740 0 220 0
0.0014 0.0000 0.0762 0 220 0
0.0054 0.0002 0.0736 0 220 0
0.0075 0.0002 0.0727 0 220 0
0.0043 0.0000 0.0734 0 220 0
0.0000 -0.0001 0.0741 0 220 0
-0.0003 0.0000 0.0769 0 220 0
0.0075 0.0001 0.0731 0 220 0
-0.0010 -0.0002 0.0742 0 220 0
0.0061 -0.0000 0.0714 0 220 0
0.0053 0.0002 0.0715 0 220 0
0.0032 -0.0004 0.0720 0 220 0
0.0005 0.0002 0.0771 0 220 0
0.0034 -0.0002 0.0718 0 220 0
-0.0019 0.0002 0.0766 0 220 0
0.0040 0.0003 0.0737 0 220 0
0.0059 -0.0003 0.0725 0 220 0
0.0044 -0.0003 0.0711 0 220 0
0.0070 -0.0001 0.0693 0 220 0
0.0052 0.0003 0.0724 0 220 0
0.0054 -0.0001 0.0731 0 220 0
0.0039 0.0004 0.0746 0 220 0
0.0025 0.0002 0.0719 0 220 0
0.0006 -0.0003 0.0758 0 220 0
-0.0029 -0.0006 0.0749 0 220 0
-0.0006 0.0002 0.0779 0 220 0
0.1739 0.0680 0.1021 0 220 0
0.0346 0.2246 0.3074 0 220 0
-0.0023 0.1613 -0.0037 0 220 0
0.1870 0.2250 0.0189 0 220 0
0.0261 0.1798 0.0197 0 220 0
0.1057 0.2069 0.1027 0 220 0
0.1735 0.2321 -0.0123 0 220 0
0.0309 0.2762 0.2610 0 220 0
-0.0181 0.2507 -0.0157 0 220 0
0.0925 0.3565 0.2889 0 220 0
0.1252 0.4017 0.1322 0 220 0
-0.0082 0.4071 0.2356 0 220 0
-0.0174 0.4098 0.2385 0 220 0
-0.0120 0.4128 0.2451 0 220 0
-0.0094 0.4156 0.2491 0 220 0
-0.0792 0.4187 0.0429 0 220 0
-0.0509 0.4203 0.0488 0 220 0
0.1056 0.4556 0.0116 0 220 0
-0.0080 0.4236 0.0273 0 220 0
-0.0306 0.4387 0.1395 0 220 0
-0.0195 0.5127 0.1470 0 220 0
-0.0285 0.5775 0.2111 0 220 0
-0.0819 0.5796 0.1209 0 220 0
-0.0642 0.5609 0.0303 0 220 0
-0.0709 0.5602 0.0043 0 220 0
-0.0634 0.5605 0.0041 0 220 0
-0.0542 0.5614 0.0061 0 220 0
-0.0426 0.5621 0.0038 0 220 0
-0.0445 0.5625 0.0072 0 220 0
-0.0446 0.5624 0.0057 0 220 0
-0.1358 0.5900 0.0844 0 220 0
-0.0927 0.6392 0.1059 0 220 0
-0.0162 0.6196 -0.0786 0 220 0
-0.0642 0.6554 0.0723 0 220 0
-0.0618 0.6496 0.0515 0 220 0
-0.0596 0.6485 0.0476 0 220 0
-0.0581 0.6488 0.0484 0 220 0
-0.0545 0.6511 0.0550 0 220 0
-0.0550 0.6506 0.0536 0 220 0
-0.0550 0.6502 0.0522 0 220 0
-0.0491 0.6517 0.0541 0 220 0
-0.0504 0.6518 0.0556 0 220 0
-0.0500 0.6519 0.0550 0 220 0
-0.0488 0.6524 0.0569 0 220 0
-0.0512 0.6503 0.0509 0 220 0
-0.0516 0.6514 0.0541 0 220 0
-0.0506 0.6513 0.0532 0 220 0
-0.0502 0.6519 0.0551 0 220 0
-0.0520 0.6505 0.0513 0 220 0
-0.0506 0.6514 0.0535 0 220 0
-0.0807 0.6707 0.0542 0 220 0
-0.0661 0.7173 0.0587 0 220 0
-0.0666 0.7218 0.0624 0 220 0
-0.0411 0.7252 0.0544 0 220 0
-0.0339 0.7277 0.0571 0 220 0
-0.0399 0.7255 0.0566 0 220 0
-0.0421 0.7258 0.0583 0 220 0
-0.0499 0.7245 0.0604 0 220 0
-0.0486 0.7245 0.0599 0 220 0
-0.0492 0.7243 0.0595 0 220 0
-0.0732 0.7240 0.0862 0 220 0
-0.0523 0.7207 0.0956 0 220 0
-0.0403 0.6734 0.0804 0 220 0
0.0007 0.6242 0.0564 0 220 0
-0.0587 0.5885 0.1252 0 220 0
-0.0708 0.5273 0.0982 0 220 0
0.0232 0.4612 -0.0833 0 220 0
-0.0129 0.4230 0.0037 0 220 0
0.0384 0.3317 0.0137 0 220 0
0.0579 0.3425 0.1995 0 220 0
0.0903 0.3227 0.2421 0 220 0
0.2561 0.2915 0.1592 0 220 0
-0.0139 0.1461 0.0355 0 220 0
0.2997 0.2053 0.0940 0 220 0
0.0762 0.1048 0.0048 0 220 0
0.0936 0.1330 0.1514 0 220 0
0.0957 0.1582 0.2322 0 220 0
0.1322 0.1715 0.2370 0 220 0
0.1452 0.1797 0.2493 0 220 0
0.1364 0.1743 0.2411 0 220 0
0.1730 0.0716 0.1367 0 220 0
0.0426 -0.0148 0.1704 0 220 0
0.0000 -0.0085 0.2091 0 220 0
0.1289 -0.0127 0.0683 0 220 0
0.3099 0.0879 0.2217 0 220 0
-0.0279 -0.0273 0.0895 0 220 0
0.1970 0.1346 0.0055 0 220 0
0.2892 0.2287 0.0560 0 220 0
0.1736 0.2428 -0.0052 0 220 0
-0.0975 0.2302 0.1309 0 220 0
-0.0842 0.2743 0.0780 0 220 0
0.0658 0.3383 -0.0047 0 220 0
-0.0990 0.4015 0.1646 0 220 0
-0.0367 0.4425 0.1795 0 220 0
-0.0294 0.5014 0.0236 0 220 0
-0.0524 0.5120 0.0983 0 220 0
-0.0204 0.5227 0.1133 0 220 0
-0.0248 0.4653 0.0529 0 220 0
-0.0521 0.3872 0.0130 0 220 0
-0.0321 0.3249 0.1954 0 220 0
-0.1148 0.2609 0.1014 0 220 0
0.1886 0.3047 0.1870 0 220 0
-0.1066 0.1757 0.1674 0 220 0
-0.0155 0.1006 0.0227 0 220 0
0.1387 0.1295 0.2567 0 220 0
0.0077 -0.1979 0.0508 0 220 0
0.0089 -0.1939 0.0856 0 220 0
0.0077 -0.1953 0.0653 0 220 0
0.0039 -0.1947 0.0764 0 220 0
0.0040 -0.1981 0.0806 0 220 0
-0.0050 -0.1998 0.0704 0 220 0
0.0463 0.0730 0.0808 0 220 0
0.1154 0.1413 0.1333 0 220 0
0.0583 0.2797 0.3162 0 220 0
0.0048 0.3086 0.2544 0 220 0
-0.1108 0.3257 0.2012 0 220 0
-0.0064 0.3484 0.0552 0 220 0
-0.0727 0.4031 0.0923 0 220 0
-0.0751 0.4663 0.1337 0 220 0
-0.0414 0.4926 0.1862 0 220 0
0.0930 0.4680 -0.0591 0 220 0
0.0833 0.5350 -0.0218 0 220 0
-0.0001 0.5525 0.0045 0 220 0
-0.0899 0.6112 0.1128 0 220 0
-0.0953 0.6420 0.0746 0 220 0
-0.0511 0.6804 0.0454 0 220 0
-0.0494 0.7524 0.0534 0 220 0
-0.0523 0.7522 0.0609 0 220 0
-0.0541 0.7510 0.0571 0 220 0
-0.0378 0.7546 0.0555 0 220 0
-0.0389 0.7414 0.0695 0 220 0
-0.0571 0.6991 0.0526 0 220 0
-0.0455 0.6656 0.0942 0 220 0
-0.0773 0.5964 0.0446 0 220 0
-0.0120 0.5570 0.1360 0 220 0
-0.0184 0.5156 0.1301 0 220 0
0.0435 0.4233 0.1798 0 220 0
-0.0530 0.3064 0.1154 0 220 0
-0.0849 0.2330 0.2185 0 220 0
0.0042 0.1663 0.0609 0 220 0
-0.0397 0.1947 0.3399 0 220 0
-0.2042 -0.2090 0.1718 0 220 0
-0.1832 -0.2161 0.1964 0 220 0
-0.1915 -0.2074 0.2074 0 220 0
-0.1959 -0.2083 0.2087 0 220 0
-0.2070 -0.2041 0.2117 0 220 0
-0.1999 -0.2060 0.2136 0 220 0
-0.2047 -0.2052 0.2163 0 220 0
-0.2060 -0.2041 0.2173 0 220 0
-0.1687 -0.2117 0.2063 0 220 0
-0.1917 -0.2101 0.2043 0 220 0
-0.2003 -0.2090 0.2092 0 220 0
-0.2024 -0.2047 0.2181 0 220 0
-0.1848 -0.2082 0.2183 0 220 0
-0.1888 -0.2074 0.2181 0 220 0
-0.1867 -0.2093 0.2149 0 220 0
-0.1905 -0.2053 0.2230 0 220 0
-0.1831 -0.2084 0.2220 0 220 0
-0.1854 -0.2076 0.2192 0 220 0
-0.1891 -0.2071 0.2211 0 220 0
-0.1848 -0.2058 0.2274 0 220 0
-0.1874 -0.2079 0.2189 0 220 0
0.7213 -0.2034 0.3100 0 220 0
0.1121 0.2146 -0.0077 0 220 0
0.0125 0.3088 0.2397 0 220 0
0.1884 0.3122 -0.0241 0 220 0
0.1708 0.3138 -0.0223 0 220 0
0.1891 0.3205 -0.0299 0 220 0
0.1852 0.3196 -0.0312 0 220 0
0.1802 0.3180 -0.0299 0 220 0
0.1785 0.3174 -0.0279 0 220 0
0.1766 0.3159 -0.0312 0 220 0
0.0933 0.5064 0.0794 0 220 0
0.1232 0.5381 0.1299 0 220 0
0.1267 0.5395 0.1282 0 220 0
0.1327 0.5462 0.1382 0 220 0
0.0174 0.4518 -0.1435 0 220 0
-0.0949 0.4206 0.0811 0 220 0
0.0453 0.4481 0.2369 0 220 0
-0.0357 0.3494 0.1324 0 220 0
-0.2005 0.5962 0.0766 0 220 0
-0.1186 0.5769 0.0654 0 220 0
-0.1223 0.4802 0.0958 0 220 0
-0.0859 0.5204 0.0934 0 220 0
-0.0757 0.5817 0.1524 0 220 0
-0.1324 0.6155 0.0933 0 220 0
-0.1926 0.7004 0.0669 0 220 0
-0.1931 0.6570 0.0812 0 220 0
-0.1779 0.6059 0.0936 0 220 0
-0.1420 0.5457 0.1178 0 220 0
-0.0570 0.4971 0.1176 0 220 0
-0.1098 0.4670 0.1398 0 220 0
-0.1918 0.4089 0.1213 0 220 0
-0.0884 0.3467 0.0749 0 220 0
-0.0869 0.2387 0.1096 0 220 0
0.0505 0.3052 0.2932 0 220 0
0.0251 0.3024 0.3136 0 220 0
0.0788 0.3007 0.2868 0 220 0
0.0754 0.2963 0.2819 0 220 0
0.0694 0.2924 0.2811 0 220 0
0.0844 0.3139 0.3130 0 220 0
0.0899 0.3104 0.3032 0 220 0
0.0761 0.2983 0.2892 0 220 0
0.0730 0.2977 0.2887 0 220 0
0.0783 0.3016 0.2934 0 220 0
0.0671 0.2925 0.2817 0 220 0
0.0776 0.3000 0.2908 0 220 0
0.0700 0.2958 0.2864 0 220 0
0.0703 0.2950 0.2847 0 220 0
0.0734 0.2965 0.2862 0 220 0
0.0731 0.2977 0.2886 0 220 0
0.0706 0.2946 0.2839 0 220 0
0.0719 0.2969 0.2874 0 220 0
