ply
format ascii 1.0
element vertex 550
property float x
property float y
property float z
property uchar red
property uchar green
property uchar blue
end_header
-0.1534 1.0129 -0.0473 220 180 0
-0.0926 1.0524 -0.0527 220 180 0
-0.1533 1.0127 -0.0473 220 180 0
-0.0927 1.0526 -0.0527 220 180 0
-0.1533 1.0124 -0.0473 220 180 0
-0.0927 1.0530 -0.0527 220 180 0
-0.1532 1.0122 -0.0473 220 180 0
-0.0928 1.0532 -0.0527 220 180 0
-0.1534 1.0126 -0.0473 220 180 0
-0.0926 1.0528 -0.0527 220 180 0
-0.1533 1.0124 -0.0473 220 180 0
-0.0926 1.0529 -0.0527 220 180 0
-0.1534 1.0124 -0.0472 220 180 0
-0.0926 1.0529 -0.0528 220 180 0
-0.1534 1.0126 -0.0472 220 180 0
-0.0926 1.0527 -0.0528 220 180 0
-0.1532 1.0123 -0.0473 220 180 0
-0.0928 1.0530 -0.0527 220 180 0
-0.1534 1.0124 -0.0472 220 180 0
-0.0926 1.0529 -0.0528 220 180 0
-0.1532 1.0125 -0.0473 220 180 0
-0.0927 1.0528 -0.0527 220 180 0
-0.1534 1.0126 -0.0473 220 180 0
-0.0926 1.0527 -0.0527 220 180 0
-0.1533 1.0124 -0.0473 220 180 0
-0.0927 1.0529 -0.0527 220 180 0
-0.1532 1.0121 -0.0473 220 180 0
-0.0928 1.0532 -0.0527 220 180 0
-0.1533 1.0127 -0.0473 220 180 0
-0.0927 1.0526 -0.0527 220 180 0
-0.1533 1.0128 -0.0473 220 180 0
-0.0927 1.0525 -0.0527 220 180 0
-0.1533 1.0129 -0.0473 220 180 0
-0.0927 1.0524 -0.0527 220 180 0
-0.1533 1.0125 -0.0473 220 180 0
-0.0927 1.0528 -0.0527 220 180 0
-0.1533 1.0127 -0.0473 220 180 0
-0.0927 1.0526 -0.0527 220 180 0
-0.1534 1.0129 -0.0473 220 180 0
-0.0926 1.0524 -0.0527 220 180 0
-0.1533 1.0124 -0.0473 220 180 0
-0.0927 1.0529 -0.0527 220 180 0
-0.1533 1.0128 -0.0473 220 180 0
-0.0926 1.0525 -0.0527 220 180 0
-0.1533 1.0125 -0.0473 220 180 0
-0.0926 1.0528 -0.0527 220 180 0
-0.1534 1.0125 -0.0473 220 180 0
-0.0926 1.0528 -0.0527 220 180 0
-0.1533 1.0123 -0.0473 220 180 0
-0.0927 1.0530 -0.0527 220 180 0
-0.1534 1.0126 -0.0473 220 180 0
-0.0926 1.0527 -0.0527 220 180 0
-0.1534 1.0126 -0.0473 220 180 0
-0.0926 1.0528 -0.0527 220 180 0
-0.1533 1.0125 -0.0473 220 180 0
-0.0927 1.0528 -0.0527 220 180 0
-0.1533 1.0121 -0.0472 220 180 0
-0.0927 1.0532 -0.0527 220 180 0
-0.1534 1.0125 -0.0472 220 180 0
-0.0926 1.0529 -0.0528 220 180 0
-0.1532 1.0122 -0.0472 220 180 0
-0.0927 1.0532 -0.0528 220 180 0
-0.1535 1.0128 -0.0473 220 180 0
-0.0925 1.0525 -0.0527 220 180 0
-0.1533 1.0125 -0.0473 220 180 0
-0.0927 1.0528 -0.0527 220 180 0
-0.1533 1.0125 -0.0473 220 180 0
-0.0927 1.0529 -0.0527 220 180 0
-0.1533 1.0129 -0.0473 220 180 0
-0.0926 1.0524 -0.0527 220 180 0
-0.1533 1.0125 -0.0473 220 180 0
-0.0927 1.0528 -0.0527 220 180 0
-0.1534 1.0126 -0.0473 220 180 0
-0.0926 1.0527 -0.0527 220 180 0
-0.1534 1.0131 -0.0473 220 180 0
-0.0926 1.0522 -0.0527 220 180 0
-0.1533 1.0126 -0.0473 220 180 0
-0.0927 1.0527 -0.0527 220 180 0
-0.1533 1.0127 -0.0473 220 180 0
-0.0927 1.0526 -0.0527 220 180 0
-0.1534 1.0129 -0.0473 220 180 0
-0.0926 1.0524 -0.0527 220 180 0
-0.1534 1.0126 -0.0473 220 180 0
-0.0926 1.0527 -0.0527 220 180 0
-0.1534 1.0127 -0.0473 220 180 0
-0.0926 1.0526 -0.0527 220 180 0
-0.1533 1.0128 -0.0473 220 180 0
-0.0927 1.0525 -0.0527 220 180 0
-0.1534 1.0126 -0.0473 220 180 0
-0.0926 1.0527 -0.0527 220 180 0
-0.1533 1.0127 -0.0473 220 180 0
-0.0927 1.0527 -0.0527 220 180 0
-0.1534 1.0130 -0.0474 220 180 0
-0.0926 1.0524 -0.0526 220 180 0
-0.1533 1.0126 -0.0473 220 180 0
-0.0926 1.0527 -0.0527 220 180 0
-0.1534 1.0126 -0.0473 220 180 0
-0.0926 1.0527 -0.0527 220 180 0
-0.1533 1.0124 -0.0473 220 180 0
-0.0927 1.0529 -0.0527 220 180 0
-0.1534 1.0127 -0.0473 220 180 0
-0.0926 1.0526 -0.0527 220 180 0
-0.1534 1.0130 -0.0473 220 180 0
-0.0926 1.0523 -0.0527 220 180 0
-0.1533 1.0126 -0.0473 220 180 0
-0.0927 1.0527 -0.0527 220 180 0
-0.1533 1.0124 -0.0473 220 180 0
-0.0927 1.0529 -0.0527 220 180 0
-0.1532 1.0122 -0.0473 220 180 0
-0.0927 1.0531 -0.0527 220 180 0
-0.1534 1.0130 -0.0473 220 180 0
-0.0926 1.0523 -0.0526 220 180 0
-0.1533 1.0126 -0.0473 220 180 0
-0.0927 1.0527 -0.0527 220 180 0
-0.1534 1.0128 -0.0473 220 180 0
-0.0926 1.0525 -0.0527 220 180 0
-0.1534 1.0128 -0.0473 220 180 0
-0.0926 1.0526 -0.0527 220 180 0
-0.1534 1.0125 -0.0472 220 180 0
-0.0926 1.0529 -0.0528 220 180 0
-0.1534 1.0123 -0.0473 220 180 0
-0.0926 1.0530 -0.0527 220 180 0
-0.1535 1.0130 -0.0473 220 180 0
-0.0925 1.0523 -0.0527 220 180 0
-0.1535 1.0178 -0.0470 220 180 0
-0.0925 1.0475 -0.0530 220 180 0
-0.1543 1.0203 -0.0466 220 180 0
-0.0917 1.0450 -0.0534 220 180 0
-0.1540 1.0143 -0.0475 220 180 0
-0.0919 1.0510 -0.0525 220 180 0
-0.1509 1.0138 -0.0468 220 180 0
-0.0950 1.0515 -0.0532 220 180 0
-0.1538 1.0180 -0.0474 220 180 0
-0.0922 1.0473 -0.0526 220 180 0
-0.1535 1.0194 -0.0470 220 180 0
-0.0925 1.0459 -0.0530 220 180 0
-0.1499 1.0076 -0.0467 220 180 0
-0.0961 1.0577 -0.0533 220 180 0
-0.1536 1.0173 -0.0455 220 180 0
-0.0924 1.0480 -0.0545 220 180 0
-0.1545 1.0164 -0.0476 220 180 0
-0.0915 1.0489 -0.0524 220 180 0
-0.1507 1.0104 -0.0419 220 180 0
-0.0952 1.0549 -0.0580 220 180 0
-0.1530 1.0180 -0.0465 220 180 0
-0.0930 1.0474 -0.0535 220 180 0
-0.1525 1.0105 -0.0417 220 180 0
-0.0935 1.0548 -0.0582 220 180 0
-0.1532 1.0140 -0.0432 220 180 0
-0.0928 1.0513 -0.0568 220 180 0
-0.1532 1.0142 -0.0432 220 180 0
-0.0928 1.0512 -0.0568 220 180 0
-0.1531 1.0144 -0.0432 220 180 0
-0.0929 1.0509 -0.0568 220 180 0
-0.1548 1.0238 -0.0478 220 180 0
-0.0912 1.0415 -0.0522 220 180 0
-0.1538 1.0168 -0.0472 220 180 0
-0.0922 1.0485 -0.0528 220 180 0
-0.1488 1.0097 -0.0462 220 180 0
-0.0972 1.0556 -0.0538 220 180 0
-0.1528 1.0154 -0.0469 220 180 0
-0.0932 1.0499 -0.0531 220 180 0
-0.1547 1.0174 -0.0464 220 180 0
-0.0913 1.0479 -0.0536 220 180 0
-0.1536 1.0192 -0.0463 220 180 0
-0.0924 1.0461 -0.0537 220 180 0
-0.1523 1.0101 -0.0407 220 180 0
-0.0937 1.0553 -0.0593 220 180 0
-0.1546 1.0192 -0.0463 220 180 0
-0.0914 1.0461 -0.0537 220 180 0
-0.1539 1.0173 -0.0473 220 180 0
-0.0921 1.0480 -0.0527 220 180 0
-0.1545 1.0228 -0.0481 220 180 0
-0.0915 1.0425 -0.0519 220 180 0
-0.1544 1.0228 -0.0480 220 180 0
-0.0916 1.0425 -0.0520 220 180 0
-0.1543 1.0224 -0.0478 220 180 0
-0.0917 1.0429 -0.0521 220 180 0
-0.1541 1.0215 -0.0476 220 180 0
-0.0919 1.0438 -0.0524 220 180 0
-0.1542 1.0220 -0.0477 220 180 0
-0.0918 1.0434 -0.0523 220 180 0
-0.1542 1.0220 -0.0477 220 180 0
-0.0918 1.0434 -0.0523 220 180 0
-0.1560 1.0247 -0.0485 220 180 0
-0.0900 1.0406 -0.0515 220 180 0
-0.1546 1.0210 -0.0470 220 180 0
-0.0914 1.0444 -0.0530 220 180 0
-0.1514 1.0052 -0.0489 220 180 0
-0.0946 1.0601 -0.0511 220 180 0
-0.1539 1.0204 -0.0474 220 180 0
-0.0921 1.0449 -0.0526 220 180 0
-0.1539 1.0200 -0.0474 220 180 0
-0.0921 1.0453 -0.0526 220 180 0
-0.1539 1.0198 -0.0474 220 180 0
-0.0921 1.0455 -0.0525 220 180 0
-0.1539 1.0199 -0.0475 220 180 0
-0.0921 1.0454 -0.0525 220 180 0
-0.1538 1.0197 -0.0473 220 180 0
-0.0922 1.0456 -0.0526 220 180 0
-0.1538 1.0198 -0.0474 220 180 0
-0.0922 1.0455 -0.0526 220 180 0
-0.1538 1.0198 -0.0474 220 180 0
-0.0922 1.0455 -0.0526 220 180 0
-0.1536 1.0194 -0.0473 220 180 0
-0.0924 1.0459 -0.0527 220 180 0
-0.1537 1.0194 -0.0473 220 180 0
-0.0923 1.0459 -0.0527 220 180 0
-0.1537 1.0196 -0.0473 220 180 0
-0.0923 1.0457 -0.0527 220 180 0
-0.1536 1.0193 -0.0473 220 180 0
-0.0924 1.0460 -0.0527 220 180 0
-0.1537 1.0195 -0.0474 220 180 0
-0.0923 1.0458 -0.0526 220 180 0
-0.1538 1.0198 -0.0474 220 180 0
-0.0922 1.0455 -0.0526 220 180 0
-0.1537 1.0198 -0.0474 220 180 0
-0.0923 1.0455 -0.0526 220 180 0
-0.1537 1.0197 -0.0473 220 180 0
-0.0923 1.0456 -0.0527 220 180 0
-0.1538 1.0198 -0.0474 220 180 0
-0.0922 1.0455 -0.0526 220 180 0
-0.1537 1.0198 -0.0474 220 180 0
-0.0923 1.0455 -0.0526 220 180 0
-0.1551 1.0244 -0.0487 220 180 0
-0.0909 1.0409 -0.0513 220 180 0
-0.1540 1.0209 -0.0474 220 180 0
-0.0920 1.0445 -0.0526 220 180 0
-0.1538 1.0202 -0.0469 220 180 0
-0.0922 1.0451 -0.0531 220 180 0
-0.1531 1.0192 -0.0470 220 180 0
-0.0929 1.0462 -0.0530 220 180 0
-0.1527 1.0180 -0.0465 220 180 0
-0.0933 1.0473 -0.0535 220 180 0
-0.1529 1.0183 -0.0465 220 180 0
-0.0931 1.0470 -0.0535 220 180 0
-0.1530 1.0185 -0.0465 220 180 0
-0.0930 1.0468 -0.0535 220 180 0
-0.1532 1.0190 -0.0465 220 180 0
-0.0928 1.0463 -0.0535 220 180 0
-0.1532 1.0189 -0.0465 220 180 0
-0.0928 1.0464 -0.0535 220 180 0
-0.1532 1.0190 -0.0465 220 180 0
-0.0928 1.0464 -0.0535 220 180 0
-0.1543 1.0192 -0.0465 220 180 0
-0.0917 1.0461 -0.0535 220 180 0
-0.1532 1.0178 -0.0459 220 180 0
-0.0928 1.0475 -0.0541 220 180 0
-0.1533 1.0188 -0.0465 220 180 0
-0.0927 1.0466 -0.0535 220 180 0
-0.1522 1.0161 -0.0461 220 180 0
-0.0938 1.0492 -0.0539 220 180 0
-0.1540 1.0171 -0.0458 220 180 0
-0.0920 1.0482 -0.0542 220 180 0
-0.1546 1.0207 -0.0471 220 180 0
-0.0914 1.0447 -0.0529 220 180 0
-0.1508 1.0038 -0.0486 220 180 0
-0.0952 1.0615 -0.0514 220 180 0
-0.1537 1.0166 -0.0476 220 180 0
-0.0923 1.0487 -0.0524 220 180 0
-0.1544 1.0215 -0.0475 220 180 0
-0.0916 1.0438 -0.0525 220 180 0
-0.1534 1.0180 -0.0462 220 180 0
-0.0926 1.0473 -0.0538 220 180 0
-0.1523 1.0170 -0.0457 220 180 0
-0.0937 1.0483 -0.0543 220 180 0
-0.1491 1.0102 -0.0441 220 180 0
-0.0969 1.0551 -0.0559 220 180 0
-0.1546 1.0168 -0.0474 220 180 0
-0.0914 1.0485 -0.0526 220 180 0
-0.1501 1.0126 -0.0460 220 180 0
-0.0959 1.0527 -0.0540 220 180 0
-0.1531 1.0139 -0.0471 220 180 0
-0.0929 1.0514 -0.0529 220 180 0
-0.1527 1.0139 -0.0455 220 180 0
-0.0933 1.0514 -0.0545 220 180 0
-0.1531 1.0163 -0.0456 220 180 0
-0.0929 1.0490 -0.0544 220 180 0
-0.1529 1.0170 -0.0461 220 180 0
-0.0931 1.0483 -0.0539 220 180 0
-0.1525 1.0162 -0.0457 220 180 0
-0.0934 1.0491 -0.0543 220 180 0
-0.1529 1.0169 -0.0460 220 180 0
-0.0931 1.0484 -0.0540 220 180 0
-0.1550 1.0253 -0.0482 220 180 0
-0.0910 1.0400 -0.0518 220 180 0
-0.1538 1.0136 -0.0459 220 180 0
-0.0922 1.0517 -0.0541 220 180 0
-0.1544 1.0153 -0.0461 220 180 0
-0.0916 1.0500 -0.0539 220 180 0
-0.1520 1.0109 -0.0466 220 180 0
-0.0940 1.0544 -0.0534 220 180 0
-0.1496 1.0120 -0.0449 220 180 0
-0.0963 1.0533 -0.0551 220 180 0
-0.1552 1.0141 -0.0467 220 180 0
-0.0908 1.0512 -0.0533 220 180 0
-0.1498 1.0082 -0.0467 220 180 0
-0.0961 1.0571 -0.0533 220 180 0
-0.1467 1.0051 -0.0456 220 180 0
-0.0993 1.0602 -0.0544 220 180 0
-0.1535 1.0206 -0.0479 220 180 0
-0.0925 1.0447 -0.0521 220 180 0
-0.1558 1.0189 -0.0474 220 180 0
-0.0902 1.0464 -0.0526 220 180 0
-0.1557 1.0247 -0.0484 220 180 0
-0.0903 1.0406 -0.0516 220 180 0
-0.1530 1.0166 -0.0472 220 180 0
-0.0930 1.0488 -0.0528 220 180 0
-0.1555 1.0248 -0.0484 220 180 0
-0.0905 1.0406 -0.0516 220 180 0
-0.1546 1.0143 -0.0445 220 180 0
-0.0914 1.0510 -0.0555 220 180 0
-0.1540 1.0188 -0.0474 220 180 0
-0.0920 1.0465 -0.0526 220 180 0
-0.1540 1.0162 -0.0463 220 180 0
-0.0919 1.0491 -0.0537 220 180 0
-0.1530 1.0149 -0.0455 220 180 0
-0.0930 1.0504 -0.0545 220 180 0
-0.1534 1.0112 -0.0455 220 180 0
-0.0925 1.0542 -0.0545 220 180 0
-0.1541 1.0171 -0.0476 220 180 0
-0.0919 1.0482 -0.0524 220 180 0
-0.1549 1.0186 -0.0463 220 180 0
-0.0911 1.0467 -0.0537 220 180 0
-0.1555 1.0223 -0.0482 220 180 0
-0.0905 1.0431 -0.0518 220 180 0
-0.1494 1.0119 -0.0440 220 180 0
-0.0966 1.0534 -0.0560 220 180 0
-0.1560 1.0209 -0.0470 220 180 0
-0.0900 1.0444 -0.0530 220 180 0
-0.1540 1.0105 -0.0472 220 180 0
-0.0919 1.0548 -0.0528 220 180 0
-0.1542 1.0210 -0.0473 220 180 0
-0.0917 1.0443 -0.0527 220 180 0
-0.1561 1.0263 -0.0481 220 180 0
-0.0899 1.0390 -0.0519 220 180 0
-0.1559 1.0244 -0.0477 220 180 0
-0.0901 1.0409 -0.0522 220 180 0
-0.1560 1.0249 -0.0479 220 180 0
-0.0900 1.0404 -0.0521 220 180 0
-0.1560 1.0247 -0.0478 220 180 0
-0.0900 1.0406 -0.0522 220 180 0
-0.1559 1.0234 -0.0476 220 180 0
-0.0901 1.0419 -0.0524 220 180 0
-0.1559 1.0223 -0.0476 220 180 0
-0.0901 1.0431 -0.0524 220 180 0
-0.1567 1.0323 -0.0491 220 180 0
-0.0892 1.0330 -0.0509 220 180 0
-0.1536 1.0176 -0.0467 220 180 0
-0.0924 1.0477 -0.0533 220 180 0
-0.1519 1.0103 -0.0420 220 180 0
-0.0941 1.0550 -0.0580 220 180 0
-0.1537 1.0176 -0.0457 220 180 0
-0.0923 1.0478 -0.0543 220 180 0
-0.1556 1.0243 -0.0484 220 180 0
-0.0904 1.0410 -0.0516 220 180 0
-0.1532 1.0148 -0.0465 220 180 0
-0.0928 1.0505 -0.0535 220 180 0
-0.1549 1.0237 -0.0480 220 180 0
-0.0911 1.0416 -0.0520 220 180 0
-0.1543 1.0173 -0.0461 220 180 0
-0.0917 1.0481 -0.0539 220 180 0
-0.1530 1.0142 -0.0438 220 180 0
-0.0930 1.0511 -0.0562 220 180 0
-0.1470 0.9995 -0.0479 220 180 0
-0.0990 1.0658 -0.0521 220 180 0
-0.1498 1.0104 -0.0468 220 180 0
-0.0961 1.0549 -0.0532 220 180 0
-0.1528 1.0160 -0.0471 220 180 0
-0.0932 1.0494 -0.0529 220 180 0
-0.1546 1.0219 -0.0475 220 180 0
-0.0914 1.0434 -0.0525 220 180 0
-0.1549 1.0214 -0.0476 220 180 0
-0.0911 1.0439 -0.0524 220 180 0
-0.1544 1.0195 -0.0471 220 180 0
-0.0916 1.0458 -0.0529 220 180 0
-0.1541 1.0215 -0.0475 220 180 0
-0.0919 1.0438 -0.0525 220 180 0
-0.1541 1.0211 -0.0474 220 180 0
-0.0919 1.0442 -0.0526 220 180 0
-0.1541 1.0212 -0.0474 220 180 0
-0.0919 1.0441 -0.0526 220 180 0
-0.1533 1.0190 -0.0465 220 180 0
-0.0927 1.0463 -0.0535 220 180 0
-0.1537 1.0195 -0.0467 220 180 0
-0.0923 1.0458 -0.0533 220 180 0
-0.1548 1.0230 -0.0479 220 180 0
-0.0912 1.0423 -0.0521 220 180 0
-0.1540 1.0192 -0.0463 220 180 0
-0.0920 1.0462 -0.0537 220 180 0
-0.1549 1.0214 -0.0477 220 180 0
-0.0911 1.0439 -0.0523 220 180 0
-0.1536 1.0124 -0.0440 220 180 0
-0.0924 1.0529 -0.0560 220 180 0
-0.1542 1.0178 -0.0463 220 180 0
-0.0918 1.0475 -0.0537 220 180 0
-0.1536 1.0152 -0.0449 220 180 0
-0.0924 1.0501 -0.0551 220 180 0
-0.1559 1.0223 -0.0474 220 180 0
-0.0901 1.0430 -0.0526 220 180 0
-0.1552 1.0119 -0.0440 220 180 0
-0.0908 1.0535 -0.0560 220 180 0
-0.1554 1.0256 -0.0483 220 180 0
-0.0906 1.0397 -0.0517 220 180 0
-0.1540 1.0129 -0.0430 220 180 0
-0.0920 1.0524 -0.0570 220 180 0
-0.1558 1.0200 -0.0472 220 180 0
-0.0902 1.0453 -0.0528 220 180 0
-0.1558 1.0199 -0.0472 220 180 0
-0.0902 1.0454 -0.0528 220 180 0
-0.1556 1.0223 -0.0475 220 180 0
-0.0904 1.0430 -0.0525 220 180 0
-0.1559 1.0195 -0.0471 220 180 0
-0.0901 1.0458 -0.0529 220 180 0
-0.1559 1.0202 -0.0472 220 180 0
-0.0901 1.0451 -0.0528 220 180 0
-0.1559 1.0201 -0.0472 220 180 0
-0.0901 1.0452 -0.0528 220 180 0
-0.1560 1.0197 -0.0470 220 180 0
-0.0900 1.0456 -0.0530 220 180 0
-0.1559 1.0198 -0.0470 220 180 0
-0.0900 1.0455 -0.0530 220 180 0
-0.1556 1.0208 -0.0473 220 180 0
-0.0904 1.0445 -0.0527 220 180 0
-0.1557 1.0218 -0.0475 220 180 0
-0.0903 1.0435 -0.0525 220 180 0
-0.1561 1.0181 -0.0468 220 180 0
-0.0899 1.0472 -0.0532 220 180 0
-0.1559 1.0200 -0.0472 220 180 0
-0.0901 1.0453 -0.0528 220 180 0
-0.1557 1.0219 -0.0474 220 180 0
-0.0903 1.0435 -0.0526 220 180 0
-0.1557 1.0220 -0.0475 220 180 0
-0.0903 1.0433 -0.0525 220 180 0
-0.1557 1.0214 -0.0474 220 180 0
-0.0903 1.0440 -0.0526 220 180 0
-0.1557 1.0225 -0.0476 220 180 0
-0.0903 1.0428 -0.0524 220 180 0
-0.1557 1.0216 -0.0474 220 180 0
-0.0903 1.0437 -0.0526 220 180 0
-0.1557 1.0222 -0.0475 220 180 0
-0.0903 1.0432 -0.0525 220 180 0
-0.1557 1.0221 -0.0474 220 180 0
-0.0903 1.0433 -0.0525 220 180 0
-0.1557 1.0221 -0.0474 220 180 0
-0.0903 1.0432 -0.0526 220 180 0
-0.1557 1.0219 -0.0474 220 180 0
-0.0903 1.0434 -0.0526 220 180 0
-0.1304 0.9882 -0.0380 220 180 0
-0.1156 1.0771 -0.0620 220 180 0
-0.1516 1.0117 -0.0468 220 180 0
-0.0944 1.0536 -0.0532 220 180 0
-0.1540 1.0167 -0.0452 220 180 0
-0.0920 1.0486 -0.0548 220 180 0
-0.1491 1.0096 -0.0466 220 180 0
-0.0969 1.0557 -0.0534 220 180 0
-0.1521 1.0168 -0.0474 220 180 0
-0.0939 1.0485 -0.0526 220 180 0
-0.1508 1.0140 -0.0472 220 180 0
-0.0952 1.0513 -0.0528 220 180 0
-0.1512 1.0149 -0.0472 220 180 0
-0.0948 1.0504 -0.0528 220 180 0
-0.1517 1.0159 -0.0473 220 180 0
-0.0943 1.0494 -0.0527 220 180 0
-0.1518 1.0161 -0.0473 220 180 0
-0.0942 1.0492 -0.0527 220 180 0
-0.1516 1.0158 -0.0473 220 180 0
-0.0944 1.0495 -0.0527 220 180 0
-0.1513 1.0149 -0.0456 220 180 0
-0.0947 1.0505 -0.0544 220 180 0
-0.1490 1.0113 -0.0436 220 180 0
-0.0970 1.0540 -0.0564 220 180 0
-0.1485 1.0107 -0.0435 220 180 0
-0.0975 1.0547 -0.0565 220 180 0
-0.1478 1.0095 -0.0428 220 180 0
-0.0982 1.0558 -0.0572 220 180 0
-0.1509 1.0051 -0.0501 220 180 0
-0.0951 1.0603 -0.0499 220 180 0
-0.1554 1.0220 -0.0480 220 180 0
-0.0906 1.0433 -0.0520 220 180 0
-0.1529 1.0171 -0.0450 220 180 0
-0.0931 1.0483 -0.0550 220 180 0
-0.1551 1.0200 -0.0470 220 180 0
-0.0909 1.0453 -0.0530 220 180 0
-0.1560 1.0272 -0.0493 220 180 0
-0.0900 1.0381 -0.0507 220 180 0
-0.1543 1.0180 -0.0467 220 180 0
-0.0917 1.0473 -0.0533 220 180 0
-0.1544 1.0174 -0.0466 220 180 0
-0.0916 1.0479 -0.0534 220 180 0
-0.1538 1.0137 -0.0452 220 180 0
-0.0922 1.0516 -0.0548 220 180 0
-0.1540 1.0127 -0.0435 220 180 0
-0.0920 1.0526 -0.0565 220 180 0
-0.1558 1.0247 -0.0486 220 180 0
-0.0902 1.0407 -0.0514 220 180 0
-0.1553 1.0228 -0.0476 220 180 0
-0.0907 1.0425 -0.0524 220 180 0
-0.1551 1.0255 -0.0483 220 180 0
-0.0909 1.0398 -0.0517 220 180 0
-0.1554 1.0212 -0.0470 220 180 0
-0.0906 1.0441 -0.0530 220 180 0
-0.1555 1.0221 -0.0473 220 180 0
-0.0905 1.0432 -0.0527 220 180 0
-0.1537 1.0161 -0.0460 220 180 0
-0.0923 1.0492 -0.0540 220 180 0
-0.1545 1.0208 -0.0470 220 180 0
-0.0915 1.0446 -0.0530 220 180 0
-0.1568 1.0228 -0.0476 220 180 0
-0.0892 1.0426 -0.0524 220 180 0
-0.1562 1.0202 -0.0476 220 180 0
-0.0898 1.0451 -0.0523 220 180 0
-0.1568 1.0187 -0.0467 220 180 0
-0.0892 1.0467 -0.0533 220 180 0
-0.1520 1.0115 -0.0427 220 180 0
-0.0940 1.0538 -0.0573 220 180 0
-0.1529 1.0128 -0.0427 220 180 0
-0.0931 1.0525 -0.0573 220 180 0
-0.1517 1.0113 -0.0423 220 180 0
-0.0943 1.0540 -0.0577 220 180 0
-0.1519 1.0119 -0.0427 220 180 0
-0.0941 1.0534 -0.0573 220 180 0
-0.1524 1.0131 -0.0434 220 180 0
-0.0935 1.0522 -0.0566 220 180 0
-0.1514 1.0108 -0.0418 220 180 0
-0.0945 1.0545 -0.0582 220 180 0
-0.1514 1.0110 -0.0421 220 180 0
-0.0946 1.0543 -0.0579 220 180 0
-0.1522 1.0126 -0.0431 220 180 0
-0.0938 1.0527 -0.0569 220 180 0
-0.1521 1.0124 -0.0430 220 180 0
-0.0939 1.0529 -0.0570 220 180 0
-0.1520 1.0122 -0.0428 220 180 0
-0.0940 1.0531 -0.0572 220 180 0
-0.1524 1.0130 -0.0434 220 180 0
-0.0935 1.0523 -0.0566 220 180 0
-0.1521 1.0124 -0.0430 220 180 0
-0.0939 1.0529 -0.0570 220 180 0
-0.1523 1.0127 -0.0432 220 180 0
-0.0937 1.0526 -0.0568 220 180 0
-0.1523 1.0127 -0.0432 220 180 0
-0.0937 1.0526 -0.0568 220 180 0
-0.1522 1.0124 -0.0431 220 180 0
-0.0938 1.0529 -0.0569 220 180 0
-0.1522 1.0127 -0.0431 220 180 0
-0.0938 1.0526 -0.0569 220 180 0
-0.1523 1.0126 -0.0432 220 180 0
-0.0937 1.0528 -0.0568 220 180 0
-0.1522 1.0126 -0.0431 220 180 0
-0.0938 1.0527 -0.0569 220 180 0
