ply
format ascii 1.0
element vertex 374
property float x
property float y
property float z
property uchar red
property uchar green
property uchar blue
end_header
-0.1534 1.0129 -0.0473 0 200 200
-0.1533 1.0127 -0.0473 0 200 200
-0.1533 1.0124 -0.0473 0 200 200
-0.1532 1.0122 -0.0473 0 200 200
-0.1534 1.0126 -0.0473 0 200 200
-0.1533 1.0124 -0.0473 0 200 200
-0.1534 1.0124 -0.0472 0 200 200
-0.1534 1.0126 -0.0472 0 200 200
-0.1532 1.0123 -0.0473 0 200 200
-0.1534 1.0124 -0.0472 0 200 200
-0.1532 1.0125 -0.0473 0 200 200
-0.1534 1.0126 -0.0473 0 200 200
-0.1533 1.0124 -0.0473 0 200 200
-0.1532 1.0121 -0.0473 0 200 200
-0.1533 1.0127 -0.0473 0 200 200
-0.1533 1.0128 -0.0473 0 200 200
-0.1533 1.0129 -0.0473 0 200 200
-0.1533 1.0125 -0.0473 0 200 200
-0.1533 1.0127 -0.0473 0 200 200
-0.1534 1.0129 -0.0473 0 200 200
-0.1533 1.0124 -0.0473 0 200 200
-0.1533 1.0128 -0.0473 0 200 200
-0.1533 1.0125 -0.0473 0 200 200
-0.1534 1.0125 -0.0473 0 200 200
-0.1533 1.0123 -0.0473 0 200 200
-0.1534 1.0126 -0.0473 0 200 200
-0.1534 1.0126 -0.0473 0 200 200
-0.1533 1.0125 -0.0473 0 200 200
-0.1533 1.0121 -0.0472 0 200 200
-0.1534 1.0125 -0.0472 0 200 200
-0.1532 1.0122 -0.0472 0 200 200
-0.1535 1.0128 -0.0473 0 200 200
-0.1533 1.0125 -0.0473 0 200 200
-0.1533 1.0125 -0.0473 0 200 200
-0.1533 1.0129 -0.0473 0 200 200
-0.1533 1.0125 -0.0473 0 200 200
-0.1534 1.0126 -0.0473 0 200 200
-0.1534 1.0131 -0.0473 0 200 200
-0.1533 1.0126 -0.0473 0 200 200
-0.1533 1.0127 -0.0473 0 200 200
-0.1534 1.0129 -0.0473 0 200 200
-0.1534 1.0126 -0.0473 0 200 200
-0.1534 1.0127 -0.0473 0 200 200
-0.1533 1.0128 -0.0473 0 200 200
-0.1534 1.0126 -0.0473 0 200 200
-0.1533 1.0127 -0.0473 0 200 200
-0.1534 1.0130 -0.0474 0 200 200
-0.1533 1.0126 -0.0473 0 200 200
-0.1534 1.0126 -0.0473 0 200 200
-0.1533 1.0124 -0.0473 0 200 200
-0.1534 1.0127 -0.0473 0 200 200
-0.1534 1.0130 -0.0473 0 200 200
-0.1533 1.0126 -0.0473 0 200 200
-0.1533 1.0124 -0.0473 0 200 200
-0.1532 1.0122 -0.0473 0 200 200
-0.1534 1.0130 -0.0473 0 200 200
-0.1533 1.0126 -0.0473 0 200 200
-0.1534 1.0128 -0.0473 0 200 200
-0.1534 1.0128 -0.0473 0 200 200
-0.1534 1.0125 -0.0472 0 200 200
-0.1534 1.0123 -0.0473 0 200 200
-0.1535 1.0130 -0.0473 0 200 200
-0.1535 1.0178 -0.0470 0 200 200
-0.1530 0.9285 -0.0334 0 200 200
-0.1514 0.9239 -0.0330 0 200 200
-0.1519 0.9253 -0.0333 0 200 200
-0.1522 0.9261 -0.0334 0 200 200
-0.1647 0.9538 -0.0418 0 200 200
-0.1543 1.0203 -0.0466 0 200 200
-0.1540 1.0143 -0.0475 0 200 200
-0.1509 1.0138 -0.0468 0 200 200
-0.1538 1.0180 -0.0474 0 200 200
-0.1535 1.0194 -0.0470 0 200 200
-0.1491 1.0303 -0.0822 0 200 200
-0.1499 1.0076 -0.0467 0 200 200
-0.1468 0.9868 -0.0533 0 200 200
-0.1536 1.0173 -0.0455 0 200 200
-0.1545 1.0164 -0.0476 0 200 200
-0.1507 1.0104 -0.0419 0 200 200
-0.1500 1.0087 -0.0421 0 200 200
-0.1730 0.9725 -0.0340 0 200 200
-0.1530 1.0180 -0.0465 0 200 200
-0.1525 1.0105 -0.0417 0 200 200
-0.1532 1.0140 -0.0432 0 200 200
-0.1532 1.0142 -0.0432 0 200 200
-0.1531 1.0144 -0.0432 0 200 200
-0.1619 1.0311 -0.0735 0 200 200
-0.1548 1.0238 -0.0478 0 200 200
-0.1538 1.0168 -0.0472 0 200 200
-0.1488 1.0097 -0.0462 0 200 200
-0.1528 1.0154 -0.0469 0 200 200
-0.1547 1.0174 -0.0464 0 200 200
-0.1536 1.0192 -0.0463 0 200 200
-0.1523 1.0101 -0.0407 0 200 200
-0.1546 1.0192 -0.0463 0 200 200
-0.1539 1.0173 -0.0473 0 200 200
-0.1545 1.0228 -0.0481 0 200 200
-0.1544 1.0228 -0.0480 0 200 200
-0.1543 1.0224 -0.0478 0 200 200
-0.1541 1.0215 -0.0476 0 200 200
-0.1542 1.0220 -0.0477 0 200 200
-0.1542 1.0220 -0.0477 0 200 200
-0.1560 1.0247 -0.0485 0 200 200
-0.1546 1.0210 -0.0470 0 200 200
-0.1514 1.0052 -0.0489 0 200 200
-0.1539 1.0204 -0.0474 0 200 200
-0.1539 1.0200 -0.0474 0 200 200
-0.1539 1.0198 -0.0474 0 200 200
-0.1539 1.0199 -0.0475 0 200 200
-0.1538 1.0197 -0.0473 0 200 200
-0.1538 1.0198 -0.0474 0 200 200
-0.1538 1.0198 -0.0474 0 200 200
-0.1536 1.0194 -0.0473 0 200 200
-0.1537 1.0194 -0.0473 0 200 200
-0.1537 1.0196 -0.0473 0 200 200
-0.1536 1.0193 -0.0473 0 200 200
-0.1537 1.0195 -0.0474 0 200 200
-0.1538 1.0198 -0.0474 0 200 200
-0.1537 1.0198 -0.0474 0 200 200
-0.1537 1.0197 -0.0473 0 200 200
-0.1538 1.0198 -0.0474 0 200 200
-0.1537 1.0198 -0.0474 0 200 200
-0.1551 1.0244 -0.0487 0 200 200
-0.1540 1.0209 -0.0474 0 200 200
-0.1538 1.0202 -0.0469 0 200 200
-0.1531 1.0192 -0.0470 0 200 200
-0.1527 1.0180 -0.0465 0 200 200
-0.1529 1.0183 -0.0465 0 200 200
-0.1530 1.0185 -0.0465 0 200 200
-0.1532 1.0190 -0.0465 0 200 200
-0.1532 1.0189 -0.0465 0 200 200
-0.1532 1.0190 -0.0465 0 200 200
-0.1543 1.0192 -0.0465 0 200 200
-0.1532 1.0178 -0.0459 0 200 200
-0.1533 1.0188 -0.0465 0 200 200
-0.1522 1.0161 -0.0461 0 200 200
-0.1540 1.0171 -0.0458 0 200 200
-0.1546 1.0207 -0.0471 0 200 200
-0.1508 1.0038 -0.0486 0 200 200
-0.1537 1.0166 -0.0476 0 200 200
-0.1544 1.0215 -0.0475 0 200 200
-0.1534 1.0180 -0.0462 0 200 200
-0.1523 1.0170 -0.0457 0 200 200
-0.1491 1.0102 -0.0441 0 200 200
-0.1546 1.0168 -0.0474 0 200 200
-0.1501 1.0126 -0.0460 0 200 200
-0.1531 1.0139 -0.0471 0 200 200
-0.1527 1.0139 -0.0455 0 200 200
-0.1531 1.0163 -0.0456 0 200 200
-0.1529 1.0170 -0.0461 0 200 200
-0.1525 1.0162 -0.0457 0 200 200
-0.1529 1.0169 -0.0460 0 200 200
-0.1636 1.0447 -0.0549 0 200 200
-0.1581 1.0466 -0.0524 0 200 200
-0.1550 1.0253 -0.0482 0 200 200
-0.1538 1.0136 -0.0459 0 200 200
-0.1544 1.0153 -0.0461 0 200 200
-0.1520 1.0109 -0.0466 0 200 200
-0.1496 1.0120 -0.0449 0 200 200
-0.1552 1.0141 -0.0467 0 200 200
-0.1498 1.0082 -0.0467 0 200 200
-0.1467 1.0051 -0.0456 0 200 200
-0.1535 1.0206 -0.0479 0 200 200
-0.1558 1.0189 -0.0474 0 200 200
-0.1557 1.0247 -0.0484 0 200 200
-0.1530 1.0166 -0.0472 0 200 200
-0.1555 1.0248 -0.0484 0 200 200
-0.1546 1.0143 -0.0445 0 200 200
-0.1578 0.9637 -0.0307 0 200 200
-0.1540 1.0188 -0.0474 0 200 200
-0.1540 1.0162 -0.0463 0 200 200
-0.1530 1.0149 -0.0455 0 200 200
-0.1664 1.0343 -0.0515 0 200 200
-0.1534 1.0112 -0.0455 0 200 200
-0.1541 1.0171 -0.0476 0 200 200
-0.1549 1.0186 -0.0463 0 200 200
-0.1555 1.0223 -0.0482 0 200 200
-0.1494 1.0119 -0.0440 0 200 200
-0.1560 1.0209 -0.0470 0 200 200
-0.1540 1.0105 -0.0472 0 200 200
-0.1542 1.0210 -0.0473 0 200 200
-0.1291 1.0856 -0.0973 0 200 200
-0.1561 1.0263 -0.0481 0 200 200
-0.1559 1.0244 -0.0477 0 200 200
-0.1560 1.0249 -0.0479 0 200 200
-0.1560 1.0247 -0.0478 0 200 200
-0.1559 1.0234 -0.0476 0 200 200
-0.1559 1.0223 -0.0476 0 200 200
-0.1516 1.0081 -0.0957 0 200 200
-0.1567 1.0323 -0.0491 0 200 200
-0.1536 1.0176 -0.0467 0 200 200
-0.1519 1.0103 -0.0420 0 200 200
-0.1537 1.0176 -0.0457 0 200 200
-0.1556 1.0243 -0.0484 0 200 200
-0.1532 1.0148 -0.0465 0 200 200
-0.1549 1.0237 -0.0480 0 200 200
-0.1604 0.9946 -0.0308 0 200 200
-0.1543 1.0173 -0.0461 0 200 200
-0.1530 1.0142 -0.0438 0 200 200
-0.1470 0.9995 -0.0479 0 200 200
-0.1498 1.0104 -0.0468 0 200 200
-0.1528 1.0160 -0.0471 0 200 200
-0.1546 1.0219 -0.0475 0 200 200
-0.1549 1.0214 -0.0476 0 200 200
-0.1544 1.0195 -0.0471 0 200 200
-0.1661 0.9900 -0.0444 0 200 200
-0.1541 1.0215 -0.0475 0 200 200
-0.1541 1.0211 -0.0474 0 200 200
-0.1541 1.0212 -0.0474 0 200 200
-0.1533 1.0190 -0.0465 0 200 200
-0.1537 1.0195 -0.0467 0 200 200
-0.1548 1.0230 -0.0479 0 200 200
-0.1540 1.0192 -0.0463 0 200 200
-0.1549 1.0214 -0.0477 0 200 200
-0.1536 1.0124 -0.0440 0 200 200
-0.1542 1.0178 -0.0463 0 200 200
-0.1536 1.0152 -0.0449 0 200 200
-0.1559 1.0223 -0.0474 0 200 200
-0.1253 1.0538 -0.0559 0 200 200
-0.1552 1.0119 -0.0440 0 200 200
-0.1554 1.0256 -0.0483 0 200 200
-0.1540 1.0129 -0.0430 0 200 200
-0.1330 1.0723 -0.0737 0 200 200
-0.0557 1.2117 -0.1329 0 200 200
0.1967 1.5131 -0.2672 0 200 200
0.1947 1.5043 -0.2630 0 200 200
0.1966 1.5132 -0.2674 0 200 200
0.1965 1.5130 -0.2672 0 200 200
0.1965 1.5124 -0.2670 0 200 200
0.1968 1.5151 -0.2681 0 200 200
0.1968 1.5149 -0.2680 0 200 200
0.1967 1.5145 -0.2678 0 200 200
0.1968 1.5149 -0.2680 0 200 200
0.1968 1.5150 -0.2681 0 200 200
0.1967 1.5142 -0.2677 0 200 200
0.1968 1.5145 -0.2678 0 200 200
0.1968 1.5146 -0.2679 0 200 200
0.1967 1.5143 -0.2677 0 200 200
0.1967 1.5142 -0.2677 0 200 200
0.1968 1.5146 -0.2679 0 200 200
0.1967 1.5141 -0.2676 0 200 200
0.1965 1.5122 -0.2668 0 200 200
0.1965 1.5124 -0.2669 0 200 200
0.1969 1.5150 -0.2681 0 200 200
0.1967 1.5142 -0.2677 0 200 200
0.1968 1.5143 -0.2677 0 200 200
0.1968 1.5145 -0.2678 0 200 200
0.1968 1.5147 -0.2679 0 200 200
0.1551 1.3477 -0.2017 0 200 200
-0.1558 1.0200 -0.0472 0 200 200
-0.1558 1.0199 -0.0472 0 200 200
-0.1556 1.0223 -0.0475 0 200 200
-0.1559 1.0195 -0.0471 0 200 200
-0.1559 1.0202 -0.0472 0 200 200
-0.1559 1.0201 -0.0472 0 200 200
-0.1560 1.0197 -0.0470 0 200 200
-0.1559 1.0198 -0.0470 0 200 200
-0.1556 1.0208 -0.0473 0 200 200
-0.1557 1.0218 -0.0475 0 200 200
-0.1561 1.0181 -0.0468 0 200 200
-0.1559 1.0200 -0.0472 0 200 200
-0.1557 1.0219 -0.0474 0 200 200
-0.1557 1.0220 -0.0475 0 200 200
-0.1557 1.0214 -0.0474 0 200 200
-0.1557 1.0225 -0.0476 0 200 200
-0.1557 1.0216 -0.0474 0 200 200
-0.1557 1.0222 -0.0475 0 200 200
-0.1557 1.0221 -0.0474 0 200 200
-0.1557 1.0221 -0.0474 0 200 200
-0.1557 1.0219 -0.0474 0 200 200
0.0032 1.3157 -0.0539 0 200 200
-0.1304 0.9882 -0.0380 0 200 200
-0.0843 0.9474 -0.0950 0 200 200
-0.4423 0.2286 0.1276 0 200 200
-0.4365 0.2266 0.1294 0 200 200
-0.4880 0.2685 0.1079 0 200 200
-0.5513 0.3775 0.0744 0 200 200
-0.5574 0.3803 0.0734 0 200 200
-0.5638 0.3832 0.0723 0 200 200
-0.5672 0.3847 0.0717 0 200 200
-0.5682 0.3852 0.0715 0 200 200
-0.5716 0.3867 0.0710 0 200 200
-0.5738 0.3877 0.0706 0 200 200
-0.5767 0.3890 0.0701 0 200 200
-0.5760 0.3887 0.0702 0 200 200
-0.5781 0.3897 0.0699 0 200 200
-0.5771 0.3892 0.0700 0 200 200
-0.5839 0.3921 0.0690 0 200 200
-0.5847 0.3925 0.0689 0 200 200
-0.5825 0.3916 0.0691 0 200 200
-0.5820 0.3913 0.0694 0 200 200
-0.5813 0.3911 0.0693 0 200 200
-0.5800 0.3905 0.0696 0 200 200
-0.5804 0.3907 0.0695 0 200 200
-0.5813 0.3911 0.0693 0 200 200
-0.5816 0.3912 0.0693 0 200 200
-0.5839 0.3923 0.0689 0 200 200
-0.5843 0.3924 0.0690 0 200 200
-0.5835 0.3920 0.0691 0 200 200
-0.5851 0.3927 0.0688 0 200 200
-0.5846 0.3925 0.0689 0 200 200
-0.5850 0.3927 0.0689 0 200 200
-0.5839 0.3922 0.0691 0 200 200
-0.5844 0.3924 0.0690 0 200 200
-0.5841 0.3923 0.0690 0 200 200
-0.5863 0.3932 0.0686 0 200 200
-0.5859 0.3931 0.0687 0 200 200
-0.5858 0.3930 0.0687 0 200 200
-0.5854 0.3928 0.0688 0 200 200
-0.5863 0.3932 0.0687 0 200 200
-0.6497 0.3884 0.0482 0 200 200
-0.5142 0.6793 -0.0004 0 200 200
-0.5173 0.4165 0.0855 0 200 200
-0.5319 0.4240 0.0833 0 200 200
-0.5249 0.4204 0.0845 0 200 200
-0.5256 0.4209 0.0843 0 200 200
-0.5261 0.4211 0.0842 0 200 200
-0.1516 1.0117 -0.0468 0 200 200
-0.1540 1.0167 -0.0452 0 200 200
-0.1491 1.0096 -0.0466 0 200 200
-0.1521 1.0168 -0.0474 0 200 200
-0.1508 1.0140 -0.0472 0 200 200
-0.1512 1.0149 -0.0472 0 200 200
-0.1517 1.0159 -0.0473 0 200 200
-0.1518 1.0161 -0.0473 0 200 200
-0.1516 1.0158 -0.0473 0 200 200
-0.1659 0.9892 -0.0568 0 200 200
-0.1513 1.0149 -0.0456 0 200 200
-0.1490 1.0113 -0.0436 0 200 200
-0.1485 1.0107 -0.0435 0 200 200
-0.1478 1.0095 -0.0428 0 200 200
-0.1509 1.0051 -0.0501 0 200 200
-0.1554 1.0220 -0.0480 0 200 200
-0.1529 1.0171 -0.0450 0 200 200
-0.1551 1.0200 -0.0470 0 200 200
-0.1560 1.0272 -0.0493 0 200 200
-0.1543 1.0180 -0.0467 0 200 200
-0.1544 1.0174 -0.0466 0 200 200
-0.1538 1.0137 -0.0452 0 200 200
-0.1540 1.0127 -0.0435 0 200 200
-0.1558 1.0247 -0.0486 0 200 200
-0.0364 0.9056 -0.0136 0 200 200
0.0190 0.8713 -0.0046 0 200 200
0.0001 0.8535 0.0045 0 200 200
0.0063 0.8789 -0.0016 0 200 200
-0.1553 1.0228 -0.0476 0 200 200
-0.1551 1.0255 -0.0483 0 200 200
-0.1554 1.0212 -0.0470 0 200 200
-0.1555 1.0221 -0.0473 0 200 200
-0.1537 1.0161 -0.0460 0 200 200
-0.1545 1.0208 -0.0470 0 200 200
-0.1568 1.0228 -0.0476 0 200 200
-0.1562 1.0202 -0.0476 0 200 200
-0.1568 1.0187 -0.0467 0 200 200
-0.1316 1.0499 -0.0568 0 200 200
-0.1112 1.0433 -0.0564 0 200 200
-0.1520 1.0115 -0.0427 0 200 200
-0.1529 1.0128 -0.0427 0 200 200
-0.1517 1.0113 -0.0423 0 200 200
-0.1519 1.0119 -0.0427 0 200 200
-0.1524 1.0131 -0.0434 0 200 200
-0.1514 1.0108 -0.0418 0 200 200
-0.1514 1.0110 -0.0421 0 200 200
-0.1522 1.0126 -0.0431 0 200 200
-0.1521 1.0124 -0.0430 0 200 200
-0.1520 1.0122 -0.0428 0 200 200
-0.1524 1.0130 -0.0434 0 200 200
-0.1521 1.0124 -0.0430 0 200 200
-0.1523 1.0127 -0.0432 0 200 200
-0.1523 1.0127 -0.0432 0 200 200
-0.1522 1.0124 -0.0431 0 200 200
-0.1522 1.0127 -0.0431 0 200 200
-0.1523 1.0126 -0.0432 0 200 200
-0.1522 1.0126 -0.0431 0 200 200
