ply
format ascii 1.0
element vertex 327
property float x
property float y
property float z
property uchar red
property uchar green
property uchar blue
end_header
-0.0926 1.0524 -0.0527 200 0 200
-0.0927 1.0526 -0.0527 200 0 200
-0.0927 1.0530 -0.0527 200 0 200
-0.0928 1.0532 -0.0527 200 0 200
-0.0926 1.0528 -0.0527 200 0 200
-0.0926 1.0529 -0.0527 200 0 200
-0.0926 1.0529 -0.0528 200 0 200
-0.0926 1.0527 -0.0528 200 0 200
-0.0928 1.0530 -0.0527 200 0 200
-0.0926 1.0529 -0.0528 200 0 200
-0.0927 1.0528 -0.0527 200 0 200
-0.0926 1.0527 -0.0527 200 0 200
-0.0927 1.0529 -0.0527 200 0 200
-0.0928 1.0532 -0.0527 200 0 200
-0.0927 1.0526 -0.0527 200 0 200
-0.0927 1.0525 -0.0527 200 0 200
-0.0927 1.0524 -0.0527 200 0 200
-0.0927 1.0528 -0.0527 200 0 200
-0.0927 1.0526 -0.0527 200 0 200
-0.0926 1.0524 -0.0527 200 0 200
-0.0927 1.0529 -0.0527 200 0 200
-0.0926 1.0525 -0.0527 200 0 200
-0.0926 1.0528 -0.0527 200 0 200
-0.0926 1.0528 -0.0527 200 0 200
-0.0927 1.0530 -0.0527 200 0 200
-0.0926 1.0527 -0.0527 200 0 200
-0.0926 1.0528 -0.0527 200 0 200
-0.0927 1.0528 -0.0527 200 0 200
-0.0927 1.0532 -0.0527 200 0 200
-0.0926 1.0529 -0.0528 200 0 200
-0.0927 1.0532 -0.0528 200 0 200
-0.0925 1.0525 -0.0527 200 0 200
-0.0927 1.0528 -0.0527 200 0 200
-0.0927 1.0529 -0.0527 200 0 200
-0.0926 1.0524 -0.0527 200 0 200
-0.0927 1.0528 -0.0527 200 0 200
-0.0926 1.0527 -0.0527 200 0 200
-0.0926 1.0522 -0.0527 200 0 200
-0.0927 1.0527 -0.0527 200 0 200
-0.0927 1.0526 -0.0527 200 0 200
-0.0926 1.0524 -0.0527 200 0 200
-0.0926 1.0527 -0.0527 200 0 200
-0.0926 1.0526 -0.0527 200 0 200
-0.0927 1.0525 -0.0527 200 0 200
-0.0926 1.0527 -0.0527 200 0 200
-0.0927 1.0527 -0.0527 200 0 200
-0.0926 1.0524 -0.0526 200 0 200
-0.0926 1.0527 -0.0527 200 0 200
-0.0926 1.0527 -0.0527 200 0 200
-0.0927 1.0529 -0.0527 200 0 200
-0.0926 1.0526 -0.0527 200 0 200
-0.0926 1.0523 -0.0527 200 0 200
-0.0927 1.0527 -0.0527 200 0 200
-0.0927 1.0529 -0.0527 200 0 200
-0.0927 1.0531 -0.0527 200 0 200
-0.0926 1.0523 -0.0526 200 0 200
-0.0927 1.0527 -0.0527 200 0 200
-0.0926 1.0525 -0.0527 200 0 200
-0.0926 1.0526 -0.0527 200 0 200
-0.0926 1.0529 -0.0528 200 0 200
-0.0926 1.0530 -0.0527 200 0 200
-0.0925 1.0523 -0.0527 200 0 200
-0.0925 1.0475 -0.0530 200 0 200
-0.1074 0.9987 -0.0452 200 0 200
-0.1024 0.9817 -0.0433 200 0 200
-0.1042 0.9876 -0.0446 200 0 200
-0.1044 0.9872 -0.0446 200 0 200
-0.0917 1.0450 -0.0534 200 0 200
-0.0919 1.0510 -0.0525 200 0 200
-0.0950 1.0515 -0.0532 200 0 200
-0.0922 1.0473 -0.0526 200 0 200
-0.0925 1.0459 -0.0530 200 0 200
-0.0961 1.0577 -0.0533 200 0 200
-0.0988 1.0477 -0.0598 200 0 200
-0.0924 1.0480 -0.0545 200 0 200
-0.0915 1.0489 -0.0524 200 0 200
-0.0952 1.0549 -0.0580 200 0 200
-0.0975 1.0630 -0.0642 200 0 200
-0.0930 1.0474 -0.0535 200 0 200
-0.0935 1.0548 -0.0582 200 0 200
-0.0928 1.0513 -0.0568 200 0 200
-0.0928 1.0512 -0.0568 200 0 200
-0.0929 1.0509 -0.0568 200 0 200
-0.0912 1.0415 -0.0522 200 0 200
-0.0922 1.0485 -0.0528 200 0 200
-0.0972 1.0556 -0.0538 200 0 200
-0.0932 1.0499 -0.0531 200 0 200
-0.0913 1.0479 -0.0536 200 0 200
-0.0924 1.0461 -0.0537 200 0 200
-0.0937 1.0553 -0.0593 200 0 200
-0.0914 1.0461 -0.0537 200 0 200
-0.0921 1.0480 -0.0527 200 0 200
-0.0915 1.0425 -0.0519 200 0 200
-0.0916 1.0425 -0.0520 200 0 200
-0.0917 1.0429 -0.0521 200 0 200
-0.0919 1.0438 -0.0524 200 0 200
-0.0918 1.0434 -0.0523 200 0 200
-0.0918 1.0434 -0.0523 200 0 200
-0.0900 1.0406 -0.0515 200 0 200
-0.0914 1.0444 -0.0530 200 0 200
-0.0946 1.0601 -0.0511 200 0 200
-0.0921 1.0449 -0.0526 200 0 200
-0.0921 1.0453 -0.0526 200 0 200
-0.0921 1.0455 -0.0525 200 0 200
-0.0921 1.0454 -0.0525 200 0 200
-0.0922 1.0456 -0.0526 200 0 200
-0.0922 1.0455 -0.0526 200 0 200
-0.0922 1.0455 -0.0526 200 0 200
-0.0924 1.0459 -0.0527 200 0 200
-0.0923 1.0459 -0.0527 200 0 200
-0.0923 1.0457 -0.0527 200 0 200
-0.0924 1.0460 -0.0527 200 0 200
-0.0923 1.0458 -0.0526 200 0 200
-0.0922 1.0455 -0.0526 200 0 200
-0.0923 1.0455 -0.0526 200 0 200
-0.0923 1.0456 -0.0527 200 0 200
-0.0922 1.0455 -0.0526 200 0 200
-0.0923 1.0455 -0.0526 200 0 200
-0.0909 1.0409 -0.0513 200 0 200
-0.0920 1.0445 -0.0526 200 0 200
-0.0922 1.0451 -0.0531 200 0 200
-0.0929 1.0462 -0.0530 200 0 200
-0.0933 1.0473 -0.0535 200 0 200
-0.0931 1.0470 -0.0535 200 0 200
-0.0930 1.0468 -0.0535 200 0 200
-0.0928 1.0463 -0.0535 200 0 200
-0.0928 1.0464 -0.0535 200 0 200
-0.0928 1.0464 -0.0535 200 0 200
-0.0917 1.0461 -0.0535 200 0 200
-0.0928 1.0475 -0.0541 200 0 200
-0.0927 1.0466 -0.0535 200 0 200
-0.0938 1.0492 -0.0539 200 0 200
-0.0920 1.0482 -0.0542 200 0 200
-0.0914 1.0447 -0.0529 200 0 200
-0.0952 1.0615 -0.0514 200 0 200
-0.0923 1.0487 -0.0524 200 0 200
-0.0916 1.0438 -0.0525 200 0 200
-0.0926 1.0473 -0.0538 200 0 200
-0.0937 1.0483 -0.0543 200 0 200
-0.0969 1.0551 -0.0559 200 0 200
-0.0914 1.0485 -0.0526 200 0 200
-0.0959 1.0527 -0.0540 200 0 200
-0.0929 1.0514 -0.0529 200 0 200
-0.0933 1.0514 -0.0545 200 0 200
-0.0929 1.0490 -0.0544 200 0 200
-0.0931 1.0483 -0.0539 200 0 200
-0.0934 1.0491 -0.0543 200 0 200
-0.0931 1.0484 -0.0540 200 0 200
-0.0910 1.0400 -0.0518 200 0 200
-0.0922 1.0517 -0.0541 200 0 200
-0.0916 1.0500 -0.0539 200 0 200
-0.0940 1.0544 -0.0534 200 0 200
-0.0963 1.0533 -0.0551 200 0 200
-0.0908 1.0512 -0.0533 200 0 200
-0.0961 1.0571 -0.0533 200 0 200
-0.0993 1.0602 -0.0544 200 0 200
-0.0925 1.0447 -0.0521 200 0 200
-0.0902 1.0464 -0.0526 200 0 200
-0.0903 1.0406 -0.0516 200 0 200
-0.0930 1.0488 -0.0528 200 0 200
-0.0905 1.0406 -0.0516 200 0 200
-0.0914 1.0510 -0.0555 200 0 200
-0.0988 1.0193 -0.0496 200 0 200
-0.0920 1.0465 -0.0526 200 0 200
-0.0919 1.0491 -0.0537 200 0 200
-0.0930 1.0504 -0.0545 200 0 200
-0.0925 1.0542 -0.0545 200 0 200
-0.0919 1.0482 -0.0524 200 0 200
-0.0911 1.0467 -0.0537 200 0 200
-0.0905 1.0431 -0.0518 200 0 200
-0.0966 1.0534 -0.0560 200 0 200
-0.0900 1.0444 -0.0530 200 0 200
-0.0919 1.0548 -0.0528 200 0 200
-0.0917 1.0443 -0.0527 200 0 200
-0.0548 1.3176 -0.1235 200 0 200
-0.0899 1.0390 -0.0519 200 0 200
-0.0901 1.0409 -0.0522 200 0 200
-0.0900 1.0404 -0.0521 200 0 200
-0.0900 1.0406 -0.0522 200 0 200
-0.0901 1.0419 -0.0524 200 0 200
-0.0901 1.0431 -0.0524 200 0 200
-0.0892 1.0330 -0.0509 200 0 200
-0.0924 1.0477 -0.0533 200 0 200
-0.0941 1.0550 -0.0580 200 0 200
-0.0923 1.0478 -0.0543 200 0 200
-0.0904 1.0410 -0.0516 200 0 200
-0.0928 1.0505 -0.0535 200 0 200
-0.0911 1.0416 -0.0520 200 0 200
-0.0983 1.0548 -0.0436 200 0 200
-0.0917 1.0481 -0.0539 200 0 200
-0.0930 1.0511 -0.0562 200 0 200
-0.0990 1.0658 -0.0521 200 0 200
-0.0961 1.0549 -0.0532 200 0 200
-0.0932 1.0494 -0.0529 200 0 200
-0.0914 1.0434 -0.0525 200 0 200
-0.0911 1.0439 -0.0524 200 0 200
-0.0916 1.0458 -0.0529 200 0 200
-0.0919 1.0438 -0.0525 200 0 200
-0.0919 1.0442 -0.0526 200 0 200
-0.0919 1.0441 -0.0526 200 0 200
-0.0927 1.0463 -0.0535 200 0 200
-0.0923 1.0458 -0.0533 200 0 200
-0.0912 1.0423 -0.0521 200 0 200
-0.0920 1.0462 -0.0537 200 0 200
-0.0911 1.0439 -0.0523 200 0 200
-0.0924 1.0529 -0.0560 200 0 200
-0.0918 1.0475 -0.0537 200 0 200
-0.0924 1.0501 -0.0551 200 0 200
-0.0901 1.0430 -0.0526 200 0 200
-0.0616 1.0981 -0.0664 200 0 200
-0.0908 1.0535 -0.0560 200 0 200
-0.0906 1.0397 -0.0517 200 0 200
-0.0920 1.0524 -0.0570 200 0 200
-0.0396 1.1453 -0.1024 200 0 200
-0.0902 1.0453 -0.0528 200 0 200
-0.0902 1.0454 -0.0528 200 0 200
-0.0904 1.0430 -0.0525 200 0 200
-0.0901 1.0458 -0.0529 200 0 200
-0.0901 1.0451 -0.0528 200 0 200
-0.0901 1.0452 -0.0528 200 0 200
-0.0900 1.0456 -0.0530 200 0 200
-0.0900 1.0455 -0.0530 200 0 200
-0.0904 1.0445 -0.0527 200 0 200
-0.0903 1.0435 -0.0525 200 0 200
-0.0899 1.0472 -0.0532 200 0 200
-0.0901 1.0453 -0.0528 200 0 200
-0.0903 1.0435 -0.0526 200 0 200
-0.0903 1.0433 -0.0525 200 0 200
-0.0903 1.0440 -0.0526 200 0 200
-0.0903 1.0428 -0.0524 200 0 200
-0.0903 1.0437 -0.0526 200 0 200
-0.0903 1.0432 -0.0525 200 0 200
-0.0903 1.0433 -0.0525 200 0 200
-0.0903 1.0432 -0.0526 200 0 200
-0.0903 1.0434 -0.0526 200 0 200
-0.1156 1.0771 -0.0620 200 0 200
-0.1295 1.0983 -0.0686 200 0 200
-0.1302 1.0994 -0.0690 200 0 200
-0.1307 1.1001 -0.0692 200 0 200
-0.1306 1.1000 -0.0692 200 0 200
-0.1301 1.0993 -0.0690 200 0 200
-0.1311 1.1006 -0.0693 200 0 200
-0.1310 1.1005 -0.0693 200 0 200
-0.1313 1.1010 -0.0695 200 0 200
-0.1312 1.1008 -0.0694 200 0 200
-0.1312 1.1008 -0.0694 200 0 200
-0.1312 1.1008 -0.0694 200 0 200
-0.1311 1.1006 -0.0694 200 0 200
-0.1315 1.1014 -0.0696 200 0 200
-0.1312 1.1010 -0.0695 200 0 200
-0.1316 1.1015 -0.0696 200 0 200
-0.1319 1.1019 -0.0698 200 0 200
-0.1316 1.1015 -0.0697 200 0 200
-0.1316 1.1015 -0.0697 200 0 200
-0.1322 1.1024 -0.0699 200 0 200
-0.1312 1.1010 -0.0695 200 0 200
-0.1318 1.1018 -0.0698 200 0 200
-0.1320 1.1021 -0.0699 200 0 200
-0.1322 1.1024 -0.0699 200 0 200
-0.1315 1.1014 -0.0697 200 0 200
-0.1320 1.1022 -0.0699 200 0 200
-0.1317 1.1016 -0.0697 200 0 200
-0.1320 1.1021 -0.0699 200 0 200
-0.1328 1.1034 -0.0703 200 0 200
-0.1327 1.1032 -0.0702 200 0 200
-0.1322 1.1025 -0.0700 200 0 200
-0.1326 1.1031 -0.0702 200 0 200
-0.1330 1.1037 -0.0703 200 0 200
-0.4498 0.3010 0.1111 200 0 200
-0.4599 0.3056 0.1099 200 0 200
-0.4635 0.1795 0.1130 200 0 200
-0.0944 1.0536 -0.0532 200 0 200
-0.0920 1.0486 -0.0548 200 0 200
-0.0969 1.0557 -0.0534 200 0 200
-0.0939 1.0485 -0.0526 200 0 200
-0.0952 1.0513 -0.0528 200 0 200
-0.0948 1.0504 -0.0528 200 0 200
-0.0943 1.0494 -0.0527 200 0 200
-0.0942 1.0492 -0.0527 200 0 200
-0.0944 1.0495 -0.0527 200 0 200
-0.1350 1.0085 -0.0485 200 0 200
-0.0947 1.0505 -0.0544 200 0 200
-0.0970 1.0540 -0.0564 200 0 200
-0.0975 1.0547 -0.0565 200 0 200
-0.0982 1.0558 -0.0572 200 0 200
-0.0951 1.0603 -0.0499 200 0 200
-0.0906 1.0433 -0.0520 200 0 200
-0.0931 1.0483 -0.0550 200 0 200
-0.0909 1.0453 -0.0530 200 0 200
-0.0900 1.0381 -0.0507 200 0 200
-0.0917 1.0473 -0.0533 200 0 200
-0.0916 1.0479 -0.0534 200 0 200
-0.0922 1.0516 -0.0548 200 0 200
-0.0920 1.0526 -0.0565 200 0 200
-0.0902 1.0407 -0.0514 200 0 200
-0.0907 1.0425 -0.0524 200 0 200
-0.0909 1.0398 -0.0517 200 0 200
-0.0906 1.0441 -0.0530 200 0 200
-0.0905 1.0432 -0.0527 200 0 200
-0.0923 1.0492 -0.0540 200 0 200
-0.0915 1.0446 -0.0530 200 0 200
-0.0892 1.0426 -0.0524 200 0 200
-0.5376 0.9698 -0.0539 200 0 200
-0.5258 0.9804 -0.0497 200 0 200
-0.5199 0.9698 -0.0453 200 0 200
-0.5351 0.9889 -0.0493 200 0 200
-0.0898 1.0451 -0.0523 200 0 200
-0.0892 1.0467 -0.0533 200 0 200
-0.0434 1.0802 -0.0652 200 0 200
-0.0940 1.0538 -0.0573 200 0 200
-0.0931 1.0525 -0.0573 200 0 200
-0.0943 1.0540 -0.0577 200 0 200
-0.0941 1.0534 -0.0573 200 0 200
-0.0935 1.0522 -0.0566 200 0 200
-0.0945 1.0545 -0.0582 200 0 200
-0.0946 1.0543 -0.0579 200 0 200
-0.0938 1.0527 -0.0569 200 0 200
-0.0939 1.0529 -0.0570 200 0 200
-0.0940 1.0531 -0.0572 200 0 200
-0.0935 1.0523 -0.0566 200 0 200
-0.0939 1.0529 -0.0570 200 0 200
-0.0937 1.0526 -0.0568 200 0 200
-0.0937 1.0526 -0.0568 200 0 200
-0.0938 1.0529 -0.0569 200 0 200
-0.0938 1.0526 -0.0569 200 0 200
-0.0937 1.0528 -0.0568 200 0 200
-0.0938 1.0527 -0.0569 200 0 200
