ply
format ascii 1.0
element vertex 125
property float x
property float y
property float z
property uchar red
property uchar green
property uchar blue
end_header
0.0000 0.0000 0.0750 0 220 0
0.0005 -0.0003 0.0744 0 220 0
-0.0004 -0.0002 0.0741 0 220 0
-0.0032 -0.0018 0.0691 0 220 0
-0.0068 -0.0030 0.0642 0 220 0
-0.0077 -0.0035 0.0631 0 220 0
-0.0053 -0.0025 0.0655 0 220 0
-0.0014 -0.0012 0.0711 0 220 0
0.0005 -0.0004 0.0729 0 220 0
0.0011 0.0002 0.0735 0 220 0
0.0003 -0.0003 0.0736 0 220 0
-0.0042 -0.0020 0.0682 0 220 0
-0.0045 -0.0024 0.0679 0 220 0
-0.0039 -0.0026 0.0682 0 220 0
-0.0061 -0.0036 0.0655 0 220 0
-0.0022 -0.0016 0.0707 0 220 0
0.0007 -0.0006 0.0737 0 220 0
0.0002 -0.0005 0.0733 0 220 0
-0.0021 -0.0011 0.0706 0 220 0
-0.0038 -0.0022 0.0682 0 220 0
-0.0026 -0.0017 0.0694 0 220 0
-0.0003 -0.0006 0.0731 0 220 0
-0.0043 -0.0026 0.0666 0 220 0
-0.0031 -0.0028 0.0668 0 220 0
-0.0011 -0.0014 0.0703 0 220 0
0.0012 -0.0000 0.0739 0 220 0
0.0012 0.0001 0.0739 0 220 0
-0.0019 -0.0013 0.0705 0 220 0
-0.0023 -0.0014 0.0702 0 220 0
-0.0030 -0.0017 0.0685 0 220 0
-0.0016 -0.0010 0.0701 0 220 0
-0.0036 -0.0017 0.0679 0 220 0
-0.0040 -0.0020 0.0670 0 220 0
-0.0014 -0.0010 0.0704 0 220 0
0.0014 -0.0001 0.0730 0 220 0
-0.0022 -0.0012 0.0691 0 220 0
-0.0014 -0.0007 0.0714 0 220 0
0.0002 -0.0006 0.0718 0 220 0
0.0021 0.0001 0.0739 0 220 0
0.0015 -0.0001 0.0725 0 220 0
-0.0023 -0.0019 0.0690 0 220 0
-0.0044 -0.0029 0.0653 0 220 0
-0.0048 -0.0027 0.0655 0 220 0
-0.0058 -0.0032 0.0640 0 220 0
-0.0033 -0.0024 0.0664 0 220 0
-0.0007 -0.0014 0.0687 0 220 0
0.0031 0.0004 0.0733 0 220 0
0.0030 0.0007 0.0742 0 220 0
-0.0020 -0.0015 0.0680 0 220 0
-0.0018 -0.0015 0.0676 0 220 0
-0.0024 -0.0021 0.0671 0 220 0
-0.0050 -0.0030 0.0649 0 220 0
-0.0022 -0.0022 0.0681 0 220 0
-0.0038 -0.0025 0.0672 0 220 0
-0.0044 -0.0025 0.0662 0 220 0
-0.0046 -0.0024 0.0667 0 220 0
-0.0032 -0.0019 0.0677 0 220 0
-0.0036 -0.0022 0.0664 0 220 0
-0.0048 -0.0026 0.0655 0 220 0
-0.0049 -0.0028 0.0651 0 220 0
-0.0063 -0.0036 0.0627 0 220 0
-0.0027 -0.0022 0.0682 0 220 0
-0.0039 -0.0028 0.0668 0 220 0
-0.0063 -0.0037 0.0637 0 220 0
-0.0022 -0.0022 0.0678 0 220 0
-0.0002 -0.0011 0.0702 0 220 0
-0.0009 -0.0015 0.0688 0 220 0
-0.0005 -0.0014 0.0685 0 220 0
-0.0047 -0.0029 0.0640 0 220 0
-0.0021 -0.0018 0.0675 0 220 0
-0.0017 -0.0017 0.0675 0 220 0
-0.0013 -0.0014 0.0688 0 220 0
-0.0013 -0.0019 0.0686 0 220 0
0.0012 -0.0007 0.0717 0 220 0
-0.0021 -0.0019 0.0687 0 220 0
-0.0009 -0.0013 0.0701 0 220 0
-0.0007 -0.0012 0.0705 0 220 0
-0.0006 -0.0013 0.0700 0 220 0
-0.0034 -0.0023 0.0663 0 220 0
-0.0032 -0.0023 0.0680 0 220 0
-0.0019 -0.0020 0.0681 0 220 0
-0.0038 -0.0028 0.0649 0 220 0
-0.0050 -0.0034 0.0637 0 220 0
-0.0028 -0.0021 0.0681 0 220 0
-0.0016 -0.0015 0.0700 0 220 0
-0.0001 -0.0010 0.0703 0 220 0
-0.0025 -0.0018 0.0676 0 220 0
-0.0041 -0.0028 0.0660 0 220 0
-0.0057 -0.0032 0.0640 0 220 0
-0.0086 -0.0040 0.0612 0 220 0
-0.0068 -0.0036 0.0626 0 220 0
-0.0011 -0.0013 0.0693 0 220 0
-0.0014 -0.0016 0.0682 0 220 0
-0.0013 -0.0018 0.0675 0 220 0
-0.0006 -0.0014 0.0680 0 220 0
-0.0002 -0.0010 0.0699 0 220 0
-0.0003 -0.0008 0.0711 0 220 0
-0.0010 -0.0017 0.0684 0 220 0
-0.0037 -0.0025 0.0655 0 220 0
-0.0034 -0.0024 0.0659 0 220 0
-0.0029 -0.0022 0.0660 0 220 0
-0.0004 -0.0009 0.0704 0 220 0
-0.0003 -0.0010 0.0696 0 220 0
-0.0033 -0.0022 0.0657 0 220 0
-0.0013 -0.0014 0.0680 0 220 0
-0.0001 -0.0013 0.0695 0 220 0
0.0007 -0.0004 0.0718 0 220 0
-0.0034 -0.0022 0.0659 0 220 0
-0.0060 -0.0033 0.0621 0 220 0
-0.0056 -0.0035 0.0621 0 220 0
-0.0015 -0.0014 0.0675 0 220 0
-0.0052 -0.0028 0.0629 0 220 0
-0.0081 -0.0038 0.0604 0 220 0
-0.0027 -0.0023 0.0663 0 220 0
-0.0050 -0.0035 0.0634 0 220 0
-0.0027 -0.0021 0.0666 0 220 0
-0.0055 -0.0031 0.0630 0 220 0
-0.0078 -0.0044 0.0602 0 220 0
-0.0032 -0.0026 0.0656 0 220 0
-0.0220 -0.0280 0.0709 0 220 0
-0.0188 -0.0377 0.0751 0 220 0
-0.0208 -0.0441 0.0763 0 220 0
-0.0288 -0.0484 0.0788 0 220 0
-0.0336 -0.0522 0.0792 0 220 0
-0.0254 -0.0526 0.0799 0 220 0
