ply
format ascii 1.0
element vertex 405
property float x
property float y
property float z
property uchar red
property uchar green
property uchar blue
end_header
0.0000 0.0000 0.0750 0 220 0
0.0011 -0.0008 0.0736 0 220 0
-0.0016 -0.0001 0.0735 0 220 0
-0.0075 -0.0040 0.0616 0 220 0
-0.0122 -0.0049 0.0569 0 220 0
-0.0091 -0.0042 0.0614 0 220 0
-0.0017 -0.0010 0.0690 0 220 0
0.0044 0.0007 0.0795 0 220 0
0.0033 0.0008 0.0755 0 220 0
0.0021 0.0010 0.0745 0 220 0
-0.0010 -0.0011 0.0737 0 220 0
-0.0109 -0.0044 0.0600 0 220 0
-0.0050 -0.0030 0.0674 0 220 0
-0.0031 -0.0028 0.0688 0 220 0
-0.0094 -0.0052 0.0615 0 220 0
0.0036 0.0014 0.0785 0 220 0
0.0050 0.0008 0.0782 0 220 0
-0.0004 -0.0003 0.0728 0 220 0
-0.0055 -0.0019 0.0665 0 220 0
-0.0065 -0.0039 0.0647 0 220 0
-0.0008 -0.0009 0.0711 0 220 0
0.0032 0.0011 0.0787 0 220 0
-0.0102 -0.0056 0.0570 0 220 0
-0.0012 -0.0031 0.0671 0 220 0
0.0017 0.0007 0.0756 0 220 0
0.0047 0.0020 0.0793 0 220 0
0.0013 0.0003 0.0738 0 220 0
-0.0067 -0.0033 0.0655 0 220 0
-0.0028 -0.0015 0.0697 0 220 0
-0.0042 -0.0023 0.0660 0 220 0
0.0006 0.0002 0.0726 0 220 0
-0.0066 -0.0029 0.0645 0 220 0
-0.0048 -0.0023 0.0656 0 220 0
0.0026 0.0004 0.0757 0 220 0
0.0056 0.0013 0.0768 0 220 0
-0.0077 -0.0029 0.0633 0 220 0
-0.0002 0.0002 0.0749 0 220 0
0.0026 -0.0006 0.0723 0 220 0
0.0050 0.0012 0.0770 0 220 0
0.0005 -0.0004 0.0705 0 220 0
-0.0079 -0.0046 0.0637 0 220 0
-0.0075 -0.0044 0.0599 0 220 0
-0.0056 -0.0025 0.0656 0 220 0
-0.0072 -0.0038 0.0618 0 220 0
0.0005 -0.0012 0.0700 0 220 0
0.0031 0.0001 0.0720 0 220 0
0.0088 0.0031 0.0803 0 220 0
0.0029 0.0011 0.0755 0 220 0
-0.0094 -0.0048 0.0587 0 220 0
-0.0015 -0.0014 0.0671 0 220 0
-0.0033 -0.0029 0.0663 0 220 0
-0.0088 -0.0043 0.0617 0 220 0
0.0020 -0.0010 0.0729 0 220 0
-0.0062 -0.0028 0.0658 0 220 0
-0.0053 -0.0025 0.0646 0 220 0
-0.0050 -0.0023 0.0674 0 220 0
-0.0011 -0.0011 0.0693 0 220 0
-0.0042 -0.0026 0.0644 0 220 0
-0.0066 -0.0032 0.0641 0 220 0
-0.0050 -0.0032 0.0646 0 220 0
-0.0086 -0.0049 0.0590 0 220 0
0.0028 0.0001 0.0765 0 220 0
-0.0058 -0.0037 0.0648 0 220 0
-0.0099 -0.0050 0.0589 0 220 0
0.0041 0.0000 0.0739 0 220 0
-0.0118 -0.0053 0.0541 0 220 0
0.0028 0.0005 0.0738 0 220 0
-0.0019 -0.0021 0.0667 0 220 0
-0.0000 -0.0013 0.0680 0 220 0
-0.0110 -0.0051 0.0572 0 220 0
0.0019 -0.0001 0.0728 0 220 0
-0.0012 -0.0015 0.0676 0 220 0
-0.0006 -0.0011 0.0708 0 220 0
-0.0013 -0.0026 0.0681 0 220 0
0.0049 0.0011 0.0765 0 220 0
-0.0071 -0.0038 0.0641 0 220 0
0.0010 -0.0003 0.0723 0 220 0
-0.0005 -0.0011 0.0711 0 220 0
-0.0003 -0.0015 0.0692 0 220 0
-0.0076 -0.0037 0.0608 0 220 0
-0.0029 -0.0023 0.0704 0 220 0
-0.0000 -0.0016 0.0683 0 220 0
-0.0179 -0.0071 0.0490 0 220 0
-0.0067 -0.0039 0.0602 0 220 0
-0.0066 -0.0044 0.0617 0 220 0
0.0004 -0.0002 0.0747 0 220 0
0.0003 -0.0004 0.0729 0 220 0
-0.0155 -0.0072 0.0531 0 220 0
0.0022 -0.0003 0.0707 0 220 0
-0.0062 -0.0031 0.0636 0 220 0
-0.0065 -0.0042 0.0636 0 220 0
-0.0081 -0.0038 0.0610 0 220 0
-0.0128 -0.0052 0.0570 0 220 0
-0.0043 -0.0030 0.0648 0 220 0
0.0076 0.0021 0.0793 0 220 0
-0.0019 -0.0021 0.0666 0 220 0
-0.0012 -0.0022 0.0664 0 220 0
0.0005 -0.0007 0.0688 0 220 0
0.0005 -0.0003 0.0727 0 220 0
-0.0004 -0.0005 0.0730 0 220 0
-0.0021 -0.0030 0.0643 0 220 0
-0.0076 -0.0037 0.0613 0 220 0
-0.0031 -0.0021 0.0665 0 220 0
-0.0021 -0.0020 0.0662 0 220 0
0.0034 0.0010 0.0769 0 220 0
-0.0115 -0.0065 0.0530 0 220 0
-0.0001 -0.0011 0.0684 0 220 0
-0.0078 -0.0041 0.0598 0 220 0
0.0016 -0.0003 0.0716 0 220 0
0.0017 -0.0010 0.0716 0 220 0
0.0018 0.0010 0.0752 0 220 0
-0.0095 -0.0049 0.0572 0 220 0
-0.0098 -0.0050 0.0563 0 220 0
-0.0140 -0.0063 0.0547 0 220 0
-0.0145 -0.0064 0.0533 0 220 0
-0.0050 -0.0038 0.0620 0 220 0
0.0047 0.0017 0.0756 0 220 0
-0.0108 -0.0050 0.0561 0 220 0
-0.0125 -0.0051 0.0567 0 220 0
0.0055 -0.0002 0.0752 0 220 0
-0.0086 -0.0053 0.0590 0 220 0
0.0008 0.0001 0.0714 0 220 0
-0.0098 -0.0046 0.0576 0 220 0
-0.0113 -0.0063 0.0560 0 220 0
-0.0130 -0.0060 0.0537 0 220 0
0.0038 -0.0000 0.0736 0 220 0
-0.0953 -0.0660 0.0283 0 220 0
0.0541 0.0194 -0.2876 0 220 0
0.0668 0.0273 -0.3002 0 220 0
-0.0360 -0.0068 -0.3033 0 220 0
-0.0409 -0.0066 -0.3048 0 220 0
-0.0327 -0.0074 -0.3040 0 220 0
-0.0378 -0.0081 -0.2973 0 220 0
-0.0395 -0.0099 -0.2973 0 220 0
-0.0468 -0.0121 -0.2922 0 220 0
-0.0481 -0.0110 -0.2942 0 220 0
-0.0478 -0.0127 -0.2947 0 220 0
-0.1106 -0.0610 -0.0845 0 220 0
0.0854 -0.0302 -0.2508 0 220 0
-0.0166 -0.0612 0.1028 0 220 0
-0.0821 -0.0652 0.0532 0 220 0
-0.0502 -0.0660 0.0790 0 220 0
-0.0139 -0.0522 0.0813 0 220 0
-0.0239 -0.0537 0.0781 0 220 0
-0.0407 -0.0549 0.0826 0 220 0
-0.0408 -0.0579 0.0798 0 220 0
-0.0130 -0.0531 0.0809 0 220 0
-0.2267 -0.1041 -0.1803 0 220 0
0.0623 -0.0617 -0.3752 0 220 0
0.0932 -0.0432 -0.3398 0 220 0
0.0634 -0.0574 -0.3124 0 220 0
0.0249 -0.0728 -0.3136 0 220 0
0.0175 -0.0713 -0.3168 0 220 0
0.0334 -0.0673 -0.3192 0 220 0
0.0214 -0.0703 -0.3156 0 220 0
0.0125 -0.0734 -0.3108 0 220 0
-0.0472 -0.1369 0.1318 0 220 0
0.1253 -0.0746 -0.3832 0 220 0
0.0349 -0.1494 -0.1421 0 220 0
0.0367 -0.1591 -0.1614 0 220 0
0.0348 -0.0928 -0.4498 0 220 0
-0.1066 -0.2085 -0.1228 0 220 0
0.3067 -0.3064 -0.0688 0 220 0
0.0913 -0.5111 -0.0922 0 220 0
0.1559 -0.4796 -0.0516 0 220 0
-0.2176 -0.4853 -0.2545 0 220 0
-0.2116 -0.4859 -0.2677 0 220 0
-0.2152 -0.5066 -0.2686 0 220 0
-0.2161 -0.4853 -0.2627 0 220 0
-0.2167 -0.4852 -0.2671 0 220 0
-0.2167 -0.4868 -0.2590 0 220 0
-0.2198 -0.4889 -0.2608 0 220 0
-0.2240 -0.4845 -0.2590 0 220 0
-0.2230 -0.4853 -0.2573 0 220 0
-0.2244 -0.5048 -0.2589 0 220 0
-0.2205 -0.5454 0.0009 0 220 0
0.2047 -0.4803 -0.1757 0 220 0
-0.0622 -0.5275 -0.2087 0 220 0
0.2136 -0.4607 0.0860 0 220 0
0.0598 -0.4924 -0.2267 0 220 0
0.0101 -0.4869 -0.2724 0 220 0
0.1870 -0.4694 0.0660 0 220 0
-0.0502 -0.5038 -0.1828 0 220 0
0.0497 -0.4907 -0.2416 0 220 0
-0.0096 -0.4873 -0.2855 0 220 0
-0.0704 -0.5089 -0.1847 0 220 0
0.2685 -0.4435 0.0700 0 220 0
0.3741 -0.4009 -0.5396 0 220 0
0.3618 -0.5670 0.0520 0 220 0
0.4425 -0.5199 -0.5452 0 220 0
0.4435 -0.5194 -0.5473 0 220 0
0.4257 -0.5411 -0.5663 0 220 0
0.3053 -0.5312 0.0951 0 220 0
0.2593 -0.5485 0.0957 0 220 0
0.2446 -0.5467 0.0930 0 220 0
0.2380 -0.5501 0.0950 0 220 0
0.2594 -0.5404 0.0966 0 220 0
0.2580 -0.5427 0.0951 0 220 0
0.2660 -0.5440 0.1017 0 220 0
0.2569 -0.5422 0.1024 0 220 0
0.2517 -0.5431 0.1033 0 220 0
0.2793 -0.5332 0.1030 0 220 0
0.2645 -0.5388 0.1019 0 220 0
0.2762 -0.5354 0.1025 0 220 0
0.2819 -0.5334 0.1025 0 220 0
-0.1015 -0.4494 -0.2321 0 220 0
0.3098 -0.3025 -0.2523 0 220 0
0.0228 -0.3512 -0.3236 0 220 0
0.2598 -0.3121 0.0954 0 220 0
0.2487 -0.3162 0.1127 0 220 0
0.1866 -0.3338 0.1326 0 220 0
0.2212 -0.3269 0.1134 0 220 0
0.2397 -0.3186 0.1110 0 220 0
0.2218 -0.3221 0.1271 0 220 0
0.2098 -0.3221 0.1508 0 220 0
0.1507 -0.3424 0.1407 0 220 0
0.2247 -0.3221 0.1215 0 220 0
0.2104 -0.3264 0.1392 0 220 0
0.2049 -0.3296 0.1238 0 220 0
0.1557 -0.3399 0.1477 0 220 0
0.1446 -0.3464 0.1407 0 220 0
0.2176 -0.3249 0.1332 0 220 0
0.2115 -0.3246 0.1454 0 220 0
0.2279 -0.3213 0.1323 0 220 0
0.2199 -0.3225 0.1287 0 220 0
0.3531 -0.2266 -0.0735 0 220 0
0.0910 -0.2889 -0.1463 0 220 0
0.2790 -0.1941 0.1063 0 220 0
0.0337 0.0814 -0.1563 0 220 0
0.0626 0.0845 -0.1142 0 220 0
0.0631 0.0968 -0.1693 0 220 0
0.0923 0.1031 -0.1486 0 220 0
0.0631 0.0969 -0.1688 0 220 0
0.0973 0.1040 -0.1400 0 220 0
0.0959 0.1052 -0.1505 0 220 0
0.0236 0.1031 -0.2336 0 220 0
-0.1072 0.1177 -0.0436 0 220 0
-0.0205 0.1523 -0.1228 0 220 0
0.1056 0.2279 -0.1339 0 220 0
-0.0826 0.1826 -0.1431 0 220 0
-0.0724 0.1820 -0.2620 0 220 0
-0.0519 0.0950 -0.1029 0 220 0
-0.0019 0.1412 -0.2757 0 220 0
0.0747 0.1461 -0.1877 0 220 0
0.0374 0.1301 -0.1865 0 220 0
0.0827 0.1451 -0.1738 0 220 0
0.0055 0.1113 -0.1462 0 220 0
0.0401 0.1242 -0.1612 0 220 0
0.0367 0.1202 -0.1509 0 220 0
-0.0228 0.1064 -0.2367 0 220 0
-0.0078 0.1722 0.0614 0 220 0
0.0116 0.1788 0.0463 0 220 0
0.0215 0.1815 0.0437 0 220 0
0.0292 0.1843 0.0410 0 220 0
0.0302 0.1841 0.0398 0 220 0
0.0287 0.1840 0.0404 0 220 0
-0.1070 0.1576 0.0220 0 220 0
-0.1085 0.1575 0.0197 0 220 0
-0.1047 0.1577 0.0228 0 220 0
-0.1084 0.1574 0.0192 0 220 0
-0.1086 0.1574 0.0186 0 220 0
-0.1070 0.1576 0.0227 0 220 0
0.0325 0.1852 0.0366 0 220 0
0.0318 0.1856 0.0396 0 220 0
0.0276 0.1846 0.0450 0 220 0
0.0321 0.1849 0.0372 0 220 0
0.0340 0.1853 0.0360 0 220 0
0.0340 0.1857 0.0374 0 220 0
0.0251 0.1840 0.0454 0 220 0
-0.0395 0.1586 -0.1458 0 220 0
-0.1184 0.1416 -0.1053 0 220 0
-0.0174 0.1495 0.0393 0 220 0
0.0631 0.1960 -0.1882 0 220 0
0.0024 0.1757 -0.1923 0 220 0
0.0338 0.1854 -0.1942 0 220 0
0.1176 0.1950 -0.0472 0 220 0
0.0523 0.1713 -0.0670 0 220 0
-0.0867 0.1680 -0.1969 0 220 0
-0.0736 0.1684 -0.2029 0 220 0
-0.0702 0.1677 -0.2019 0 220 0
-0.0802 0.1686 -0.2098 0 220 0
-0.1013 0.1645 -0.2014 0 220 0
-0.0811 0.1667 -0.2044 0 220 0
-0.0648 0.1573 -0.1620 0 220 0
0.0832 0.1904 -0.0066 0 220 0
-0.0373 0.1514 -0.1097 0 220 0
-0.0761 0.1437 -0.0864 0 220 0
0.0269 0.1625 -0.0552 0 220 0
-0.0089 0.1534 -0.0401 0 220 0
-0.0271 0.1495 -0.0388 0 220 0
0.0071 0.1563 -0.0426 0 220 0
-0.0280 0.1492 -0.0365 0 220 0
-0.0216 0.1498 -0.0400 0 220 0
0.0514 0.1642 -0.0493 0 220 0
0.1368 0.1728 -0.0357 0 220 0
-0.0126 0.0804 0.0380 0 220 0
-0.0954 0.0842 -0.1729 0 220 0
-0.0476 0.0943 -0.1656 0 220 0
-0.1993 0.0623 -0.0978 0 220 0
0.0492 0.0531 -0.1624 0 220 0
0.0776 0.0347 0.0466 0 220 0
0.1410 0.0586 -0.0123 0 220 0
0.0408 -0.0461 -0.0160 0 220 0
0.0024 -0.0591 -0.2498 0 220 0
-0.1720 -0.1210 -0.1259 0 220 0
0.1303 -0.1279 0.1416 0 220 0
0.2627 -0.1356 -0.0110 0 220 0
0.2111 -0.2554 -0.0689 0 220 0
0.4963 -0.4036 -0.1706 0 220 0
0.1460 -0.5471 -0.1566 0 220 0
-0.1713 -0.5713 -0.0965 0 220 0
0.1406 -0.5461 -0.1582 0 220 0
0.1295 -0.5473 -0.1596 0 220 0
0.1372 -0.5458 -0.1591 0 220 0
-0.0984 -0.5723 -0.0973 0 220 0
0.1793 -0.5325 -0.1639 0 220 0
0.2969 -0.4709 -0.3045 0 220 0
-0.0577 -0.5553 -0.2526 0 220 0
0.2101 -0.5239 -0.1763 0 220 0
0.1096 -0.5499 -0.1585 0 220 0
0.0741 -0.5562 -0.1587 0 220 0
-0.0287 -0.5529 -0.2633 0 220 0
-0.0479 -0.5567 -0.2503 0 220 0
-0.1032 -0.4987 0.0307 0 220 0
-0.1122 -0.4987 0.0283 0 220 0
0.2565 -0.4232 -0.2261 0 220 0
0.0515 -0.4832 0.0395 0 220 0
0.1018 -0.3793 -0.4953 0 220 0
0.1694 -0.4319 -0.3024 0 220 0
0.1707 -0.4201 0.2248 0 220 0
0.1648 -0.4214 0.2193 0 220 0
0.2200 -0.4306 -0.2184 0 220 0
0.2160 -0.4323 -0.2219 0 220 0
0.2079 -0.4299 -0.2533 0 220 0
0.2818 -0.2298 -0.4099 0 220 0
-0.0754 -0.3379 0.0351 0 220 0
0.3075 -0.1211 -0.0301 0 220 0
-0.0625 -0.1232 -0.2755 0 220 0
0.0183 -0.1025 -0.0733 0 220 0
-0.1622 -0.0720 -0.1441 0 220 0
-0.1304 0.1085 -0.1841 0 220 0
-0.0319 0.1455 -0.1843 0 220 0
-0.0961 0.1286 -0.1135 0 220 0
-0.1525 0.1214 -0.0807 0 220 0
-0.1602 0.1239 -0.0973 0 220 0
-0.1557 0.1220 -0.0911 0 220 0
-0.1709 0.1087 -0.1105 0 220 0
-0.0877 0.2107 -0.1609 0 220 0
-0.1070 0.2601 -0.0952 0 220 0
-0.2169 0.2702 -0.0260 0 220 0
-0.1516 0.2980 -0.0844 0 220 0
-0.1929 0.3197 -0.0396 0 220 0
-0.2180 0.3395 -0.0354 0 220 0
-0.1833 0.3362 -0.0211 0 220 0
-0.1789 0.3381 -0.0228 0 220 0
-0.1845 0.3384 -0.0306 0 220 0
-0.1854 0.3382 -0.0293 0 220 0
-0.1860 0.3388 -0.0247 0 220 0
-0.1855 0.3387 -0.0238 0 220 0
-0.1861 0.3384 -0.0296 0 220 0
-0.1876 0.3386 -0.0291 0 220 0
-0.1856 0.3386 -0.0261 0 220 0
-0.1852 0.3386 -0.0242 0 220 0
-0.1870 0.3384 -0.0299 0 220 0
-0.1876 0.3387 -0.0286 0 220 0
-0.1875 0.3387 -0.0264 0 220 0
-0.1877 0.3387 -0.0284 0 220 0
-0.1861 0.3385 -0.0292 0 220 0
-0.1867 0.3386 -0.0292 0 220 0
-0.1867 0.3386 -0.0268 0 220 0
-0.1861 0.3387 -0.0252 0 220 0
-0.1869 0.3387 -0.0263 0 220 0
-0.1862 0.3386 -0.0244 0 220 0
-0.1861 0.3387 -0.0249 0 220 0
-0.1862 0.3386 -0.0251 0 220 0
-0.1859 0.3385 -0.0263 0 220 0
-0.1867 0.3385 -0.0268 0 220 0
-0.1872 0.3385 -0.0276 0 220 0
-0.1874 0.3388 -0.0237 0 220 0
-0.1859 0.3383 -0.0302 0 220 0
-0.1867 0.3385 -0.0296 0 220 0
-0.1873 0.3385 -0.0301 0 220 0
-0.1864 0.3385 -0.0288 0 220 0
-0.1852 0.3385 -0.0239 0 220 0
-0.1870 0.3388 -0.0246 0 220 0
-0.1862 0.3385 -0.0293 0 220 0
-0.1860 0.3386 -0.0251 0 220 0
-0.1865 0.3386 -0.0293 0 220 0
-0.1879 0.3386 -0.0287 0 220 0
-0.1867 0.3386 -0.0253 0 220 0
-0.1862 0.3383 -0.0309 0 220 0
-0.1853 0.3382 -0.0298 0 220 0
-0.1859 0.3387 -0.0241 0 220 0
-0.1863 0.3387 -0.0267 0 220 0
-0.1865 0.3386 -0.0281 0 220 0
-0.1865 0.3387 -0.0242 0 220 0
-0.1873 0.3388 -0.0248 0 220 0
-0.1878 0.3387 -0.0292 0 220 0
-0.1874 0.3388 -0.0261 0 220 0
-0.1865 0.3386 -0.0260 0 220 0
-0.1862 0.3385 -0.0294 0 220 0
-0.1861 0.3385 -0.0295 0 220 0
-0.1866 0.3385 -0.0298 0 220 0
-0.1870 0.3387 -0.0256 0 220 0
-0.1863 0.3384 -0.0292 0 220 0
