ply
format ascii 1.0
element vertex 810
property float x
property float y
property float z
property uchar red
property uchar green
property uchar blue
end_header
-0.1856 0.7866 -0.0357 220 180 0
-0.1261 0.8297 -0.0422 220 180 0
-0.1856 0.7862 -0.0356 220 180 0
-0.1261 0.8301 -0.0422 220 180 0
-0.1858 0.7872 -0.0358 220 180 0
-0.1259 0.8291 -0.0421 220 180 0
-0.1860 0.7876 -0.0360 220 180 0
-0.1257 0.8287 -0.0419 220 180 0
-0.1862 0.7885 -0.0362 220 180 0
-0.1256 0.8278 -0.0416 220 180 0
-0.1861 0.7879 -0.0360 220 180 0
-0.1256 0.8284 -0.0418 220 180 0
-0.1858 0.7875 -0.0359 220 180 0
-0.1259 0.8288 -0.0420 220 180 0
-0.1854 0.7856 -0.0354 220 180 0
-0.1263 0.8307 -0.0424 220 180 0
-0.1857 0.7870 -0.0357 220 180 0
-0.1260 0.8293 -0.0422 220 180 0
-0.1857 0.7873 -0.0358 220 180 0
-0.1260 0.8289 -0.0421 220 180 0
-0.1857 0.7865 -0.0357 220 180 0
-0.1260 0.8298 -0.0422 220 180 0
-0.1862 0.7884 -0.0361 220 180 0
-0.1255 0.8279 -0.0417 220 180 0
-0.1858 0.7867 -0.0358 220 180 0
-0.1259 0.8296 -0.0421 220 180 0
-0.1857 0.7862 -0.0357 220 180 0
-0.1260 0.8301 -0.0422 220 180 0
-0.1859 0.7868 -0.0359 220 180 0
-0.1258 0.8295 -0.0420 220 180 0
-0.1855 0.7864 -0.0356 220 180 0
-0.1262 0.8299 -0.0423 220 180 0
-0.1854 0.7856 -0.0355 220 180 0
-0.1264 0.8307 -0.0424 220 180 0
-0.1857 0.7869 -0.0357 220 180 0
-0.1260 0.8294 -0.0421 220 180 0
-0.1860 0.7881 -0.0360 220 180 0
-0.1257 0.8282 -0.0419 220 180 0
-0.1859 0.7868 -0.0359 220 180 0
-0.1259 0.8295 -0.0420 220 180 0
-0.1858 0.7870 -0.0358 220 180 0
-0.1259 0.8292 -0.0421 220 180 0
-0.1855 0.7862 -0.0356 220 180 0
-0.1262 0.8301 -0.0423 220 180 0
-0.1860 0.7874 -0.0360 220 180 0
-0.1257 0.8289 -0.0418 220 180 0
-0.1856 0.7860 -0.0357 220 180 0
-0.1261 0.8303 -0.0421 220 180 0
-0.1857 0.7870 -0.0357 220 180 0
-0.1260 0.8293 -0.0422 220 180 0
-0.1855 0.7866 -0.0356 220 180 0
-0.1262 0.8297 -0.0422 220 180 0
-0.1858 0.7874 -0.0358 220 180 0
-0.1259 0.8289 -0.0421 220 180 0
-0.1859 0.7873 -0.0359 220 180 0
-0.1258 0.8290 -0.0420 220 180 0
-0.1858 0.7871 -0.0358 220 180 0
-0.1259 0.8292 -0.0420 220 180 0
-0.1859 0.7876 -0.0359 220 180 0
-0.1258 0.8287 -0.0419 220 180 0
-0.1858 0.7873 -0.0358 220 180 0
-0.1260 0.8290 -0.0421 220 180 0
-0.1860 0.7876 -0.0360 220 180 0
-0.1257 0.8287 -0.0419 220 180 0
-0.1860 0.7877 -0.0359 220 180 0
-0.1257 0.8286 -0.0419 220 180 0
-0.1856 0.7863 -0.0356 220 180 0
-0.1261 0.8300 -0.0422 220 180 0
-0.1855 0.7862 -0.0356 220 180 0
-0.1263 0.8301 -0.0423 220 180 0
-0.1861 0.7885 -0.0361 220 180 0
-0.1256 0.8278 -0.0418 220 180 0
-0.1857 0.7871 -0.0357 220 180 0
-0.1260 0.8292 -0.0421 220 180 0
-0.1856 0.7863 -0.0356 220 180 0
-0.1261 0.8300 -0.0422 220 180 0
-0.1855 0.7863 -0.0356 220 180 0
-0.1262 0.8300 -0.0423 220 180 0
-0.1857 0.7871 -0.0358 220 180 0
-0.1260 0.8292 -0.0421 220 180 0
-0.1859 0.7867 -0.0358 220 180 0
-0.1258 0.8296 -0.0420 220 180 0
-0.1860 0.7875 -0.0360 220 180 0
-0.1257 0.8288 -0.0418 220 180 0
-0.1860 0.7877 -0.0359 220 180 0
-0.1257 0.8286 -0.0419 220 180 0
-0.1860 0.7875 -0.0360 220 180 0
-0.1257 0.8288 -0.0419 220 180 0
-0.1857 0.7866 -0.0357 220 180 0
-0.1260 0.8297 -0.0421 220 180 0
-0.1857 0.7871 -0.0358 220 180 0
-0.1260 0.8292 -0.0421 220 180 0
-0.1854 0.7865 -0.0356 220 180 0
-0.1263 0.8298 -0.0423 220 180 0
-0.1856 0.7869 -0.0357 220 180 0
-0.1261 0.8294 -0.0422 220 180 0
-0.1861 0.7877 -0.0361 220 180 0
-0.1256 0.8286 -0.0418 220 180 0
-0.1859 0.7878 -0.0359 220 180 0
-0.1258 0.8285 -0.0420 220 180 0
-0.1858 0.7868 -0.0358 220 180 0
-0.1259 0.8295 -0.0421 220 180 0
-0.1860 0.7875 -0.0359 220 180 0
-0.1257 0.8288 -0.0419 220 180 0
-0.1855 0.7860 -0.0356 220 180 0
-0.1262 0.8303 -0.0422 220 180 0
-0.1859 0.7875 -0.0359 220 180 0
-0.1258 0.8288 -0.0420 220 180 0
-0.1860 0.7878 -0.0360 220 180 0
-0.1257 0.8285 -0.0419 220 180 0
-0.1859 0.7874 -0.0359 220 180 0
-0.1258 0.8289 -0.0420 220 180 0
-0.1857 0.7868 -0.0357 220 180 0
-0.1260 0.8295 -0.0421 220 180 0
-0.1859 0.7876 -0.0360 220 180 0
-0.1258 0.8287 -0.0419 220 180 0
-0.1860 0.7877 -0.0360 220 180 0
-0.1257 0.8286 -0.0419 220 180 0
-0.1858 0.7868 -0.0358 220 180 0
-0.1259 0.8295 -0.0420 220 180 0
-0.1860 0.7874 -0.0360 220 180 0
-0.1257 0.8289 -0.0419 220 180 0
-0.1854 0.7858 -0.0355 220 180 0
-0.1263 0.8305 -0.0423 220 180 0
-0.1858 0.7866 -0.0358 220 180 0
-0.1259 0.8297 -0.0421 220 180 0
-0.1861 0.7876 -0.0360 220 180 0
-0.1256 0.8287 -0.0418 220 180 0
-0.1856 0.7864 -0.0357 220 180 0
-0.1261 0.8299 -0.0422 220 180 0
-0.1863 0.7885 -0.0362 220 180 0
-0.1255 0.8278 -0.0417 220 180 0
-0.1857 0.7870 -0.0357 220 180 0
-0.1260 0.8293 -0.0421 220 180 0
-0.1858 0.7869 -0.0358 220 180 0
-0.1259 0.8294 -0.0420 220 180 0
-0.1858 0.7872 -0.0358 220 180 0
-0.1259 0.8291 -0.0420 220 180 0
-0.1862 0.7880 -0.0361 220 180 0
-0.1255 0.8282 -0.0418 220 180 0
-0.1856 0.7868 -0.0357 220 180 0
-0.1261 0.8295 -0.0421 220 180 0
-0.1858 0.7870 -0.0358 220 180 0
-0.1259 0.8293 -0.0421 220 180 0
-0.1857 0.7869 -0.0357 220 180 0
-0.1260 0.8294 -0.0421 220 180 0
-0.1856 0.7862 -0.0357 220 180 0
-0.1261 0.8301 -0.0422 220 180 0
-0.1855 0.7865 -0.0356 220 180 0
-0.1262 0.8298 -0.0422 220 180 0
-0.1859 0.7870 -0.0359 220 180 0
-0.1258 0.8293 -0.0420 220 180 0
-0.1856 0.7866 -0.0357 220 180 0
-0.1261 0.8297 -0.0422 220 180 0
-0.1857 0.7867 -0.0357 220 180 0
-0.1260 0.8296 -0.0421 220 180 0
-0.1857 0.7867 -0.0357 220 180 0
-0.1260 0.8296 -0.0421 220 180 0
-0.1860 0.7878 -0.0360 220 180 0
-0.1257 0.8285 -0.0419 220 180 0
-0.1856 0.7862 -0.0357 220 180 0
-0.1261 0.8301 -0.0422 220 180 0
-0.1856 0.7865 -0.0357 220 180 0
-0.1261 0.8298 -0.0421 220 180 0
-0.1864 0.7889 -0.0363 220 180 0
-0.1253 0.8274 -0.0416 220 180 0
-0.1860 0.7875 -0.0360 220 180 0
-0.1257 0.8288 -0.0419 220 180 0
-0.1858 0.7866 -0.0358 220 180 0
-0.1259 0.8297 -0.0420 220 180 0
-0.1856 0.7863 -0.0356 220 180 0
-0.1261 0.8299 -0.0422 220 180 0
-0.1856 0.7866 -0.0357 220 180 0
-0.1261 0.8297 -0.0422 220 180 0
-0.1862 0.7877 -0.0361 220 180 0
-0.1255 0.8286 -0.0417 220 180 0
-0.1857 0.7868 -0.0357 220 180 0
-0.1260 0.8294 -0.0421 220 180 0
-0.1860 0.7877 -0.0360 220 180 0
-0.1257 0.8286 -0.0419 220 180 0
-0.1858 0.7866 -0.0358 220 180 0
-0.1259 0.8297 -0.0421 220 180 0
-0.1860 0.7877 -0.0360 220 180 0
-0.1257 0.8286 -0.0419 220 180 0
-0.1862 0.7883 -0.0361 220 180 0
-0.1255 0.8280 -0.0418 220 180 0
-0.1858 0.7871 -0.0358 220 180 0
-0.1259 0.8292 -0.0420 220 180 0
-0.1854 0.7860 -0.0355 220 180 0
-0.1263 0.8303 -0.0424 220 180 0
-0.1858 0.7869 -0.0358 220 180 0
-0.1259 0.8294 -0.0420 220 180 0
-0.1858 0.7870 -0.0359 220 180 0
-0.1259 0.8293 -0.0420 220 180 0
-0.1858 0.7874 -0.0358 220 180 0
-0.1259 0.8289 -0.0420 220 180 0
-0.1856 0.7865 -0.0357 220 180 0
-0.1261 0.8298 -0.0422 220 180 0
-0.1857 0.7866 -0.0357 220 180 0
-0.1260 0.8297 -0.0422 220 180 0
-0.1858 0.7868 -0.0359 220 180 0
-0.1259 0.8295 -0.0420 220 180 0
-0.1860 0.7878 -0.0360 220 180 0
-0.1257 0.8285 -0.0419 220 180 0
-0.1858 0.7872 -0.0358 220 180 0
-0.1259 0.8291 -0.0420 220 180 0
-0.1858 0.7872 -0.0358 220 180 0
-0.1259 0.8291 -0.0420 220 180 0
-0.1855 0.7863 -0.0356 220 180 0
-0.1262 0.8300 -0.0423 220 180 0
-0.1861 0.7876 -0.0361 220 180 0
-0.1256 0.8287 -0.0418 220 180 0
-0.1858 0.7872 -0.0358 220 180 0
-0.1259 0.8291 -0.0421 220 180 0
-0.1861 0.7879 -0.0360 220 180 0
-0.1256 0.8284 -0.0418 220 180 0
-0.1857 0.7870 -0.0357 220 180 0
-0.1260 0.8293 -0.0421 220 180 0
-0.1856 0.7864 -0.0357 220 180 0
-0.1261 0.8299 -0.0421 220 180 0
-0.1856 0.7869 -0.0356 220 180 0
-0.1261 0.8294 -0.0422 220 180 0
-0.1861 0.7880 -0.0361 220 180 0
-0.1256 0.8283 -0.0418 220 180 0
-0.1861 0.7878 -0.0361 220 180 0
-0.1256 0.8285 -0.0418 220 180 0
-0.1862 0.7881 -0.0361 220 180 0
-0.1255 0.8282 -0.0418 220 180 0
-0.1862 0.7881 -0.0361 220 180 0
-0.1255 0.8282 -0.0417 220 180 0
-0.1859 0.7872 -0.0359 220 180 0
-0.1258 0.8291 -0.0419 220 180 0
-0.1856 0.7870 -0.0357 220 180 0
-0.1261 0.8293 -0.0422 220 180 0
-0.1862 0.7884 -0.0361 220 180 0
-0.1255 0.8279 -0.0417 220 180 0
-0.1862 0.7884 -0.0361 220 180 0
-0.1255 0.8279 -0.0418 220 180 0
-0.1853 0.7854 -0.0355 220 180 0
-0.1264 0.8309 -0.0424 220 180 0
-0.1859 0.7870 -0.0359 220 180 0
-0.1258 0.8293 -0.0419 220 180 0
-0.1857 0.7873 -0.0358 220 180 0
-0.1260 0.8290 -0.0420 220 180 0
-0.1861 0.7880 -0.0361 220 180 0
-0.1256 0.8283 -0.0418 220 180 0
-0.1860 0.7872 -0.0360 220 180 0
-0.1257 0.8291 -0.0419 220 180 0
-0.1863 0.7883 -0.0362 220 180 0
-0.1255 0.8280 -0.0417 220 180 0
-0.1856 0.7865 -0.0357 220 180 0
-0.1261 0.8298 -0.0422 220 180 0
-0.1882 0.7902 -0.0371 220 180 0
-0.1235 0.8261 -0.0407 220 180 0
-0.1840 0.7869 -0.0421 220 180 0
-0.1277 0.8294 -0.0358 220 180 0
-0.1835 0.7858 -0.0428 220 180 0
-0.1282 0.8305 -0.0351 220 180 0
-0.1855 0.7831 -0.0437 220 180 0
-0.1262 0.8332 -0.0342 220 180 0
-0.1857 0.7838 -0.0436 220 180 0
-0.1260 0.8325 -0.0343 220 180 0
-0.1853 0.7818 -0.0442 220 180 0
-0.1264 0.8345 -0.0337 220 180 0
-0.1855 0.7827 -0.0439 220 180 0
-0.1262 0.8336 -0.0340 220 180 0
-0.1854 0.7817 -0.0442 220 180 0
-0.1263 0.8346 -0.0337 220 180 0
-0.1859 0.7833 -0.0435 220 180 0
-0.1258 0.8330 -0.0344 220 180 0
-0.1859 0.7836 -0.0435 220 180 0
-0.1258 0.8327 -0.0344 220 180 0
-0.1857 0.7819 -0.0439 220 180 0
-0.1260 0.8344 -0.0340 220 180 0
-0.1883 0.7947 -0.0384 220 180 0
-0.1234 0.8216 -0.0394 220 180 0
-0.1856 0.7920 -0.0396 220 180 0
-0.1261 0.8243 -0.0382 220 180 0
-0.1864 0.7908 -0.0362 220 180 0
-0.1253 0.8255 -0.0416 220 180 0
-0.1878 0.8000 -0.0380 220 180 0
-0.1239 0.8163 -0.0398 220 180 0
-0.1871 0.7942 -0.0372 220 180 0
-0.1246 0.8221 -0.0407 220 180 0
-0.1876 0.8021 -0.0384 220 180 0
-0.1241 0.8142 -0.0394 220 180 0
-0.1877 0.8028 -0.0385 220 180 0
-0.1240 0.8135 -0.0393 220 180 0
-0.1876 0.8026 -0.0385 220 180 0
-0.1241 0.8137 -0.0394 220 180 0
-0.1876 0.8004 -0.0381 220 180 0
-0.1241 0.8159 -0.0398 220 180 0
-0.1876 0.8005 -0.0382 220 180 0
-0.1241 0.8158 -0.0396 220 180 0
-0.1892 0.7978 -0.0384 220 180 0
-0.1225 0.8185 -0.0395 220 180 0
-0.1818 0.7751 -0.0472 220 180 0
-0.1299 0.8412 -0.0307 220 180 0
-0.1840 0.7881 -0.0416 220 180 0
-0.1277 0.8282 -0.0362 220 180 0
-0.1855 0.7935 -0.0401 220 180 0
-0.1262 0.8228 -0.0377 220 180 0
-0.1857 0.7905 -0.0412 220 180 0
-0.1260 0.8258 -0.0367 220 180 0
-0.1862 0.7930 -0.0404 220 180 0
-0.1255 0.8233 -0.0375 220 180 0
-0.1857 0.7912 -0.0408 220 180 0
-0.1260 0.8251 -0.0371 220 180 0
-0.1860 0.7924 -0.0405 220 180 0
-0.1257 0.8239 -0.0374 220 180 0
-0.1862 0.7928 -0.0405 220 180 0
-0.1255 0.8234 -0.0374 220 180 0
-0.1851 0.7737 -0.0331 220 180 0
-0.1266 0.8426 -0.0448 220 180 0
-0.1801 0.7743 -0.0477 220 180 0
-0.1316 0.8420 -0.0302 220 180 0
-0.1856 0.7884 -0.0394 220 180 0
-0.1261 0.8279 -0.0384 220 180 0
-0.1847 0.7816 -0.0405 220 180 0
-0.1270 0.8347 -0.0374 220 180 0
-0.1826 0.7714 -0.0507 220 180 0
-0.1291 0.8449 -0.0271 220 180 0
-0.1883 0.8009 -0.0376 220 180 0
-0.1234 0.8154 -0.0403 220 180 0
-0.1792 0.7789 -0.0391 220 180 0
-0.1325 0.8374 -0.0387 220 180 0
-0.1854 0.7858 -0.0381 220 180 0
-0.1263 0.8305 -0.0398 220 180 0
-0.1861 0.7951 -0.0376 220 180 0
-0.1256 0.8212 -0.0403 220 180 0
-0.1893 0.7847 -0.0405 220 180 0
-0.1224 0.8316 -0.0374 220 180 0
-0.1893 0.7857 -0.0406 220 180 0
-0.1224 0.8306 -0.0373 220 180 0
-0.1907 0.7650 -0.0441 220 180 0
-0.1210 0.8513 -0.0337 220 180 0
-0.1893 0.7855 -0.0405 220 180 0
-0.1224 0.8308 -0.0373 220 180 0
-0.1894 0.7851 -0.0407 220 180 0
-0.1223 0.8312 -0.0372 220 180 0
-0.1894 0.7847 -0.0406 220 180 0
-0.1223 0.8316 -0.0372 220 180 0
-0.1895 0.7813 -0.0412 220 180 0
-0.1222 0.8350 -0.0366 220 180 0
-0.1895 0.7846 -0.0406 220 180 0
-0.1222 0.8317 -0.0372 220 180 0
-0.1895 0.7845 -0.0406 220 180 0
-0.1222 0.8318 -0.0372 220 180 0
-0.1909 0.7644 -0.0439 220 180 0
-0.1208 0.8519 -0.0340 220 180 0
-0.1906 0.7833 -0.0371 220 180 0
-0.1211 0.8330 -0.0408 220 180 0
-0.1830 0.7829 -0.0394 220 180 0
-0.1287 0.8334 -0.0384 220 180 0
-0.1867 0.7764 -0.0408 220 180 0
-0.1251 0.8399 -0.0370 220 180 0
-0.1852 0.7931 -0.0372 220 180 0
-0.1265 0.8232 -0.0407 220 180 0
-0.1876 0.8000 -0.0376 220 180 0
-0.1241 0.8163 -0.0402 220 180 0
-0.1877 0.8028 -0.0373 220 180 0
-0.1240 0.8135 -0.0406 220 180 0
-0.1863 0.7960 -0.0374 220 180 0
-0.1254 0.8203 -0.0405 220 180 0
-0.1877 0.8025 -0.0375 220 180 0
-0.1240 0.8138 -0.0404 220 180 0
-0.1876 0.8001 -0.0376 220 180 0
-0.1241 0.8162 -0.0402 220 180 0
-0.1877 0.8011 -0.0376 220 180 0
-0.1240 0.8152 -0.0403 220 180 0
-0.1879 0.8013 -0.0376 220 180 0
-0.1238 0.8150 -0.0402 220 180 0
-0.1845 0.7913 -0.0371 220 180 0
-0.1272 0.8250 -0.0408 220 180 0
-0.1700 0.7589 -0.0544 220 180 0
-0.1417 0.8574 -0.0234 220 180 0
-0.1891 0.8058 -0.0389 220 180 0
-0.1226 0.8105 -0.0390 220 180 0
-0.1778 0.7787 -0.0457 220 180 0
-0.1339 0.8376 -0.0322 220 180 0
-0.1775 0.7779 -0.0461 220 180 0
-0.1342 0.8384 -0.0318 220 180 0
-0.1739 0.7672 -0.0502 220 180 0
-0.1378 0.8490 -0.0276 220 180 0
-0.1796 0.7763 -0.0356 220 180 0
-0.1321 0.8400 -0.0423 220 180 0
-0.1803 0.7756 -0.0356 220 180 0
-0.1315 0.8407 -0.0423 220 180 0
-0.1808 0.7772 -0.0358 220 180 0
-0.1309 0.8391 -0.0421 220 180 0
-0.1808 0.7767 -0.0357 220 180 0
-0.1309 0.8396 -0.0421 220 180 0
-0.1806 0.7775 -0.0358 220 180 0
-0.1311 0.8388 -0.0421 220 180 0
-0.1803 0.7763 -0.0357 220 180 0
-0.1314 0.8400 -0.0421 220 180 0
-0.1787 0.7710 -0.0351 220 180 0
-0.1330 0.8453 -0.0428 220 180 0
-0.1803 0.7762 -0.0356 220 180 0
-0.1314 0.8400 -0.0423 220 180 0
-0.1806 0.7768 -0.0356 220 180 0
-0.1311 0.8395 -0.0423 220 180 0
-0.1797 0.7758 -0.0356 220 180 0
-0.1320 0.8405 -0.0423 220 180 0
-0.1801 0.7761 -0.0355 220 180 0
-0.1316 0.8402 -0.0424 220 180 0
-0.1794 0.7747 -0.0354 220 180 0
-0.1323 0.8416 -0.0425 220 180 0
-0.1799 0.7761 -0.0355 220 180 0
-0.1318 0.8402 -0.0423 220 180 0
-0.1886 0.7879 -0.0397 220 180 0
-0.1231 0.8284 -0.0382 220 180 0
-0.1818 0.7834 -0.0412 220 180 0
-0.1299 0.8329 -0.0366 220 180 0
-0.1885 0.8079 -0.0361 220 180 0
-0.1232 0.8084 -0.0417 220 180 0
-0.1877 0.8014 -0.0387 220 180 0
-0.1240 0.8149 -0.0392 220 180 0
-0.1869 0.7993 -0.0383 220 180 0
-0.1248 0.8170 -0.0395 220 180 0
-0.1879 0.8029 -0.0386 220 180 0
-0.1238 0.8134 -0.0393 220 180 0
-0.1882 0.8032 -0.0387 220 180 0
-0.1235 0.8131 -0.0392 220 180 0
-0.1876 0.8013 -0.0385 220 180 0
-0.1241 0.8150 -0.0393 220 180 0
-0.1878 0.8022 -0.0386 220 180 0
-0.1239 0.8141 -0.0392 220 180 0
-0.1874 0.8010 -0.0385 220 180 0
-0.1243 0.8153 -0.0394 220 180 0
-0.1881 0.8039 -0.0386 220 180 0
-0.1236 0.8124 -0.0392 220 180 0
-0.1876 0.8015 -0.0385 220 180 0
-0.1241 0.8148 -0.0393 220 180 0
-0.1870 0.7997 -0.0382 220 180 0
-0.1247 0.8166 -0.0396 220 180 0
-0.1878 0.8023 -0.0386 220 180 0
-0.1239 0.8140 -0.0393 220 180 0
-0.1879 0.8031 -0.0386 220 180 0
-0.1238 0.8132 -0.0393 220 180 0
-0.1875 0.8015 -0.0382 220 180 0
-0.1242 0.8148 -0.0396 220 180 0
-0.1869 0.7992 -0.0382 220 180 0
-0.1248 0.8170 -0.0396 220 180 0
-0.1868 0.7990 -0.0381 220 180 0
-0.1249 0.8173 -0.0398 220 180 0
-0.1868 0.7990 -0.0382 220 180 0
-0.1249 0.8173 -0.0397 220 180 0
-0.1876 0.8015 -0.0385 220 180 0
-0.1241 0.8148 -0.0394 220 180 0
-0.1812 0.7849 -0.0388 220 180 0
-0.1305 0.8314 -0.0390 220 180 0
-0.1864 0.7902 -0.0385 220 180 0
-0.1253 0.8261 -0.0394 220 180 0
-0.1781 0.7776 -0.0359 220 180 0
-0.1336 0.8387 -0.0420 220 180 0
-0.1863 0.7925 -0.0386 220 180 0
-0.1254 0.8238 -0.0392 220 180 0
-0.1869 0.7957 -0.0378 220 180 0
-0.1248 0.8206 -0.0400 220 180 0
-0.1847 0.7888 -0.0395 220 180 0
-0.1270 0.8275 -0.0384 220 180 0
-0.1838 0.7874 -0.0393 220 180 0
-0.1279 0.8289 -0.0385 220 180 0
-0.1845 0.7884 -0.0395 220 180 0
-0.1272 0.8279 -0.0383 220 180 0
-0.1836 0.7870 -0.0393 220 180 0
-0.1282 0.8293 -0.0386 220 180 0
-0.1835 0.7867 -0.0395 220 180 0
-0.1282 0.8296 -0.0384 220 180 0
-0.1863 0.7873 -0.0405 220 180 0
-0.1255 0.8290 -0.0374 220 180 0
-0.1891 0.8003 -0.0377 220 180 0
-0.1226 0.8160 -0.0401 220 180 0
-0.1899 0.8025 -0.0375 220 180 0
-0.1218 0.8138 -0.0404 220 180 0
-0.1866 0.7918 -0.0387 220 180 0
-0.1251 0.8245 -0.0392 220 180 0
-0.1890 0.7963 -0.0385 220 180 0
-0.1227 0.8200 -0.0393 220 180 0
-0.1889 0.7997 -0.0378 220 180 0
-0.1228 0.8166 -0.0401 220 180 0
-0.1889 0.7978 -0.0380 220 180 0
-0.1228 0.8185 -0.0398 220 180 0
-0.1860 0.7900 -0.0411 220 180 0
-0.1257 0.8263 -0.0368 220 180 0
-0.1840 0.7878 -0.0401 220 180 0
-0.1277 0.8285 -0.0378 220 180 0
-0.1864 0.7935 -0.0394 220 180 0
-0.1253 0.8227 -0.0385 220 180 0
-0.1842 0.7888 -0.0401 220 180 0
-0.1275 0.8275 -0.0377 220 180 0
-0.1878 0.7978 -0.0384 220 180 0
-0.1239 0.8185 -0.0395 220 180 0
-0.1868 0.7950 -0.0389 220 180 0
-0.1249 0.8213 -0.0390 220 180 0
-0.1869 0.7947 -0.0389 220 180 0
-0.1249 0.8216 -0.0390 220 180 0
-0.1879 0.7926 -0.0400 220 180 0
-0.1238 0.8237 -0.0379 220 180 0
-0.1870 0.7955 -0.0370 220 180 0
-0.1247 0.8208 -0.0409 220 180 0
-0.1869 0.7961 -0.0377 220 180 0
-0.1248 0.8202 -0.0402 220 180 0
-0.1871 0.7972 -0.0380 220 180 0
-0.1246 0.8191 -0.0399 220 180 0
-0.1872 0.7977 -0.0380 220 180 0
-0.1245 0.8186 -0.0398 220 180 0
-0.1873 0.7980 -0.0380 220 180 0
-0.1244 0.8183 -0.0398 220 180 0
-0.1873 0.7980 -0.0380 220 180 0
-0.1244 0.8183 -0.0398 220 180 0
-0.1887 0.8045 -0.0376 220 180 0
-0.1230 0.8118 -0.0402 220 180 0
-0.1887 0.8046 -0.0377 220 180 0
-0.1230 0.8117 -0.0402 220 180 0
-0.1887 0.8043 -0.0377 220 180 0
-0.1230 0.8120 -0.0402 220 180 0
-0.1887 0.8048 -0.0376 220 180 0
-0.1230 0.8115 -0.0402 220 180 0
-0.1887 0.8047 -0.0376 220 180 0
-0.1230 0.8116 -0.0402 220 180 0
-0.1887 0.8046 -0.0376 220 180 0
-0.1230 0.8117 -0.0402 220 180 0
-0.1872 0.7977 -0.0379 220 180 0
-0.1245 0.8186 -0.0400 220 180 0
-0.1871 0.7973 -0.0378 220 180 0
-0.1246 0.8189 -0.0400 220 180 0
-0.1872 0.7978 -0.0380 220 180 0
-0.1245 0.8185 -0.0399 220 180 0
-0.1871 0.7974 -0.0379 220 180 0
-0.1246 0.8189 -0.0400 220 180 0
-0.1871 0.7974 -0.0379 220 180 0
-0.1246 0.8189 -0.0400 220 180 0
-0.1871 0.7974 -0.0379 220 180 0
-0.1246 0.8189 -0.0400 220 180 0
-0.1872 0.7979 -0.0380 220 180 0
-0.1245 0.8184 -0.0399 220 180 0
-0.1882 0.8000 -0.0378 220 180 0
-0.1235 0.8162 -0.0401 220 180 0
-0.1886 0.7980 -0.0379 220 180 0
-0.1232 0.8183 -0.0399 220 180 0
-0.1873 0.7949 -0.0374 220 180 0
-0.1244 0.8214 -0.0405 220 180 0
-0.1837 0.7881 -0.0403 220 180 0
-0.1281 0.8282 -0.0376 220 180 0
-0.1852 0.7895 -0.0402 220 180 0
-0.1265 0.8268 -0.0377 220 180 0
-0.1841 0.7876 -0.0406 220 180 0
-0.1276 0.8287 -0.0373 220 180 0
-0.1834 0.7886 -0.0382 220 180 0
-0.1283 0.8277 -0.0397 220 180 0
-0.1845 0.7886 -0.0385 220 180 0
-0.1272 0.8277 -0.0394 220 180 0
-0.1877 0.7965 -0.0381 220 180 0
-0.1240 0.8198 -0.0398 220 180 0
-0.1873 0.7942 -0.0388 220 180 0
-0.1244 0.8221 -0.0390 220 180 0
-0.1872 0.7934 -0.0391 220 180 0
-0.1245 0.8229 -0.0388 220 180 0
-0.1873 0.7937 -0.0392 220 180 0
-0.1244 0.8226 -0.0387 220 180 0
-0.1878 0.7945 -0.0389 220 180 0
-0.1239 0.8218 -0.0389 220 180 0
-0.1874 0.7940 -0.0390 220 180 0
-0.1243 0.8223 -0.0388 220 180 0
-0.1875 0.7952 -0.0384 220 180 0
-0.1242 0.8211 -0.0395 220 180 0
-0.1850 0.7928 -0.0380 220 180 0
-0.1267 0.8235 -0.0399 220 180 0
-0.1859 0.7896 -0.0389 220 180 0
-0.1258 0.8267 -0.0390 220 180 0
-0.1873 0.7939 -0.0382 220 180 0
-0.1244 0.8224 -0.0397 220 180 0
-0.1856 0.7917 -0.0379 220 180 0
-0.1261 0.8246 -0.0400 220 180 0
-0.1865 0.7941 -0.0377 220 180 0
-0.1252 0.8222 -0.0402 220 180 0
-0.1869 0.7948 -0.0376 220 180 0
-0.1248 0.8215 -0.0402 220 180 0
-0.1860 0.7925 -0.0377 220 180 0
-0.1257 0.8238 -0.0402 220 180 0
-0.1869 0.7947 -0.0376 220 180 0
-0.1248 0.8216 -0.0403 220 180 0
-0.1867 0.7939 -0.0376 220 180 0
-0.1250 0.8224 -0.0403 220 180 0
-0.1851 0.7910 -0.0381 220 180 0
-0.1266 0.8253 -0.0398 220 180 0
-0.1830 0.7878 -0.0379 220 180 0
-0.1287 0.8285 -0.0399 220 180 0
-0.1880 0.7965 -0.0372 220 180 0
-0.1237 0.8198 -0.0407 220 180 0
-0.1891 0.8059 -0.0367 220 180 0
-0.1226 0.8104 -0.0412 220 180 0
-0.1872 0.7955 -0.0385 220 180 0
-0.1246 0.8208 -0.0393 220 180 0
-0.1895 0.8002 -0.0381 220 180 0
-0.1222 0.8161 -0.0398 220 180 0
-0.1894 0.8019 -0.0368 220 180 0
-0.1223 0.8144 -0.0410 220 180 0
-0.1833 0.7852 -0.0367 220 180 0
-0.1284 0.8311 -0.0412 220 180 0
-0.1818 0.7847 -0.0376 220 180 0
-0.1299 0.8316 -0.0403 220 180 0
-0.1876 0.7939 -0.0373 220 180 0
-0.1241 0.8224 -0.0406 220 180 0
-0.1878 0.7946 -0.0388 220 180 0
-0.1239 0.8217 -0.0391 220 180 0
-0.1892 0.7934 -0.0380 220 180 0
-0.1225 0.8229 -0.0399 220 180 0
-0.1835 0.7837 -0.0348 220 180 0
-0.1282 0.8326 -0.0431 220 180 0
-0.1841 0.7892 -0.0380 220 180 0
-0.1276 0.8271 -0.0399 220 180 0
-0.1835 0.7844 -0.0386 220 180 0
-0.1282 0.8319 -0.0392 220 180 0
-0.1810 0.7859 -0.0390 220 180 0
-0.1307 0.8304 -0.0389 220 180 0
-0.1911 0.8157 -0.0358 220 180 0
-0.1206 0.8006 -0.0421 220 180 0
-0.1882 0.8158 -0.0365 220 180 0
-0.1235 0.8005 -0.0413 220 180 0
-0.1916 0.8182 -0.0356 220 180 0
-0.1201 0.7981 -0.0423 220 180 0
-0.1917 0.8196 -0.0355 220 180 0
-0.1200 0.7967 -0.0424 220 180 0
-0.1918 0.8198 -0.0354 220 180 0
-0.1199 0.7965 -0.0424 220 180 0
-0.1888 0.8194 -0.0364 220 180 0
-0.1229 0.7969 -0.0414 220 180 0
-0.1922 0.8190 -0.0355 220 180 0
-0.1195 0.7973 -0.0423 220 180 0
-0.1914 0.8110 -0.0348 220 180 0
-0.1203 0.8053 -0.0431 220 180 0
-0.1893 0.8205 -0.0342 220 180 0
-0.1224 0.7958 -0.0437 220 180 0
-0.1921 0.8170 -0.0356 220 180 0
-0.1196 0.7993 -0.0423 220 180 0
-0.1916 0.8209 -0.0353 220 180 0
-0.1201 0.7954 -0.0425 220 180 0
-0.1912 0.8217 -0.0353 220 180 0
-0.1205 0.7946 -0.0425 220 180 0
-0.1896 0.8200 -0.0341 220 180 0
-0.1221 0.7963 -0.0438 220 180 0
-0.1894 0.8197 -0.0343 220 180 0
-0.1223 0.7966 -0.0435 220 180 0
-0.1878 0.7847 -0.0367 220 180 0
-0.1239 0.8316 -0.0411 220 180 0
-0.1880 0.7844 -0.0368 220 180 0
-0.1237 0.8319 -0.0411 220 180 0
-0.1830 0.7855 -0.0401 220 180 0
-0.1287 0.8308 -0.0378 220 180 0
-0.1862 0.7901 -0.0373 220 180 0
-0.1255 0.8262 -0.0406 220 180 0
-0.1842 0.7831 -0.0436 220 180 0
-0.1275 0.8332 -0.0343 220 180 0
-0.1863 0.7926 -0.0386 220 180 0
-0.1254 0.8237 -0.0392 220 180 0
-0.1833 0.7827 -0.0337 220 180 0
-0.1284 0.8336 -0.0442 220 180 0
-0.1839 0.7847 -0.0342 220 180 0
-0.1278 0.8316 -0.0436 220 180 0
-0.1862 0.7935 -0.0380 220 180 0
-0.1255 0.8228 -0.0398 220 180 0
-0.1858 0.7921 -0.0382 220 180 0
-0.1259 0.8242 -0.0396 220 180 0
-0.1856 0.7911 -0.0386 220 180 0
-0.1261 0.8252 -0.0393 220 180 0
-0.1826 0.7872 -0.0424 220 180 0
-0.1292 0.8291 -0.0354 220 180 0
-0.1874 0.7835 -0.0365 220 180 0
-0.1243 0.8328 -0.0414 220 180 0
-0.1817 0.7851 -0.0382 220 180 0
-0.1300 0.8312 -0.0396 220 180 0
-0.1883 0.7942 -0.0394 220 180 0
-0.1234 0.8221 -0.0385 220 180 0
-0.1889 0.8017 -0.0379 220 180 0
-0.1228 0.8146 -0.0400 220 180 0
-0.1893 0.8045 -0.0377 220 180 0
-0.1224 0.8118 -0.0402 220 180 0
-0.1889 0.7939 -0.0387 220 180 0
-0.1228 0.8224 -0.0392 220 180 0
-0.1872 0.7977 -0.0379 220 180 0
-0.1246 0.8186 -0.0399 220 180 0
-0.1872 0.8005 -0.0372 220 180 0
-0.1245 0.8158 -0.0406 220 180 0
-0.1879 0.7960 -0.0375 220 180 0
-0.1238 0.8203 -0.0404 220 180 0
-0.1880 0.7965 -0.0378 220 180 0
-0.1237 0.8198 -0.0401 220 180 0
-0.1880 0.7956 -0.0378 220 180 0
-0.1237 0.8207 -0.0401 220 180 0
-0.1892 0.7995 -0.0377 220 180 0
-0.1225 0.8168 -0.0402 220 180 0
-0.1870 0.7941 -0.0391 220 180 0
-0.1247 0.8222 -0.0388 220 180 0
-0.1868 0.7932 -0.0385 220 180 0
-0.1249 0.8231 -0.0393 220 180 0
-0.1881 0.8036 -0.0378 220 180 0
-0.1236 0.8127 -0.0400 220 180 0
-0.1877 0.7972 -0.0382 220 180 0
-0.1240 0.8191 -0.0397 220 180 0
-0.1893 0.7979 -0.0377 220 180 0
-0.1224 0.8184 -0.0401 220 180 0
-0.1883 0.8028 -0.0376 220 180 0
-0.1234 0.8135 -0.0402 220 180 0
-0.1881 0.7962 -0.0379 220 180 0
-0.1236 0.8201 -0.0400 220 180 0
-0.1877 0.7986 -0.0380 220 180 0
-0.1240 0.8177 -0.0399 220 180 0
-0.1879 0.7983 -0.0381 220 180 0
-0.1238 0.8180 -0.0398 220 180 0
-0.1879 0.7977 -0.0381 220 180 0
-0.1238 0.8186 -0.0398 220 180 0
-0.1879 0.7977 -0.0380 220 180 0
-0.1238 0.8186 -0.0398 220 180 0
-0.1879 0.7976 -0.0380 220 180 0
-0.1238 0.8187 -0.0398 220 180 0
-0.1880 0.7977 -0.0381 220 180 0
-0.1238 0.8186 -0.0398 220 180 0
-0.1880 0.7976 -0.0381 220 180 0
-0.1237 0.8187 -0.0398 220 180 0
-0.1879 0.7976 -0.0381 220 180 0
-0.1238 0.8187 -0.0398 220 180 0
-0.1879 0.7977 -0.0380 220 180 0
-0.1238 0.8186 -0.0398 220 180 0
-0.1880 0.7976 -0.0381 220 180 0
-0.1237 0.8186 -0.0398 220 180 0
-0.1880 0.7976 -0.0381 220 180 0
-0.1237 0.8187 -0.0398 220 180 0
-0.1880 0.7976 -0.0381 220 180 0
-0.1237 0.8187 -0.0398 220 180 0
-0.1880 0.7977 -0.0381 220 180 0
-0.1237 0.8186 -0.0398 220 180 0
-0.1880 0.7977 -0.0381 220 180 0
-0.1238 0.8186 -0.0398 220 180 0
-0.1880 0.7978 -0.0381 220 180 0
-0.1237 0.8185 -0.0398 220 180 0
-0.1880 0.7976 -0.0381 220 180 0
-0.1237 0.8187 -0.0398 220 180 0
-0.1880 0.7976 -0.0381 220 180 0
-0.1238 0.8187 -0.0398 220 180 0
-0.1880 0.7976 -0.0381 220 180 0
-0.1237 0.8187 -0.0398 220 180 0
-0.1880 0.7975 -0.0380 220 180 0
-0.1237 0.8188 -0.0398 220 180 0
-0.1880 0.7977 -0.0381 220 180 0
-0.1238 0.8186 -0.0398 220 180 0
-0.1880 0.7975 -0.0381 220 180 0
-0.1237 0.8188 -0.0398 220 180 0
-0.1880 0.7976 -0.0381 220 180 0
-0.1237 0.8187 -0.0398 220 180 0
-0.1880 0.7977 -0.0380 220 180 0
-0.1237 0.8186 -0.0398 220 180 0
-0.1880 0.7976 -0.0381 220 180 0
-0.1237 0.8187 -0.0398 220 180 0
-0.1880 0.7975 -0.0380 220 180 0
-0.1237 0.8188 -0.0398 220 180 0
-0.1880 0.7976 -0.0381 220 180 0
-0.1237 0.8187 -0.0398 220 180 0
-0.1880 0.7977 -0.0381 220 180 0
-0.1237 0.8186 -0.0398 220 180 0
-0.1880 0.7976 -0.0381 220 180 0
-0.1237 0.8187 -0.0398 220 180 0
-0.1880 0.7977 -0.0381 220 180 0
-0.1237 0.8186 -0.0398 220 180 0
-0.1880 0.7975 -0.0380 220 180 0
-0.1238 0.8188 -0.0398 220 180 0
-0.1880 0.7976 -0.0380 220 180 0
-0.1237 0.8187 -0.0398 220 180 0
-0.1880 0.7978 -0.0381 220 180 0
-0.1238 0.8185 -0.0398 220 180 0
-0.1879 0.7977 -0.0381 220 180 0
-0.1238 0.8186 -0.0398 220 180 0
-0.1880 0.7978 -0.0381 220 180 0
-0.1238 0.8185 -0.0398 220 180 0
-0.1880 0.7976 -0.0381 220 180 0
-0.1237 0.8187 -0.0398 220 180 0
-0.1880 0.7975 -0.0381 220 180 0
-0.1237 0.8187 -0.0398 220 180 0
-0.1880 0.7976 -0.0381 220 180 0
-0.1237 0.8187 -0.0398 220 180 0
-0.1880 0.7975 -0.0381 220 180 0
-0.1237 0.8187 -0.0398 220 180 0
-0.1879 0.7976 -0.0381 220 180 0
-0.1238 0.8187 -0.0398 220 180 0
-0.1880 0.7977 -0.0381 220 180 0
-0.1238 0.8186 -0.0398 220 180 0
-0.1880 0.7977 -0.0381 220 180 0
-0.1238 0.8186 -0.0398 220 180 0
-0.1880 0.7975 -0.0381 220 180 0
-0.1237 0.8188 -0.0398 220 180 0
-0.1880 0.7974 -0.0380 220 180 0
-0.1237 0.8188 -0.0398 220 180 0
-0.1880 0.7977 -0.0381 220 180 0
-0.1237 0.8186 -0.0398 220 180 0
-0.1880 0.7977 -0.0381 220 180 0
-0.1237 0.8186 -0.0398 220 180 0
-0.1880 0.7976 -0.0381 220 180 0
-0.1237 0.8187 -0.0398 220 180 0
-0.1880 0.7978 -0.0381 220 180 0
-0.1238 0.8185 -0.0398 220 180 0
-0.1879 0.7978 -0.0381 220 180 0
-0.1238 0.8185 -0.0398 220 180 0
-0.1880 0.7977 -0.0381 220 180 0
-0.1237 0.8186 -0.0398 220 180 0
-0.1880 0.7976 -0.0380 220 180 0
-0.1237 0.8187 -0.0398 220 180 0
-0.1880 0.7977 -0.0381 220 180 0
-0.1237 0.8186 -0.0398 220 180 0
