ply
format ascii 1.0
element vertex 453
property float x
property float y
property float z
property uchar red
property uchar green
property uchar blue
end_header
-0.1856 0.7866 -0.0357 0 200 200
-0.1856 0.7862 -0.0356 0 200 200
-0.1858 0.7872 -0.0358 0 200 200
-0.1860 0.7876 -0.0360 0 200 200
-0.1862 0.7885 -0.0362 0 200 200
-0.1861 0.7879 -0.0360 0 200 200
-0.1858 0.7875 -0.0359 0 200 200
-0.1854 0.7856 -0.0354 0 200 200
-0.1857 0.7870 -0.0357 0 200 200
-0.1857 0.7873 -0.0358 0 200 200
-0.1857 0.7865 -0.0357 0 200 200
-0.1862 0.7884 -0.0361 0 200 200
-0.1858 0.7867 -0.0358 0 200 200
-0.1857 0.7862 -0.0357 0 200 200
-0.1859 0.7868 -0.0359 0 200 200
-0.1855 0.7864 -0.0356 0 200 200
-0.1854 0.7856 -0.0355 0 200 200
-0.1857 0.7869 -0.0357 0 200 200
-0.1860 0.7881 -0.0360 0 200 200
-0.1859 0.7868 -0.0359 0 200 200
-0.1858 0.7870 -0.0358 0 200 200
-0.1855 0.7862 -0.0356 0 200 200
-0.1860 0.7874 -0.0360 0 200 200
-0.1856 0.7860 -0.0357 0 200 200
-0.1857 0.7870 -0.0357 0 200 200
-0.1855 0.7866 -0.0356 0 200 200
-0.1858 0.7874 -0.0358 0 200 200
-0.1859 0.7873 -0.0359 0 200 200
-0.1858 0.7871 -0.0358 0 200 200
-0.1859 0.7876 -0.0359 0 200 200
-0.1858 0.7873 -0.0358 0 200 200
-0.1860 0.7876 -0.0360 0 200 200
-0.1860 0.7877 -0.0359 0 200 200
-0.1856 0.7863 -0.0356 0 200 200
-0.1855 0.7862 -0.0356 0 200 200
-0.1861 0.7885 -0.0361 0 200 200
-0.1857 0.7871 -0.0357 0 200 200
-0.1856 0.7863 -0.0356 0 200 200
-0.1855 0.7863 -0.0356 0 200 200
-0.1857 0.7871 -0.0358 0 200 200
-0.1859 0.7867 -0.0358 0 200 200
-0.1860 0.7875 -0.0360 0 200 200
-0.1860 0.7877 -0.0359 0 200 200
-0.1860 0.7875 -0.0360 0 200 200
-0.1857 0.7866 -0.0357 0 200 200
-0.1857 0.7871 -0.0358 0 200 200
-0.1854 0.7865 -0.0356 0 200 200
-0.1856 0.7869 -0.0357 0 200 200
-0.1861 0.7877 -0.0361 0 200 200
-0.1859 0.7878 -0.0359 0 200 200
-0.1858 0.7868 -0.0358 0 200 200
-0.1860 0.7875 -0.0359 0 200 200
-0.1855 0.7860 -0.0356 0 200 200
-0.1859 0.7875 -0.0359 0 200 200
-0.1860 0.7878 -0.0360 0 200 200
-0.1859 0.7874 -0.0359 0 200 200
-0.1857 0.7868 -0.0357 0 200 200
-0.1859 0.7876 -0.0360 0 200 200
-0.1860 0.7877 -0.0360 0 200 200
-0.1858 0.7868 -0.0358 0 200 200
-0.1860 0.7874 -0.0360 0 200 200
-0.1854 0.7858 -0.0355 0 200 200
-0.1858 0.7866 -0.0358 0 200 200
-0.1861 0.7876 -0.0360 0 200 200
-0.1856 0.7864 -0.0357 0 200 200
-0.1863 0.7885 -0.0362 0 200 200
-0.1857 0.7870 -0.0357 0 200 200
-0.1858 0.7869 -0.0358 0 200 200
-0.1858 0.7872 -0.0358 0 200 200
-0.1862 0.7880 -0.0361 0 200 200
-0.1856 0.7868 -0.0357 0 200 200
-0.1858 0.7870 -0.0358 0 200 200
-0.1857 0.7869 -0.0357 0 200 200
-0.1856 0.7862 -0.0357 0 200 200
-0.1855 0.7865 -0.0356 0 200 200
-0.1859 0.7870 -0.0359 0 200 200
-0.1856 0.7866 -0.0357 0 200 200
-0.1857 0.7867 -0.0357 0 200 200
-0.1857 0.7867 -0.0357 0 200 200
-0.1860 0.7878 -0.0360 0 200 200
-0.1856 0.7862 -0.0357 0 200 200
-0.1856 0.7865 -0.0357 0 200 200
-0.1864 0.7889 -0.0363 0 200 200
-0.1860 0.7875 -0.0360 0 200 200
-0.1858 0.7866 -0.0358 0 200 200
-0.1856 0.7863 -0.0356 0 200 200
-0.1856 0.7866 -0.0357 0 200 200
-0.1862 0.7877 -0.0361 0 200 200
-0.1857 0.7868 -0.0357 0 200 200
-0.1860 0.7877 -0.0360 0 200 200
-0.1858 0.7866 -0.0358 0 200 200
-0.1860 0.7877 -0.0360 0 200 200
-0.1862 0.7883 -0.0361 0 200 200
-0.1858 0.7871 -0.0358 0 200 200
-0.1854 0.7860 -0.0355 0 200 200
-0.1858 0.7869 -0.0358 0 200 200
-0.1858 0.7870 -0.0359 0 200 200
-0.1858 0.7874 -0.0358 0 200 200
-0.1856 0.7865 -0.0357 0 200 200
-0.1857 0.7866 -0.0357 0 200 200
-0.1858 0.7868 -0.0359 0 200 200
-0.1860 0.7878 -0.0360 0 200 200
-0.1858 0.7872 -0.0358 0 200 200
-0.1858 0.7872 -0.0358 0 200 200
-0.1855 0.7863 -0.0356 0 200 200
-0.1861 0.7876 -0.0361 0 200 200
-0.1858 0.7872 -0.0358 0 200 200
-0.1861 0.7879 -0.0360 0 200 200
-0.1857 0.7870 -0.0357 0 200 200
-0.1856 0.7864 -0.0357 0 200 200
-0.1856 0.7869 -0.0356 0 200 200
-0.1861 0.7880 -0.0361 0 200 200
-0.1861 0.7878 -0.0361 0 200 200
-0.1862 0.7881 -0.0361 0 200 200
-0.1862 0.7881 -0.0361 0 200 200
-0.1859 0.7872 -0.0359 0 200 200
-0.1856 0.7870 -0.0357 0 200 200
-0.1862 0.7884 -0.0361 0 200 200
-0.1862 0.7884 -0.0361 0 200 200
-0.1853 0.7854 -0.0355 0 200 200
-0.1859 0.7870 -0.0359 0 200 200
-0.1857 0.7873 -0.0358 0 200 200
-0.1861 0.7880 -0.0361 0 200 200
-0.1860 0.7872 -0.0360 0 200 200
-0.1863 0.7883 -0.0362 0 200 200
-0.1856 0.7865 -0.0357 0 200 200
-0.1919 0.7857 -0.0359 0 200 200
-0.1882 0.7902 -0.0371 0 200 200
-0.1840 0.7869 -0.0421 0 200 200
-0.1835 0.7858 -0.0428 0 200 200
-0.1855 0.7831 -0.0437 0 200 200
-0.1857 0.7838 -0.0436 0 200 200
-0.1853 0.7818 -0.0442 0 200 200
-0.1855 0.7827 -0.0439 0 200 200
-0.1854 0.7817 -0.0442 0 200 200
-0.1859 0.7833 -0.0435 0 200 200
-0.1859 0.7836 -0.0435 0 200 200
-0.1857 0.7819 -0.0439 0 200 200
-0.1883 0.7947 -0.0384 0 200 200
-0.1856 0.7920 -0.0396 0 200 200
-0.1864 0.7908 -0.0362 0 200 200
-0.1878 0.8000 -0.0380 0 200 200
-0.1871 0.7942 -0.0372 0 200 200
-0.1876 0.8021 -0.0384 0 200 200
-0.1877 0.8028 -0.0385 0 200 200
-0.1876 0.8026 -0.0385 0 200 200
-0.1876 0.8004 -0.0381 0 200 200
-0.1876 0.8005 -0.0382 0 200 200
-0.1892 0.7978 -0.0384 0 200 200
-0.1818 0.7751 -0.0472 0 200 200
-0.1840 0.7881 -0.0416 0 200 200
-0.1855 0.7935 -0.0401 0 200 200
-0.1857 0.7905 -0.0412 0 200 200
-0.1862 0.7930 -0.0404 0 200 200
-0.1857 0.7912 -0.0408 0 200 200
-0.1860 0.7924 -0.0405 0 200 200
-0.1862 0.7928 -0.0405 0 200 200
-0.1851 0.7737 -0.0331 0 200 200
-0.1762 0.8008 -0.0357 0 200 200
-0.1801 0.7743 -0.0477 0 200 200
-0.1856 0.7884 -0.0394 0 200 200
-0.1847 0.7816 -0.0405 0 200 200
-0.1826 0.7714 -0.0507 0 200 200
-0.1883 0.8009 -0.0376 0 200 200
-0.1305 0.9008 -0.0574 0 200 200
-0.1792 0.7789 -0.0391 0 200 200
-0.1556 0.9392 -0.1265 0 200 200
-0.1854 0.7858 -0.0381 0 200 200
-0.1861 0.7951 -0.0376 0 200 200
-0.1770 0.7623 -0.0373 0 200 200
-0.1893 0.7847 -0.0405 0 200 200
-0.1892 0.7909 -0.0396 0 200 200
-0.1890 0.7968 -0.0387 0 200 200
-0.1889 0.7962 -0.0388 0 200 200
-0.1892 0.7904 -0.0396 0 200 200
-0.1892 0.7892 -0.0398 0 200 200
-0.1893 0.7857 -0.0406 0 200 200
-0.1907 0.7650 -0.0441 0 200 200
-0.1893 0.7855 -0.0405 0 200 200
-0.1894 0.7851 -0.0407 0 200 200
-0.1894 0.7847 -0.0406 0 200 200
-0.1895 0.7813 -0.0412 0 200 200
-0.1895 0.7846 -0.0406 0 200 200
-0.1895 0.7845 -0.0406 0 200 200
-0.1909 0.7644 -0.0439 0 200 200
-0.1881 0.8150 -0.0327 0 200 200
-0.1906 0.7833 -0.0371 0 200 200
-0.1675 0.7896 -0.0334 0 200 200
-0.1830 0.7829 -0.0394 0 200 200
-0.1867 0.7764 -0.0408 0 200 200
-0.1852 0.7931 -0.0372 0 200 200
-0.1876 0.8000 -0.0376 0 200 200
-0.1877 0.8028 -0.0373 0 200 200
-0.1863 0.7960 -0.0374 0 200 200
-0.1877 0.8025 -0.0375 0 200 200
-0.1876 0.8001 -0.0376 0 200 200
-0.1877 0.8011 -0.0376 0 200 200
-0.1879 0.8013 -0.0376 0 200 200
-0.1845 0.7913 -0.0371 0 200 200
-0.1700 0.7589 -0.0544 0 200 200
-0.1693 0.7577 -0.0548 0 200 200
-0.1964 0.8187 -0.0285 0 200 200
-0.2265 0.7893 -0.0316 0 200 200
-0.2250 0.8058 -0.0251 0 200 200
-0.1891 0.8058 -0.0389 0 200 200
-0.1887 0.8058 -0.0364 0 200 200
-0.1900 0.8091 -0.0367 0 200 200
-0.1886 0.8057 -0.0364 0 200 200
-0.1894 0.8076 -0.0366 0 200 200
-0.1892 0.8073 -0.0365 0 200 200
-0.1895 0.8523 -0.0401 0 200 200
-0.1884 0.8495 -0.0400 0 200 200
-0.1892 0.8518 -0.0402 0 200 200
-0.1886 0.8499 -0.0401 0 200 200
-0.1887 0.8504 -0.0401 0 200 200
-0.1885 0.8496 -0.0401 0 200 200
-0.1884 0.8495 -0.0401 0 200 200
-0.1778 0.7787 -0.0457 0 200 200
-0.1775 0.7779 -0.0461 0 200 200
-0.1768 0.7765 -0.0466 0 200 200
-0.1764 0.7756 -0.0469 0 200 200
-0.1761 0.7749 -0.0472 0 200 200
-0.1800 0.7832 -0.0438 0 200 200
-0.1776 0.7782 -0.0459 0 200 200
-0.1772 0.7772 -0.0463 0 200 200
-0.1739 0.7672 -0.0502 0 200 200
-0.1698 0.7583 -0.0539 0 200 200
-0.1736 0.7668 -0.0504 0 200 200
-0.2334 0.6439 -0.0648 0 200 200
-0.2190 0.6206 -0.0835 0 200 200
-0.1796 0.7763 -0.0356 0 200 200
-0.1803 0.7756 -0.0356 0 200 200
-0.1808 0.7772 -0.0358 0 200 200
-0.1808 0.7767 -0.0357 0 200 200
-0.1806 0.7775 -0.0358 0 200 200
-0.1803 0.7763 -0.0357 0 200 200
-0.1787 0.7710 -0.0351 0 200 200
-0.1803 0.7762 -0.0356 0 200 200
-0.1806 0.7768 -0.0356 0 200 200
-0.1797 0.7758 -0.0356 0 200 200
-0.1801 0.7761 -0.0355 0 200 200
-0.1794 0.7747 -0.0354 0 200 200
-0.1799 0.7761 -0.0355 0 200 200
-0.1886 0.7879 -0.0397 0 200 200
-0.1818 0.7834 -0.0412 0 200 200
-0.1885 0.8079 -0.0361 0 200 200
-0.1877 0.8014 -0.0387 0 200 200
-0.1869 0.7993 -0.0383 0 200 200
-0.1879 0.8029 -0.0386 0 200 200
-0.1882 0.8032 -0.0387 0 200 200
-0.1876 0.8013 -0.0385 0 200 200
-0.1878 0.8022 -0.0386 0 200 200
-0.1874 0.8010 -0.0385 0 200 200
-0.1881 0.8039 -0.0386 0 200 200
-0.1876 0.8015 -0.0385 0 200 200
-0.1870 0.7997 -0.0382 0 200 200
-0.1878 0.8023 -0.0386 0 200 200
-0.1879 0.8031 -0.0386 0 200 200
-0.1875 0.8015 -0.0382 0 200 200
-0.1869 0.7992 -0.0382 0 200 200
-0.1868 0.7990 -0.0381 0 200 200
-0.1868 0.7990 -0.0382 0 200 200
-0.1876 0.8015 -0.0385 0 200 200
-0.1812 0.7849 -0.0388 0 200 200
-0.1864 0.7902 -0.0385 0 200 200
-0.1779 0.7639 -0.0377 0 200 200
-0.1781 0.7776 -0.0359 0 200 200
0.0314 0.5672 0.0027 0 200 200
0.0114 0.5046 0.0147 0 200 200
-0.1863 0.7925 -0.0386 0 200 200
-0.1869 0.7957 -0.0378 0 200 200
-0.1847 0.7888 -0.0395 0 200 200
-0.1838 0.7874 -0.0393 0 200 200
-0.1845 0.7884 -0.0395 0 200 200
-0.1836 0.7870 -0.0393 0 200 200
-0.1835 0.7867 -0.0395 0 200 200
-0.1863 0.7873 -0.0405 0 200 200
-0.1891 0.8003 -0.0377 0 200 200
-0.1899 0.8025 -0.0375 0 200 200
-0.1866 0.7918 -0.0387 0 200 200
-0.1890 0.7963 -0.0385 0 200 200
-0.1889 0.7997 -0.0378 0 200 200
-0.1889 0.7978 -0.0380 0 200 200
-0.1860 0.7900 -0.0411 0 200 200
-0.1840 0.7878 -0.0401 0 200 200
-0.1864 0.7935 -0.0394 0 200 200
-0.1842 0.7888 -0.0401 0 200 200
-0.1878 0.7978 -0.0384 0 200 200
-0.1868 0.7950 -0.0389 0 200 200
-0.1869 0.7947 -0.0389 0 200 200
-0.1879 0.7926 -0.0400 0 200 200
-0.2068 0.7589 -0.0324 0 200 200
-0.1870 0.7955 -0.0370 0 200 200
-0.1869 0.7961 -0.0377 0 200 200
-0.1871 0.7972 -0.0380 0 200 200
-0.1872 0.7977 -0.0380 0 200 200
-0.1873 0.7980 -0.0380 0 200 200
-0.1873 0.7980 -0.0380 0 200 200
-0.1887 0.8045 -0.0376 0 200 200
-0.1887 0.8046 -0.0377 0 200 200
-0.1887 0.8043 -0.0377 0 200 200
-0.1887 0.8048 -0.0376 0 200 200
-0.1887 0.8047 -0.0376 0 200 200
-0.1887 0.8046 -0.0376 0 200 200
-0.1872 0.7977 -0.0379 0 200 200
-0.1871 0.7973 -0.0378 0 200 200
-0.1872 0.7978 -0.0380 0 200 200
-0.1871 0.7974 -0.0379 0 200 200
-0.1871 0.7974 -0.0379 0 200 200
-0.1871 0.7974 -0.0379 0 200 200
-0.1872 0.7979 -0.0380 0 200 200
-0.1882 0.8000 -0.0378 0 200 200
-0.1886 0.7980 -0.0379 0 200 200
-0.1873 0.7949 -0.0374 0 200 200
-0.1837 0.7881 -0.0403 0 200 200
-0.1852 0.7895 -0.0402 0 200 200
-0.1841 0.7876 -0.0406 0 200 200
-0.1834 0.7886 -0.0382 0 200 200
-0.1845 0.7886 -0.0385 0 200 200
-0.1877 0.7965 -0.0381 0 200 200
-0.1873 0.7942 -0.0388 0 200 200
-0.1872 0.7934 -0.0391 0 200 200
-0.1873 0.7937 -0.0392 0 200 200
-0.1878 0.7945 -0.0389 0 200 200
-0.1874 0.7940 -0.0390 0 200 200
-0.1875 0.7952 -0.0384 0 200 200
-0.1850 0.7928 -0.0380 0 200 200
-0.1859 0.7896 -0.0389 0 200 200
-0.1873 0.7939 -0.0382 0 200 200
-0.1856 0.7917 -0.0379 0 200 200
-0.1865 0.7941 -0.0377 0 200 200
-0.1869 0.7948 -0.0376 0 200 200
-0.1860 0.7925 -0.0377 0 200 200
-0.1869 0.7947 -0.0376 0 200 200
-0.1867 0.7939 -0.0376 0 200 200
-0.1851 0.7910 -0.0381 0 200 200
-0.1830 0.7878 -0.0379 0 200 200
-0.1880 0.7965 -0.0372 0 200 200
-0.1891 0.8059 -0.0367 0 200 200
-0.1872 0.7955 -0.0385 0 200 200
-0.1895 0.8002 -0.0381 0 200 200
-0.1894 0.8019 -0.0368 0 200 200
-0.1833 0.7852 -0.0367 0 200 200
-0.1818 0.7847 -0.0376 0 200 200
-0.1876 0.7939 -0.0373 0 200 200
-0.1878 0.7946 -0.0388 0 200 200
-0.1892 0.7934 -0.0380 0 200 200
-0.1835 0.7837 -0.0348 0 200 200
-0.1841 0.7892 -0.0380 0 200 200
-0.1835 0.7844 -0.0386 0 200 200
-0.1076 1.1000 0.0046 0 200 200
-0.1810 0.7859 -0.0390 0 200 200
-0.1911 0.8157 -0.0358 0 200 200
-0.1882 0.8158 -0.0365 0 200 200
-0.1916 0.8182 -0.0356 0 200 200
-0.1917 0.8196 -0.0355 0 200 200
-0.1918 0.8198 -0.0354 0 200 200
-0.1888 0.8194 -0.0364 0 200 200
-0.1922 0.8190 -0.0355 0 200 200
-0.1914 0.8110 -0.0348 0 200 200
-0.1893 0.8205 -0.0342 0 200 200
-0.1921 0.8170 -0.0356 0 200 200
-0.1916 0.8209 -0.0353 0 200 200
-0.1912 0.8217 -0.0353 0 200 200
-0.1896 0.8200 -0.0341 0 200 200
-0.1894 0.8197 -0.0343 0 200 200
-0.2040 0.7119 -0.0480 0 200 200
-0.1878 0.7847 -0.0367 0 200 200
-0.1880 0.7844 -0.0368 0 200 200
-0.1830 0.7855 -0.0401 0 200 200
-0.1862 0.7901 -0.0373 0 200 200
-0.0668 0.8316 -0.0369 0 200 200
-0.8372 0.4700 -0.0103 0 200 200
-0.1842 0.7831 -0.0436 0 200 200
-0.1863 0.7926 -0.0386 0 200 200
-0.1833 0.7827 -0.0337 0 200 200
-0.1839 0.7847 -0.0342 0 200 200
-0.1862 0.7935 -0.0380 0 200 200
-0.1858 0.7921 -0.0382 0 200 200
-0.1856 0.7911 -0.0386 0 200 200
-0.1982 0.6776 -0.1012 0 200 200
-0.1826 0.7872 -0.0424 0 200 200
-0.1874 0.7835 -0.0365 0 200 200
-0.1928 0.7796 -0.0100 0 200 200
-0.1817 0.7851 -0.0382 0 200 200
-0.1883 0.7942 -0.0394 0 200 200
-0.1889 0.8017 -0.0379 0 200 200
-0.1893 0.8045 -0.0377 0 200 200
-0.1889 0.7939 -0.0387 0 200 200
-0.1872 0.7977 -0.0379 0 200 200
-0.1872 0.8005 -0.0372 0 200 200
-0.1879 0.7960 -0.0375 0 200 200
-0.1880 0.7965 -0.0378 0 200 200
-0.1880 0.7956 -0.0378 0 200 200
-0.1892 0.7995 -0.0377 0 200 200
-0.1870 0.7941 -0.0391 0 200 200
-0.1868 0.7932 -0.0385 0 200 200
-0.1881 0.8036 -0.0378 0 200 200
-0.1877 0.7972 -0.0382 0 200 200
-0.1893 0.7979 -0.0377 0 200 200
-0.1883 0.8028 -0.0376 0 200 200
-0.1881 0.7962 -0.0379 0 200 200
-0.1877 0.7986 -0.0380 0 200 200
-0.1879 0.7983 -0.0381 0 200 200
-0.1879 0.7977 -0.0381 0 200 200
-0.1879 0.7977 -0.0380 0 200 200
-0.1879 0.7976 -0.0380 0 200 200
-0.1880 0.7977 -0.0381 0 200 200
-0.1880 0.7976 -0.0381 0 200 200
-0.1879 0.7976 -0.0381 0 200 200
-0.1879 0.7977 -0.0380 0 200 200
-0.1880 0.7976 -0.0381 0 200 200
-0.1880 0.7976 -0.0381 0 200 200
-0.1880 0.7976 -0.0381 0 200 200
-0.1880 0.7977 -0.0381 0 200 200
-0.1880 0.7977 -0.0381 0 200 200
-0.1880 0.7978 -0.0381 0 200 200
-0.1880 0.7976 -0.0381 0 200 200
-0.1880 0.7976 -0.0381 0 200 200
-0.1880 0.7976 -0.0381 0 200 200
-0.1880 0.7975 -0.0380 0 200 200
-0.1880 0.7977 -0.0381 0 200 200
-0.1880 0.7975 -0.0381 0 200 200
-0.1880 0.7976 -0.0381 0 200 200
-0.1880 0.7977 -0.0380 0 200 200
-0.1880 0.7976 -0.0381 0 200 200
-0.1880 0.7975 -0.0380 0 200 200
-0.1880 0.7976 -0.0381 0 200 200
-0.1880 0.7977 -0.0381 0 200 200
-0.1880 0.7976 -0.0381 0 200 200
-0.1880 0.7977 -0.0381 0 200 200
-0.1880 0.7975 -0.0380 0 200 200
-0.1880 0.7976 -0.0380 0 200 200
-0.1880 0.7978 -0.0381 0 200 200
-0.1879 0.7977 -0.0381 0 200 200
-0.1880 0.7978 -0.0381 0 200 200
-0.1880 0.7976 -0.0381 0 200 200
-0.1880 0.7975 -0.0381 0 200 200
-0.1880 0.7976 -0.0381 0 200 200
-0.1880 0.7975 -0.0381 0 200 200
-0.1879 0.7976 -0.0381 0 200 200
-0.1880 0.7977 -0.0381 0 200 200
-0.1880 0.7977 -0.0381 0 200 200
-0.1880 0.7975 -0.0381 0 200 200
-0.1880 0.7974 -0.0380 0 200 200
-0.1880 0.7977 -0.0381 0 200 200
-0.1880 0.7977 -0.0381 0 200 200
-0.1880 0.7976 -0.0381 0 200 200
-0.1880 0.7978 -0.0381 0 200 200
-0.1879 0.7978 -0.0381 0 200 200
-0.1880 0.7977 -0.0381 0 200 200
-0.1880 0.7976 -0.0380 0 200 200
-0.1880 0.7977 -0.0381 0 200 200
