ply
format ascii 1.0
element vertex 422
property float x
property float y
property float z
property uchar red
property uchar green
property uchar blue
end_header
-0.1261 0.8297 -0.0422 200 0 200
-0.1261 0.8301 -0.0422 200 0 200
-0.1259 0.8291 -0.0421 200 0 200
-0.1257 0.8287 -0.0419 200 0 200
-0.1256 0.8278 -0.0416 200 0 200
-0.1256 0.8284 -0.0418 200 0 200
-0.1259 0.8288 -0.0420 200 0 200
-0.1263 0.8307 -0.0424 200 0 200
-0.1260 0.8293 -0.0422 200 0 200
-0.1260 0.8289 -0.0421 200 0 200
-0.1260 0.8298 -0.0422 200 0 200
-0.1255 0.8279 -0.0417 200 0 200
-0.1259 0.8296 -0.0421 200 0 200
-0.1260 0.8301 -0.0422 200 0 200
-0.1258 0.8295 -0.0420 200 0 200
-0.1262 0.8299 -0.0423 200 0 200
-0.1264 0.8307 -0.0424 200 0 200
-0.1260 0.8294 -0.0421 200 0 200
-0.1257 0.8282 -0.0419 200 0 200
-0.1259 0.8295 -0.0420 200 0 200
-0.1259 0.8292 -0.0421 200 0 200
-0.1262 0.8301 -0.0423 200 0 200
-0.1257 0.8289 -0.0418 200 0 200
-0.1261 0.8303 -0.0421 200 0 200
-0.1260 0.8293 -0.0422 200 0 200
-0.1262 0.8297 -0.0422 200 0 200
-0.1259 0.8289 -0.0421 200 0 200
-0.1258 0.8290 -0.0420 200 0 200
-0.1259 0.8292 -0.0420 200 0 200
-0.1258 0.8287 -0.0419 200 0 200
-0.1260 0.8290 -0.0421 200 0 200
-0.1257 0.8287 -0.0419 200 0 200
-0.1257 0.8286 -0.0419 200 0 200
-0.1261 0.8300 -0.0422 200 0 200
-0.1263 0.8301 -0.0423 200 0 200
-0.1256 0.8278 -0.0418 200 0 200
-0.1260 0.8292 -0.0421 200 0 200
-0.1261 0.8300 -0.0422 200 0 200
-0.1262 0.8300 -0.0423 200 0 200
-0.1260 0.8292 -0.0421 200 0 200
-0.1258 0.8296 -0.0420 200 0 200
-0.1257 0.8288 -0.0418 200 0 200
-0.1257 0.8286 -0.0419 200 0 200
-0.1257 0.8288 -0.0419 200 0 200
-0.1260 0.8297 -0.0421 200 0 200
-0.1260 0.8292 -0.0421 200 0 200
-0.1263 0.8298 -0.0423 200 0 200
-0.1261 0.8294 -0.0422 200 0 200
-0.1256 0.8286 -0.0418 200 0 200
-0.1258 0.8285 -0.0420 200 0 200
-0.1259 0.8295 -0.0421 200 0 200
-0.1257 0.8288 -0.0419 200 0 200
-0.1262 0.8303 -0.0422 200 0 200
-0.1258 0.8288 -0.0420 200 0 200
-0.1257 0.8285 -0.0419 200 0 200
-0.1258 0.8289 -0.0420 200 0 200
-0.1260 0.8295 -0.0421 200 0 200
-0.1258 0.8287 -0.0419 200 0 200
-0.1257 0.8286 -0.0419 200 0 200
-0.1259 0.8295 -0.0420 200 0 200
-0.1257 0.8289 -0.0419 200 0 200
-0.1263 0.8305 -0.0423 200 0 200
-0.1259 0.8297 -0.0421 200 0 200
-0.1256 0.8287 -0.0418 200 0 200
-0.1261 0.8299 -0.0422 200 0 200
-0.1255 0.8278 -0.0417 200 0 200
-0.1260 0.8293 -0.0421 200 0 200
-0.1259 0.8294 -0.0420 200 0 200
-0.1259 0.8291 -0.0420 200 0 200
-0.1255 0.8282 -0.0418 200 0 200
-0.1261 0.8295 -0.0421 200 0 200
-0.1259 0.8293 -0.0421 200 0 200
-0.1260 0.8294 -0.0421 200 0 200
-0.1261 0.8301 -0.0422 200 0 200
-0.1262 0.8298 -0.0422 200 0 200
-0.1258 0.8293 -0.0420 200 0 200
-0.1261 0.8297 -0.0422 200 0 200
-0.1260 0.8296 -0.0421 200 0 200
-0.1260 0.8296 -0.0421 200 0 200
-0.1257 0.8285 -0.0419 200 0 200
-0.1261 0.8301 -0.0422 200 0 200
-0.1261 0.8298 -0.0421 200 0 200
-0.1253 0.8274 -0.0416 200 0 200
-0.1257 0.8288 -0.0419 200 0 200
-0.1259 0.8297 -0.0420 200 0 200
-0.1261 0.8299 -0.0422 200 0 200
-0.1261 0.8297 -0.0422 200 0 200
-0.1255 0.8286 -0.0417 200 0 200
-0.1260 0.8294 -0.0421 200 0 200
-0.1257 0.8286 -0.0419 200 0 200
-0.1259 0.8297 -0.0421 200 0 200
-0.1257 0.8286 -0.0419 200 0 200
-0.1255 0.8280 -0.0418 200 0 200
-0.1259 0.8292 -0.0420 200 0 200
-0.1263 0.8303 -0.0424 200 0 200
-0.1259 0.8294 -0.0420 200 0 200
-0.1259 0.8293 -0.0420 200 0 200
-0.1259 0.8289 -0.0420 200 0 200
-0.1261 0.8298 -0.0422 200 0 200
-0.1260 0.8297 -0.0422 200 0 200
-0.1259 0.8295 -0.0420 200 0 200
-0.1257 0.8285 -0.0419 200 0 200
-0.1259 0.8291 -0.0420 200 0 200
-0.1259 0.8291 -0.0420 200 0 200
-0.1262 0.8300 -0.0423 200 0 200
-0.1256 0.8287 -0.0418 200 0 200
-0.1259 0.8291 -0.0421 200 0 200
-0.1256 0.8284 -0.0418 200 0 200
-0.1260 0.8293 -0.0421 200 0 200
-0.1261 0.8299 -0.0421 200 0 200
-0.1261 0.8294 -0.0422 200 0 200
-0.1256 0.8283 -0.0418 200 0 200
-0.1256 0.8285 -0.0418 200 0 200
-0.1255 0.8282 -0.0418 200 0 200
-0.1255 0.8282 -0.0417 200 0 200
-0.1258 0.8291 -0.0419 200 0 200
-0.1261 0.8293 -0.0422 200 0 200
-0.1255 0.8279 -0.0417 200 0 200
-0.1255 0.8279 -0.0418 200 0 200
-0.1264 0.8309 -0.0424 200 0 200
-0.1258 0.8293 -0.0419 200 0 200
-0.1260 0.8290 -0.0420 200 0 200
-0.1256 0.8283 -0.0418 200 0 200
-0.1257 0.8291 -0.0419 200 0 200
-0.1255 0.8280 -0.0417 200 0 200
-0.1261 0.8298 -0.0422 200 0 200
-0.1235 0.8261 -0.0407 200 0 200
-0.1277 0.8294 -0.0358 200 0 200
-0.1282 0.8305 -0.0351 200 0 200
-0.1262 0.8332 -0.0342 200 0 200
-0.1260 0.8325 -0.0343 200 0 200
-0.1264 0.8345 -0.0337 200 0 200
-0.1262 0.8336 -0.0340 200 0 200
-0.1263 0.8346 -0.0337 200 0 200
-0.1258 0.8330 -0.0344 200 0 200
-0.1258 0.8327 -0.0344 200 0 200
-0.1260 0.8344 -0.0340 200 0 200
-0.1234 0.8216 -0.0394 200 0 200
-0.1261 0.8243 -0.0382 200 0 200
-0.1253 0.8255 -0.0416 200 0 200
-0.1239 0.8163 -0.0398 200 0 200
-0.1246 0.8221 -0.0407 200 0 200
-0.1241 0.8142 -0.0394 200 0 200
-0.1240 0.8135 -0.0393 200 0 200
-0.1241 0.8137 -0.0394 200 0 200
-0.1241 0.8159 -0.0398 200 0 200
-0.1241 0.8158 -0.0396 200 0 200
-0.1225 0.8185 -0.0395 200 0 200
-0.1299 0.8412 -0.0307 200 0 200
-0.1277 0.8282 -0.0362 200 0 200
-0.1262 0.8228 -0.0377 200 0 200
-0.1260 0.8258 -0.0367 200 0 200
-0.1255 0.8233 -0.0375 200 0 200
-0.1260 0.8251 -0.0371 200 0 200
-0.1257 0.8239 -0.0374 200 0 200
-0.1255 0.8234 -0.0374 200 0 200
-0.1266 0.8426 -0.0448 200 0 200
-0.1316 0.8420 -0.0302 200 0 200
-0.1261 0.8279 -0.0384 200 0 200
-0.1270 0.8347 -0.0374 200 0 200
-0.1291 0.8449 -0.0271 200 0 200
-0.1234 0.8154 -0.0403 200 0 200
-0.1325 0.8374 -0.0387 200 0 200
-0.1263 0.8305 -0.0398 200 0 200
-0.1256 0.8212 -0.0403 200 0 200
-0.1224 0.8316 -0.0374 200 0 200
-0.1224 0.8306 -0.0373 200 0 200
-0.1210 0.8513 -0.0337 200 0 200
-0.1224 0.8308 -0.0373 200 0 200
-0.1223 0.8312 -0.0372 200 0 200
-0.1223 0.8316 -0.0372 200 0 200
-0.1222 0.8350 -0.0366 200 0 200
-0.1222 0.8317 -0.0372 200 0 200
-0.1222 0.8318 -0.0372 200 0 200
-0.1208 0.8519 -0.0340 200 0 200
-0.1211 0.8330 -0.0408 200 0 200
-0.1287 0.8334 -0.0384 200 0 200
-0.1251 0.8399 -0.0370 200 0 200
-0.1265 0.8232 -0.0407 200 0 200
-0.1241 0.8163 -0.0402 200 0 200
-0.1240 0.8135 -0.0406 200 0 200
-0.1254 0.8203 -0.0405 200 0 200
-0.1240 0.8138 -0.0404 200 0 200
-0.1241 0.8162 -0.0402 200 0 200
-0.1240 0.8152 -0.0403 200 0 200
-0.1238 0.8150 -0.0402 200 0 200
-0.1272 0.8250 -0.0408 200 0 200
-0.1417 0.8574 -0.0234 200 0 200
-0.1226 0.8105 -0.0390 200 0 200
-0.1339 0.8376 -0.0322 200 0 200
-0.1409 0.8552 -0.0257 200 0 200
-0.1342 0.8384 -0.0318 200 0 200
-0.1419 0.8571 -0.0247 200 0 200
-0.1420 0.8574 -0.0246 200 0 200
-0.1448 0.8643 -0.0222 200 0 200
-0.1378 0.8490 -0.0276 200 0 200
-0.1321 0.8400 -0.0423 200 0 200
-0.1315 0.8407 -0.0423 200 0 200
-0.1309 0.8391 -0.0421 200 0 200
-0.1309 0.8396 -0.0421 200 0 200
-0.1311 0.8388 -0.0421 200 0 200
-0.1314 0.8400 -0.0421 200 0 200
-0.1330 0.8453 -0.0428 200 0 200
-0.1314 0.8400 -0.0423 200 0 200
-0.1311 0.8395 -0.0423 200 0 200
-0.1320 0.8405 -0.0423 200 0 200
-0.1316 0.8402 -0.0424 200 0 200
-0.1323 0.8416 -0.0425 200 0 200
-0.1318 0.8402 -0.0423 200 0 200
-0.1231 0.8284 -0.0382 200 0 200
-0.1299 0.8329 -0.0366 200 0 200
-0.1232 0.8084 -0.0417 200 0 200
-0.1240 0.8149 -0.0392 200 0 200
-0.1248 0.8170 -0.0395 200 0 200
-0.1238 0.8134 -0.0393 200 0 200
-0.1235 0.8131 -0.0392 200 0 200
-0.1241 0.8150 -0.0393 200 0 200
-0.1239 0.8141 -0.0392 200 0 200
-0.1243 0.8153 -0.0394 200 0 200
-0.1236 0.8124 -0.0392 200 0 200
-0.1241 0.8148 -0.0393 200 0 200
-0.1247 0.8166 -0.0396 200 0 200
-0.1239 0.8140 -0.0393 200 0 200
-0.1238 0.8132 -0.0393 200 0 200
-0.1242 0.8148 -0.0396 200 0 200
-0.1248 0.8170 -0.0396 200 0 200
-0.1249 0.8173 -0.0398 200 0 200
-0.1249 0.8173 -0.0397 200 0 200
-0.1241 0.8148 -0.0394 200 0 200
-0.1305 0.8314 -0.0390 200 0 200
-0.1253 0.8261 -0.0394 200 0 200
-0.1284 0.8472 -0.0335 200 0 200
-0.1336 0.8387 -0.0420 200 0 200
-0.2758 0.7133 -0.0512 200 0 200
-0.2395 0.6866 -0.0393 200 0 200
-0.2381 0.6839 -0.0397 200 0 200
-0.1254 0.8238 -0.0392 200 0 200
-0.1248 0.8206 -0.0400 200 0 200
-0.1270 0.8275 -0.0384 200 0 200
-0.1279 0.8289 -0.0385 200 0 200
-0.1272 0.8279 -0.0383 200 0 200
-0.1282 0.8293 -0.0386 200 0 200
-0.1282 0.8296 -0.0384 200 0 200
-0.1255 0.8290 -0.0374 200 0 200
-0.1226 0.8160 -0.0401 200 0 200
-0.1218 0.8138 -0.0404 200 0 200
-0.1251 0.8245 -0.0392 200 0 200
-0.1230 0.7607 -0.0551 200 0 200
-0.1357 0.7257 -0.0645 200 0 200
-0.1349 0.6668 -0.0696 200 0 200
-0.1438 0.6884 -0.0648 200 0 200
-0.1408 0.7316 -0.0570 200 0 200
-0.1363 0.7736 -0.0536 200 0 200
-0.1227 0.8200 -0.0393 200 0 200
-0.1228 0.8166 -0.0401 200 0 200
-0.1228 0.8185 -0.0398 200 0 200
-0.1257 0.8263 -0.0368 200 0 200
-0.1277 0.8285 -0.0378 200 0 200
-0.1253 0.8227 -0.0385 200 0 200
-0.1275 0.8275 -0.0377 200 0 200
-0.1239 0.8185 -0.0395 200 0 200
-0.1249 0.8213 -0.0390 200 0 200
-0.1249 0.8216 -0.0390 200 0 200
-0.1238 0.8237 -0.0379 200 0 200
-0.1247 0.8208 -0.0409 200 0 200
-0.1248 0.8202 -0.0402 200 0 200
-0.1246 0.8191 -0.0399 200 0 200
-0.1245 0.8186 -0.0398 200 0 200
-0.1244 0.8183 -0.0398 200 0 200
-0.1244 0.8183 -0.0398 200 0 200
-0.1230 0.8118 -0.0402 200 0 200
-0.1230 0.8117 -0.0402 200 0 200
-0.1230 0.8120 -0.0402 200 0 200
-0.1230 0.8115 -0.0402 200 0 200
-0.1230 0.8116 -0.0402 200 0 200
-0.1230 0.8117 -0.0402 200 0 200
-0.1245 0.8186 -0.0400 200 0 200
-0.1246 0.8189 -0.0400 200 0 200
-0.1245 0.8185 -0.0399 200 0 200
-0.1246 0.8189 -0.0400 200 0 200
-0.1246 0.8189 -0.0400 200 0 200
-0.1246 0.8189 -0.0400 200 0 200
-0.1245 0.8184 -0.0399 200 0 200
-0.1235 0.8162 -0.0401 200 0 200
-0.1232 0.8183 -0.0399 200 0 200
-0.1244 0.8214 -0.0405 200 0 200
-0.1281 0.8282 -0.0376 200 0 200
-0.1265 0.8268 -0.0377 200 0 200
-0.1276 0.8287 -0.0373 200 0 200
-0.1283 0.8277 -0.0397 200 0 200
-0.1272 0.8277 -0.0394 200 0 200
-0.1240 0.8198 -0.0398 200 0 200
-0.1244 0.8221 -0.0390 200 0 200
-0.1245 0.8229 -0.0388 200 0 200
-0.1244 0.8226 -0.0387 200 0 200
-0.1239 0.8218 -0.0389 200 0 200
-0.1243 0.8223 -0.0388 200 0 200
-0.1242 0.8211 -0.0395 200 0 200
-0.1267 0.8235 -0.0399 200 0 200
-0.1258 0.8267 -0.0390 200 0 200
-0.1244 0.8224 -0.0397 200 0 200
-0.1261 0.8246 -0.0400 200 0 200
-0.1252 0.8222 -0.0402 200 0 200
-0.1248 0.8215 -0.0402 200 0 200
-0.1257 0.8238 -0.0402 200 0 200
-0.1248 0.8216 -0.0403 200 0 200
-0.1250 0.8224 -0.0403 200 0 200
-0.1266 0.8253 -0.0398 200 0 200
-0.1287 0.8285 -0.0399 200 0 200
-0.1237 0.8198 -0.0407 200 0 200
-0.1226 0.8104 -0.0412 200 0 200
-0.1246 0.8208 -0.0393 200 0 200
-0.1222 0.8161 -0.0398 200 0 200
-0.1223 0.8144 -0.0410 200 0 200
-0.1284 0.8311 -0.0412 200 0 200
-0.1299 0.8316 -0.0403 200 0 200
-0.1241 0.8224 -0.0406 200 0 200
-0.1239 0.8217 -0.0391 200 0 200
-0.1225 0.8229 -0.0399 200 0 200
-0.1282 0.8326 -0.0431 200 0 200
-0.1276 0.8271 -0.0399 200 0 200
-0.1282 0.8319 -0.0392 200 0 200
-0.0913 1.0460 0.0014 200 0 200
-0.1307 0.8304 -0.0389 200 0 200
-0.1206 0.8006 -0.0421 200 0 200
-0.1235 0.8005 -0.0413 200 0 200
-0.1201 0.7981 -0.0423 200 0 200
-0.1200 0.7967 -0.0424 200 0 200
-0.1199 0.7965 -0.0424 200 0 200
-0.1229 0.7969 -0.0414 200 0 200
-0.1195 0.7973 -0.0423 200 0 200
-0.1203 0.8053 -0.0431 200 0 200
-0.1224 0.7958 -0.0437 200 0 200
-0.1196 0.7993 -0.0423 200 0 200
-0.1201 0.7954 -0.0425 200 0 200
-0.1205 0.7946 -0.0425 200 0 200
-0.1221 0.7963 -0.0438 200 0 200
-0.1223 0.7966 -0.0435 200 0 200
-0.1460 0.8086 -0.0374 200 0 200
-0.1239 0.8316 -0.0411 200 0 200
-0.1237 0.8319 -0.0411 200 0 200
-0.1287 0.8308 -0.0378 200 0 200
-0.1255 0.8262 -0.0406 200 0 200
-0.1275 0.8332 -0.0343 200 0 200
-0.1254 0.8237 -0.0392 200 0 200
-0.1284 0.8336 -0.0442 200 0 200
-0.1278 0.8316 -0.0436 200 0 200
-0.1255 0.8228 -0.0398 200 0 200
-0.1259 0.8242 -0.0396 200 0 200
-0.1261 0.8252 -0.0393 200 0 200
-0.1292 0.8291 -0.0354 200 0 200
-0.1243 0.8328 -0.0414 200 0 200
-0.1300 0.8312 -0.0396 200 0 200
-0.1234 0.8221 -0.0385 200 0 200
-0.1228 0.8146 -0.0400 200 0 200
-0.1224 0.8118 -0.0402 200 0 200
-0.1553 0.7667 -0.0450 200 0 200
-0.1228 0.8224 -0.0392 200 0 200
-0.1246 0.8186 -0.0399 200 0 200
-0.1245 0.8158 -0.0406 200 0 200
-0.1238 0.8203 -0.0404 200 0 200
-0.1237 0.8198 -0.0401 200 0 200
-0.1237 0.8207 -0.0401 200 0 200
-0.1225 0.8168 -0.0402 200 0 200
-0.1247 0.8222 -0.0388 200 0 200
-0.1249 0.8231 -0.0393 200 0 200
-0.1236 0.8127 -0.0400 200 0 200
-0.1240 0.8191 -0.0397 200 0 200
-0.1224 0.8184 -0.0401 200 0 200
-0.1234 0.8135 -0.0402 200 0 200
-0.1236 0.8201 -0.0400 200 0 200
-0.1240 0.8177 -0.0399 200 0 200
-0.1238 0.8180 -0.0398 200 0 200
-0.1238 0.8186 -0.0398 200 0 200
-0.1238 0.8186 -0.0398 200 0 200
-0.1238 0.8187 -0.0398 200 0 200
-0.1238 0.8186 -0.0398 200 0 200
-0.1237 0.8187 -0.0398 200 0 200
-0.1238 0.8187 -0.0398 200 0 200
-0.1238 0.8186 -0.0398 200 0 200
-0.1237 0.8186 -0.0398 200 0 200
-0.1237 0.8187 -0.0398 200 0 200
-0.1237 0.8187 -0.0398 200 0 200
-0.1237 0.8186 -0.0398 200 0 200
-0.1238 0.8186 -0.0398 200 0 200
-0.1237 0.8185 -0.0398 200 0 200
-0.1237 0.8187 -0.0398 200 0 200
-0.1238 0.8187 -0.0398 200 0 200
-0.1237 0.8187 -0.0398 200 0 200
-0.1237 0.8188 -0.0398 200 0 200
-0.1238 0.8186 -0.0398 200 0 200
-0.1237 0.8188 -0.0398 200 0 200
-0.1237 0.8187 -0.0398 200 0 200
-0.1237 0.8186 -0.0398 200 0 200
-0.1237 0.8187 -0.0398 200 0 200
-0.1237 0.8188 -0.0398 200 0 200
-0.1237 0.8187 -0.0398 200 0 200
-0.1237 0.8186 -0.0398 200 0 200
-0.1237 0.8187 -0.0398 200 0 200
-0.1237 0.8186 -0.0398 200 0 200
-0.1238 0.8188 -0.0398 200 0 200
-0.1237 0.8187 -0.0398 200 0 200
-0.1238 0.8185 -0.0398 200 0 200
-0.1238 0.8186 -0.0398 200 0 200
-0.1238 0.8185 -0.0398 200 0 200
-0.1237 0.8187 -0.0398 200 0 200
-0.1237 0.8187 -0.0398 200 0 200
-0.1237 0.8187 -0.0398 200 0 200
-0.1237 0.8187 -0.0398 200 0 200
-0.1238 0.8187 -0.0398 200 0 200
-0.1238 0.8186 -0.0398 200 0 200
-0.1238 0.8186 -0.0398 200 0 200
-0.1237 0.8188 -0.0398 200 0 200
-0.1237 0.8188 -0.0398 200 0 200
-0.1237 0.8186 -0.0398 200 0 200
-0.1237 0.8186 -0.0398 200 0 200
-0.1237 0.8187 -0.0398 200 0 200
-0.1238 0.8185 -0.0398 200 0 200
-0.1238 0.8185 -0.0398 200 0 200
-0.1237 0.8186 -0.0398 200 0 200
-0.1237 0.8187 -0.0398 200 0 200
-0.1237 0.8186 -0.0398 200 0 200
