ply
format ascii 1.0
element vertex 132
property float x
property float y
property float z
property uchar red
property uchar green
property uchar blue
end_header
-0.0000 0.0000 0.0750 0 220 0
0.0007 -0.0000 0.0744 0 220 0
0.0011 0.0000 0.0751 0 220 0
0.0014 0.0001 0.0753 0 220 0
0.0001 0.0001 0.0749 0 220 0
0.0017 -0.0000 0.0755 0 220 0
0.0056 -0.0001 0.0769 0 220 0
0.0051 -0.0001 0.0774 0 220 0
0.0040 -0.0002 0.0760 0 220 0
0.0011 -0.0002 0.0749 0 220 0
0.0029 -0.0002 0.0759 0 220 0
-0.0022 0.0002 0.0751 0 220 0
0.0016 0.0001 0.0762 0 220 0
0.0025 0.0002 0.0763 0 220 0
0.0050 0.0000 0.0767 0 220 0
0.0015 0.0003 0.0765 0 220 0
0.0010 0.0000 0.0752 0 220 0
0.0001 -0.0000 0.0752 0 220 0
0.0029 -0.0001 0.0761 0 220 0
0.0030 -0.0001 0.0763 0 220 0
-0.0024 0.0004 0.0759 0 220 0
0.0010 0.0003 0.0773 0 220 0
0.0005 0.0004 0.0779 0 220 0
-0.0027 0.0003 0.0759 0 220 0
-0.0015 0.0004 0.0768 0 220 0
-0.0029 0.0004 0.0762 0 220 0
-0.0003 0.0002 0.0767 0 220 0
-0.0003 0.0001 0.0763 0 220 0
0.0003 0.0001 0.0758 0 220 0
0.0004 0.0002 0.0767 0 220 0
0.0031 -0.0001 0.0761 0 220 0
0.0017 -0.0001 0.0753 0 220 0
0.0022 0.0002 0.0769 0 220 0
0.0006 0.0002 0.0757 0 220 0
0.0016 0.0001 0.0762 0 220 0
0.0025 0.0001 0.0760 0 220 0
0.0010 0.0004 0.0768 0 220 0
-0.0013 0.0004 0.0758 0 220 0
0.0006 0.0003 0.0763 0 220 0
-0.0016 0.0003 0.0753 0 220 0
-0.0033 0.0004 0.0749 0 220 0
-0.0001 0.0004 0.0763 0 220 0
0.0001 0.0003 0.0767 0 220 0
0.0039 0.0003 0.0786 0 220 0
0.0030 0.0004 0.0780 0 220 0
0.0059 0.0003 0.0791 0 220 0
0.0053 0.0003 0.0789 0 220 0
0.0052 0.0003 0.0782 0 220 0
0.0035 0.0002 0.0772 0 220 0
0.0005 0.0003 0.0762 0 220 0
-0.0025 0.0006 0.0758 0 220 0
0.0136 0.0095 0.0734 0 220 0
0.0157 0.0148 0.0709 0 220 0
0.0216 0.0180 0.0696 0 220 0
0.0179 0.0046 0.0924 0 220 0
0.0146 0.0118 0.1301 0 220 0
0.0137 0.0170 0.1525 0 220 0
0.0309 0.0335 0.1353 0 220 0
0.0208 0.0475 0.1266 0 220 0
0.0131 0.0554 0.1189 0 220 0
0.0085 0.0612 0.1186 0 220 0
0.0194 0.0929 0.1329 0 220 0
0.0277 0.1090 0.1304 0 220 0
0.0446 0.1198 0.1299 0 220 0
0.0473 0.1261 0.1297 0 220 0
0.0322 0.1294 0.1262 0 220 0
0.0292 0.1315 0.1263 0 220 0
0.0279 0.1321 0.1245 0 220 0
0.0284 0.1328 0.1246 0 220 0
0.0286 0.1332 0.1243 0 220 0
0.0284 0.1333 0.1237 0 220 0
0.0276 0.1334 0.1233 0 220 0
0.0270 0.1334 0.1231 0 220 0
0.0266 0.1329 0.1212 0 220 0
0.0440 0.1480 0.1253 0 220 0
0.0615 0.1559 0.1203 0 220 0
0.0533 0.1492 0.1311 0 220 0
0.0290 0.1366 0.1188 0 220 0
0.0492 0.1096 0.1235 0 220 0
0.0729 0.0998 0.1260 0 220 0
0.0993 0.0943 0.1152 0 220 0
0.1027 0.0916 0.1171 0 220 0
0.1038 0.0913 0.1226 0 220 0
0.1040 0.0911 0.1262 0 220 0
0.1057 0.0905 0.1259 0 220 0
0.1060 0.0892 0.1228 0 220 0
0.1065 0.0879 0.1188 0 220 0
0.0737 0.0852 0.1332 0 220 0
0.0839 0.1046 0.1356 0 220 0
0.1010 0.1380 0.1413 0 220 0
0.1179 0.1626 0.1481 0 220 0
0.1291 0.1785 0.1531 0 220 0
0.1392 0.1901 0.1583 0 220 0
0.1413 0.1946 0.1595 0 220 0
0.1364 0.1933 0.1558 0 220 0
0.1045 0.2066 0.1435 0 220 0
0.0963 0.2146 0.1271 0 220 0
0.0979 0.2193 0.1125 0 220 0
0.0973 0.2219 0.1038 0 220 0
0.0979 0.2235 0.0984 0 220 0
0.0977 0.2243 0.0948 0 220 0
0.0984 0.2254 0.0936 0 220 0
0.0990 0.2259 0.0924 0 220 0
0.0995 0.2260 0.0911 0 220 0
0.1007 0.2263 0.0904 0 220 0
0.1005 0.2265 0.0905 0 220 0
0.1012 0.2264 0.0895 0 220 0
0.0880 0.2111 0.0875 0 220 0
0.0667 0.1865 0.0946 0 220 0
0.0528 0.1645 0.1076 0 220 0
0.0465 0.1513 0.1154 0 220 0
0.0394 0.1322 0.0923 0 220 0
0.0282 0.1057 0.1182 0 220 0
0.0222 0.0917 0.1390 0 220 0
0.0187 0.0786 0.1384 0 220 0
0.0151 0.0720 0.1411 0 220 0
0.0403 0.0535 0.1214 0 220 0
0.0156 0.0377 0.1289 0 220 0
0.0178 0.0214 0.1261 0 220 0
0.0062 0.0216 0.1534 0 220 0
0.0221 0.0103 0.1358 0 220 0
0.0331 0.0047 0.1305 0 220 0
0.0195 0.0102 0.1573 0 220 0
0.0425 0.0275 0.1582 0 220 0
0.0387 0.0539 0.1537 0 220 0
0.0380 0.0915 0.1411 0 220 0
0.0455 0.1138 0.1320 0 220 0
0.0492 0.1269 0.1253 0 220 0
0.0545 0.1489 0.1295 0 220 0
0.0614 0.1786 0.1181 0 220 0
0.0682 0.1992 0.1170 0 220 0
0.0834 0.1643 0.1165 0 220 0
