ply
format ascii 1.0
element vertex 264
property float x
property float y
property float z
property uchar red
property uchar green
property uchar blue
end_header
-0.0041 0.5870 -0.0116 220 180 0
0.0615 0.5756 -0.0122 220 180 0
-0.0041 0.5873 -0.0116 220 180 0
0.0615 0.5753 -0.0121 220 180 0
-0.0041 0.5871 -0.0116 220 180 0
0.0615 0.5755 -0.0121 220 180 0
-0.0040 0.5876 -0.0117 220 180 0
0.0615 0.5750 -0.0121 220 180 0
-0.0041 0.5871 -0.0116 220 180 0
0.0615 0.5755 -0.0121 220 180 0
-0.0041 0.5869 -0.0116 220 180 0
0.0616 0.5757 -0.0121 220 180 0
-0.0042 0.5870 -0.0117 220 180 0
0.0617 0.5756 -0.0121 220 180 0
-0.0041 0.5870 -0.0116 220 180 0
0.0616 0.5756 -0.0121 220 180 0
-0.0041 0.5872 -0.0116 220 180 0
0.0616 0.5754 -0.0121 220 180 0
-0.0040 0.5872 -0.0116 220 180 0
0.0615 0.5754 -0.0121 220 180 0
-0.0041 0.5870 -0.0117 220 180 0
0.0616 0.5756 -0.0121 220 180 0
-0.0040 0.5873 -0.0116 220 180 0
0.0614 0.5753 -0.0121 220 180 0
-0.0041 0.5874 -0.0117 220 180 0
0.0616 0.5752 -0.0121 220 180 0
-0.0041 0.5874 -0.0117 220 180 0
0.0616 0.5752 -0.0121 220 180 0
-0.0042 0.5872 -0.0117 220 180 0
0.0616 0.5754 -0.0121 220 180 0
-0.0040 0.5875 -0.0117 220 180 0
0.0615 0.5751 -0.0121 220 180 0
-0.0041 0.5871 -0.0116 220 180 0
0.0615 0.5755 -0.0122 220 180 0
-0.0041 0.5872 -0.0116 220 180 0
0.0615 0.5754 -0.0121 220 180 0
-0.0042 0.5870 -0.0117 220 180 0
0.0616 0.5756 -0.0121 220 180 0
-0.0041 0.5872 -0.0117 220 180 0
0.0616 0.5754 -0.0121 220 180 0
-0.0039 0.5874 -0.0117 220 180 0
0.0614 0.5752 -0.0121 220 180 0
-0.0041 0.5871 -0.0117 220 180 0
0.0616 0.5755 -0.0121 220 180 0
-0.0041 0.5872 -0.0117 220 180 0
0.0615 0.5754 -0.0121 220 180 0
-0.0040 0.5875 -0.0117 220 180 0
0.0615 0.5751 -0.0121 220 180 0
-0.0040 0.5873 -0.0117 220 180 0
0.0615 0.5753 -0.0121 220 180 0
-0.0040 0.5872 -0.0117 220 180 0
0.0615 0.5754 -0.0121 220 180 0
-0.0041 0.5871 -0.0117 220 180 0
0.0616 0.5755 -0.0121 220 180 0
-0.0041 0.5871 -0.0117 220 180 0
0.0615 0.5755 -0.0121 220 180 0
-0.0041 0.5873 -0.0117 220 180 0
0.0615 0.5753 -0.0121 220 180 0
-0.0041 0.5871 -0.0117 220 180 0
0.0615 0.5755 -0.0121 220 180 0
-0.0041 0.5870 -0.0116 220 180 0
0.0616 0.5756 -0.0121 220 180 0
-0.0041 0.5871 -0.0116 220 180 0
0.0615 0.5755 -0.0122 220 180 0
-0.0041 0.5874 -0.0117 220 180 0
0.0615 0.5752 -0.0120 220 180 0
-0.0041 0.5873 -0.0116 220 180 0
0.0615 0.5753 -0.0121 220 180 0
-0.0041 0.5872 -0.0117 220 180 0
0.0615 0.5754 -0.0121 220 180 0
-0.0041 0.5874 -0.0117 220 180 0
0.0616 0.5752 -0.0121 220 180 0
-0.0040 0.5873 -0.0117 220 180 0
0.0615 0.5753 -0.0121 220 180 0
-0.0040 0.5874 -0.0117 220 180 0
0.0614 0.5752 -0.0121 220 180 0
-0.0041 0.5874 -0.0117 220 180 0
0.0615 0.5752 -0.0121 220 180 0
-0.0040 0.5872 -0.0117 220 180 0
0.0615 0.5754 -0.0121 220 180 0
-0.0040 0.5874 -0.0117 220 180 0
0.0615 0.5752 -0.0121 220 180 0
-0.0041 0.5872 -0.0117 220 180 0
0.0616 0.5754 -0.0121 220 180 0
-0.0041 0.5870 -0.0117 220 180 0
0.0615 0.5756 -0.0121 220 180 0
-0.0042 0.5870 -0.0117 220 180 0
0.0616 0.5756 -0.0121 220 180 0
-0.0041 0.5874 -0.0117 220 180 0
0.0615 0.5752 -0.0121 220 180 0
-0.0042 0.5870 -0.0117 220 180 0
0.0616 0.5756 -0.0121 220 180 0
-0.0041 0.5873 -0.0117 220 180 0
0.0616 0.5753 -0.0121 220 180 0
-0.0041 0.5874 -0.0117 220 180 0
0.0616 0.5752 -0.0121 220 180 0
-0.0041 0.5871 -0.0116 220 180 0
0.0615 0.5755 -0.0121 220 180 0
-0.0040 0.5875 -0.0117 220 180 0
0.0615 0.5751 -0.0121 220 180 0
-0.0040 0.5880 -0.0118 220 180 0
0.0614 0.5746 -0.0120 220 180 0
-0.0043 0.5862 -0.0121 220 180 0
0.0617 0.5764 -0.0117 220 180 0
-0.0041 0.5863 -0.0122 220 180 0
0.0615 0.5763 -0.0116 220 180 0
-0.0042 0.5859 -0.0122 220 180 0
0.0617 0.5767 -0.0116 220 180 0
-0.0041 0.5750 -0.0098 220 180 0
0.0616 0.5876 -0.0140 220 180 0
-0.0041 0.5721 -0.0094 220 180 0
0.0615 0.5905 -0.0144 220 180 0
-0.0039 0.5735 -0.0098 220 180 0
0.0614 0.5891 -0.0139 220 180 0
-0.0039 0.5702 -0.0092 220 180 0
0.0613 0.5924 -0.0146 220 180 0
-0.0041 0.5770 -0.0110 220 180 0
0.0615 0.5856 -0.0128 220 180 0
-0.0041 0.5764 -0.0109 220 180 0
0.0616 0.5862 -0.0129 220 180 0
-0.0041 0.5764 -0.0108 220 180 0
0.0616 0.5861 -0.0129 220 180 0
-0.0042 0.5712 -0.0083 220 180 0
0.0616 0.5914 -0.0154 220 180 0
-0.0040 0.5733 -0.0097 220 180 0
0.0615 0.5893 -0.0141 220 180 0
-0.0034 0.5710 -0.0089 220 180 0
0.0609 0.5916 -0.0149 220 180 0
-0.0038 0.5732 -0.0096 220 180 0
0.0613 0.5894 -0.0142 220 180 0
-0.0043 0.5767 -0.0105 220 180 0
0.0617 0.5859 -0.0132 220 180 0
-0.0042 0.5757 -0.0103 220 180 0
0.0616 0.5868 -0.0135 220 180 0
-0.0042 0.5756 -0.0102 220 180 0
0.0616 0.5870 -0.0135 220 180 0
-0.0041 0.5754 -0.0102 220 180 0
0.0616 0.5872 -0.0136 220 180 0
-0.0041 0.5755 -0.0102 220 180 0
0.0616 0.5871 -0.0136 220 180 0
-0.0041 0.5757 -0.0103 220 180 0
0.0616 0.5869 -0.0135 220 180 0
-0.0041 0.5758 -0.0103 220 180 0
0.0616 0.5868 -0.0134 220 180 0
-0.0042 0.5757 -0.0103 220 180 0
0.0616 0.5869 -0.0135 220 180 0
-0.0041 0.5761 -0.0104 220 180 0
0.0616 0.5865 -0.0134 220 180 0
-0.0035 0.5701 -0.0088 220 180 0
0.0610 0.5925 -0.0150 220 180 0
-0.0030 0.5688 -0.0086 220 180 0
0.0604 0.5938 -0.0152 220 180 0
-0.0061 0.5685 -0.0080 220 180 0
0.0635 0.5941 -0.0157 220 180 0
-0.0048 0.5801 -0.0113 220 180 0
0.0623 0.5825 -0.0125 220 180 0
-0.0044 0.5722 -0.0093 220 180 0
0.0619 0.5904 -0.0145 220 180 0
-0.0029 0.5681 -0.0084 220 180 0
0.0603 0.5945 -0.0154 220 180 0
-0.0020 0.5668 -0.0086 220 180 0
0.0595 0.5958 -0.0152 220 180 0
-0.0034 0.5729 -0.0098 220 180 0
0.0609 0.5896 -0.0139 220 180 0
-0.0034 0.5732 -0.0098 220 180 0
0.0609 0.5894 -0.0139 220 180 0
-0.0034 0.5733 -0.0099 220 180 0
0.0609 0.5893 -0.0139 220 180 0
-0.0034 0.5732 -0.0098 220 180 0
0.0609 0.5894 -0.0139 220 180 0
-0.0035 0.5735 -0.0100 220 180 0
0.0609 0.5891 -0.0138 220 180 0
-0.0035 0.5735 -0.0100 220 180 0
0.0609 0.5891 -0.0138 220 180 0
-0.0050 0.5777 -0.0104 220 180 0
0.0625 0.5849 -0.0134 220 180 0
-0.0057 0.5752 -0.0099 220 180 0
0.0631 0.5874 -0.0139 220 180 0
-0.0025 0.5698 -0.0079 220 180 0
0.0600 0.5928 -0.0159 220 180 0
-0.0019 0.5689 -0.0077 220 180 0
0.0594 0.5937 -0.0160 220 180 0
-0.0018 0.5687 -0.0076 220 180 0
0.0593 0.5939 -0.0162 220 180 0
-0.0012 0.5675 -0.0068 220 180 0
0.0587 0.5951 -0.0169 220 180 0
-0.0019 0.5689 -0.0076 220 180 0
0.0593 0.5937 -0.0162 220 180 0
-0.0027 0.5707 -0.0086 220 180 0
0.0601 0.5919 -0.0152 220 180 0
-0.0043 0.5751 -0.0098 220 180 0
0.0618 0.5875 -0.0139 220 180 0
-0.0034 0.5728 -0.0097 220 180 0
0.0609 0.5898 -0.0140 220 180 0
-0.0030 0.5711 -0.0093 220 180 0
0.0604 0.5915 -0.0145 220 180 0
-0.0031 0.5716 -0.0093 220 180 0
0.0606 0.5910 -0.0145 220 180 0
-0.0030 0.5711 -0.0092 220 180 0
0.0605 0.5914 -0.0146 220 180 0
-0.0031 0.5715 -0.0093 220 180 0
0.0605 0.5911 -0.0145 220 180 0
-0.0030 0.5712 -0.0092 220 180 0
0.0604 0.5914 -0.0146 220 180 0
-0.0030 0.5712 -0.0092 220 180 0
0.0604 0.5914 -0.0145 220 180 0
-0.0030 0.5712 -0.0092 220 180 0
0.0604 0.5914 -0.0145 220 180 0
-0.0029 0.5708 -0.0092 220 180 0
0.0603 0.5918 -0.0146 220 180 0
-0.0030 0.5713 -0.0093 220 180 0
0.0604 0.5913 -0.0145 220 180 0
-0.0029 0.5708 -0.0092 220 180 0
0.0603 0.5918 -0.0146 220 180 0
-0.0048 0.5767 -0.0105 220 180 0
0.0622 0.5859 -0.0133 220 180 0
-0.0047 0.5811 -0.0118 220 180 0
0.0621 0.5815 -0.0120 220 180 0
-0.0040 0.5759 -0.0104 220 180 0
0.0615 0.5867 -0.0134 220 180 0
-0.0039 0.5749 -0.0104 220 180 0
0.0614 0.5877 -0.0134 220 180 0
-0.0043 0.5806 -0.0116 220 180 0
0.0617 0.5820 -0.0122 220 180 0
-0.0045 0.5720 -0.0092 220 180 0
0.0620 0.5906 -0.0146 220 180 0
-0.0045 0.5720 -0.0092 220 180 0
0.0619 0.5906 -0.0146 220 180 0
-0.0045 0.5720 -0.0094 220 180 0
0.0620 0.5906 -0.0144 220 180 0
-0.0045 0.5719 -0.0093 220 180 0
0.0619 0.5907 -0.0145 220 180 0
-0.0044 0.5705 -0.0097 220 180 0
0.0619 0.5921 -0.0141 220 180 0
-0.0054 0.5775 -0.0105 220 180 0
0.0629 0.5851 -0.0133 220 180 0
-0.0042 0.5698 -0.0087 220 180 0
0.0616 0.5928 -0.0151 220 180 0
-0.0044 0.5719 -0.0088 220 180 0
0.0619 0.5907 -0.0150 220 180 0
-0.0037 0.5676 -0.0085 220 180 0
0.0611 0.5950 -0.0152 220 180 0
-0.0036 0.5675 -0.0083 220 180 0
0.0610 0.5951 -0.0155 220 180 0
-0.0047 0.5706 -0.0084 220 180 0
0.0621 0.5920 -0.0153 220 180 0
-0.0041 0.5713 -0.0090 220 180 0
0.0616 0.5912 -0.0148 220 180 0
-0.0049 0.5741 -0.0097 220 180 0
0.0624 0.5885 -0.0141 220 180 0
-0.0043 0.5740 -0.0098 220 180 0
0.0618 0.5886 -0.0140 220 180 0
-0.0039 0.5715 -0.0090 220 180 0
0.0613 0.5911 -0.0148 220 180 0
-0.0038 0.5715 -0.0091 220 180 0
0.0613 0.5911 -0.0147 220 180 0
-0.0049 0.5746 -0.0099 220 180 0
0.0623 0.5880 -0.0139 220 180 0
-0.0041 0.5756 -0.0101 220 180 0
0.0615 0.5870 -0.0137 220 180 0
-0.0039 0.5755 -0.0104 220 180 0
0.0614 0.5871 -0.0134 220 180 0
-0.0035 0.5704 -0.0090 220 180 0
0.0610 0.5922 -0.0148 220 180 0
