ply
format ascii 1.0
element vertex 146
property float x
property float y
property float z
property uchar red
property uchar green
property uchar blue
end_header
-0.0041 0.5870 -0.0116 0 200 200
-0.0041 0.5873 -0.0116 0 200 200
-0.0041 0.5871 -0.0116 0 200 200
-0.0040 0.5876 -0.0117 0 200 200
-0.0041 0.5871 -0.0116 0 200 200
-0.0041 0.5869 -0.0116 0 200 200
-0.0042 0.5870 -0.0117 0 200 200
-0.0041 0.5870 -0.0116 0 200 200
-0.0041 0.5872 -0.0116 0 200 200
-0.0040 0.5872 -0.0116 0 200 200
-0.0041 0.5870 -0.0117 0 200 200
-0.0040 0.5873 -0.0116 0 200 200
-0.0041 0.5874 -0.0117 0 200 200
-0.0041 0.5874 -0.0117 0 200 200
-0.0042 0.5872 -0.0117 0 200 200
-0.0040 0.5875 -0.0117 0 200 200
-0.0041 0.5871 -0.0116 0 200 200
-0.0041 0.5872 -0.0116 0 200 200
-0.0042 0.5870 -0.0117 0 200 200
-0.0041 0.5872 -0.0117 0 200 200
-0.0039 0.5874 -0.0117 0 200 200
-0.0041 0.5871 -0.0117 0 200 200
-0.0041 0.5872 -0.0117 0 200 200
-0.0040 0.5875 -0.0117 0 200 200
-0.0040 0.5873 -0.0117 0 200 200
-0.0040 0.5872 -0.0117 0 200 200
-0.0041 0.5871 -0.0117 0 200 200
-0.0041 0.5871 -0.0117 0 200 200
-0.0041 0.5873 -0.0117 0 200 200
-0.0041 0.5871 -0.0117 0 200 200
-0.0041 0.5870 -0.0116 0 200 200
-0.0041 0.5871 -0.0116 0 200 200
-0.0041 0.5874 -0.0117 0 200 200
-0.0041 0.5873 -0.0116 0 200 200
-0.0041 0.5872 -0.0117 0 200 200
-0.0041 0.5874 -0.0117 0 200 200
-0.0040 0.5873 -0.0117 0 200 200
-0.0040 0.5874 -0.0117 0 200 200
-0.0041 0.5874 -0.0117 0 200 200
-0.0040 0.5872 -0.0117 0 200 200
-0.0040 0.5874 -0.0117 0 200 200
-0.0041 0.5872 -0.0117 0 200 200
-0.0041 0.5870 -0.0117 0 200 200
-0.0042 0.5870 -0.0117 0 200 200
-0.0041 0.5874 -0.0117 0 200 200
-0.0042 0.5870 -0.0117 0 200 200
-0.0041 0.5873 -0.0117 0 200 200
-0.0041 0.5874 -0.0117 0 200 200
-0.0041 0.5871 -0.0116 0 200 200
-0.0040 0.5875 -0.0117 0 200 200
-0.0040 0.5880 -0.0118 0 200 200
-0.0043 0.5862 -0.0121 0 200 200
-0.0041 0.5863 -0.0122 0 200 200
-0.0042 0.5859 -0.0122 0 200 200
-0.0029 0.6063 -0.0360 0 200 200
-0.0202 0.6187 -0.0208 0 200 200
-0.0656 0.5747 -0.0037 0 200 200
-0.0069 0.6716 -0.0077 0 200 200
-0.0169 0.6099 -0.0179 0 200 200
0.0393 0.6717 -0.0378 0 200 200
0.0387 0.6779 -0.0391 0 200 200
-0.0367 0.4931 0.0086 0 200 200
0.2467 0.5167 -0.0116 0 200 200
0.0155 0.5117 0.0083 0 200 200
-0.0041 0.5750 -0.0098 0 200 200
-0.0041 0.5721 -0.0094 0 200 200
-0.0039 0.5735 -0.0098 0 200 200
-0.0054 0.5935 -0.0186 0 200 200
-0.0039 0.5702 -0.0092 0 200 200
-0.0041 0.5770 -0.0110 0 200 200
-0.0041 0.5764 -0.0109 0 200 200
-0.0041 0.5764 -0.0108 0 200 200
-0.0042 0.5712 -0.0083 0 200 200
-0.0040 0.5733 -0.0097 0 200 200
-0.0034 0.5710 -0.0089 0 200 200
-0.0038 0.5732 -0.0096 0 200 200
-0.0043 0.5767 -0.0105 0 200 200
-0.0042 0.5757 -0.0103 0 200 200
-0.0042 0.5756 -0.0102 0 200 200
-0.0041 0.5754 -0.0102 0 200 200
-0.0041 0.5755 -0.0102 0 200 200
-0.0041 0.5757 -0.0103 0 200 200
-0.0041 0.5758 -0.0103 0 200 200
-0.0042 0.5757 -0.0103 0 200 200
-0.0041 0.5761 -0.0104 0 200 200
-0.0151 0.5489 -0.0004 0 200 200
-0.0035 0.5701 -0.0088 0 200 200
-0.0030 0.5688 -0.0086 0 200 200
-0.0061 0.5685 -0.0080 0 200 200
-0.0048 0.5801 -0.0113 0 200 200
-0.0044 0.5722 -0.0093 0 200 200
-0.0029 0.5681 -0.0084 0 200 200
-0.0020 0.5668 -0.0086 0 200 200
-0.0034 0.5729 -0.0098 0 200 200
-0.0034 0.5732 -0.0098 0 200 200
-0.0034 0.5733 -0.0099 0 200 200
-0.0034 0.5732 -0.0098 0 200 200
-0.0035 0.5735 -0.0100 0 200 200
-0.0035 0.5735 -0.0100 0 200 200
-0.0050 0.5777 -0.0104 0 200 200
-0.0057 0.5752 -0.0099 0 200 200
-0.0025 0.5698 -0.0079 0 200 200
-0.0019 0.5689 -0.0077 0 200 200
-0.0018 0.5687 -0.0076 0 200 200
-0.0012 0.5675 -0.0068 0 200 200
-0.0019 0.5689 -0.0076 0 200 200
-0.0027 0.5707 -0.0086 0 200 200
-0.0043 0.5751 -0.0098 0 200 200
-0.0034 0.5728 -0.0097 0 200 200
-0.0030 0.5711 -0.0093 0 200 200
-0.0031 0.5716 -0.0093 0 200 200
-0.0030 0.5711 -0.0092 0 200 200
-0.0031 0.5715 -0.0093 0 200 200
-0.0030 0.5712 -0.0092 0 200 200
-0.0030 0.5712 -0.0092 0 200 200
-0.0030 0.5712 -0.0092 0 200 200
-0.0029 0.5708 -0.0092 0 200 200
-0.0030 0.5713 -0.0093 0 200 200
-0.0029 0.5708 -0.0092 0 200 200
-0.0085 0.5871 -0.0132 0 200 200
-0.0048 0.5767 -0.0105 0 200 200
-0.0047 0.5811 -0.0118 0 200 200
-0.0040 0.5759 -0.0104 0 200 200
-0.0039 0.5749 -0.0104 0 200 200
-0.0043 0.5806 -0.0116 0 200 200
-0.0045 0.5720 -0.0092 0 200 200
-0.0045 0.5720 -0.0092 0 200 200
-0.0045 0.5720 -0.0094 0 200 200
-0.0045 0.5719 -0.0093 0 200 200
-0.0044 0.5705 -0.0097 0 200 200
-0.0054 0.5775 -0.0105 0 200 200
-0.0042 0.5698 -0.0087 0 200 200
-0.0044 0.5719 -0.0088 0 200 200
-0.0037 0.5676 -0.0085 0 200 200
-0.0036 0.5675 -0.0083 0 200 200
-0.0047 0.5706 -0.0084 0 200 200
-0.0041 0.5713 -0.0090 0 200 200
-0.0049 0.5741 -0.0097 0 200 200
-0.0043 0.5740 -0.0098 0 200 200
-0.0039 0.5715 -0.0090 0 200 200
-0.0038 0.5715 -0.0091 0 200 200
-0.0049 0.5746 -0.0099 0 200 200
-0.0041 0.5756 -0.0101 0 200 200
-0.0039 0.5755 -0.0104 0 200 200
-0.0114 0.6018 -0.0178 0 200 200
-0.0035 0.5704 -0.0090 0 200 200
