ply
format ascii 1.0
element vertex 141
property float x
property float y
property float z
property uchar red
property uchar green
property uchar blue
end_header
0.0615 0.5756 -0.0122 200 0 200
0.0615 0.5753 -0.0121 200 0 200
0.0615 0.5755 -0.0121 200 0 200
0.0615 0.5750 -0.0121 200 0 200
0.0615 0.5755 -0.0121 200 0 200
0.0616 0.5757 -0.0121 200 0 200
0.0617 0.5756 -0.0121 200 0 200
0.0616 0.5756 -0.0121 200 0 200
0.0616 0.5754 -0.0121 200 0 200
0.0615 0.5754 -0.0121 200 0 200
0.0616 0.5756 -0.0121 200 0 200
0.0614 0.5753 -0.0121 200 0 200
0.0616 0.5752 -0.0121 200 0 200
0.0616 0.5752 -0.0121 200 0 200
0.0616 0.5754 -0.0121 200 0 200
0.0615 0.5751 -0.0121 200 0 200
0.0615 0.5755 -0.0122 200 0 200
0.0615 0.5754 -0.0121 200 0 200
0.0616 0.5756 -0.0121 200 0 200
0.0616 0.5754 -0.0121 200 0 200
0.0614 0.5752 -0.0121 200 0 200
0.0616 0.5755 -0.0121 200 0 200
0.0615 0.5754 -0.0121 200 0 200
0.0615 0.5751 -0.0121 200 0 200
0.0615 0.5753 -0.0121 200 0 200
0.0615 0.5754 -0.0121 200 0 200
0.0616 0.5755 -0.0121 200 0 200
0.0615 0.5755 -0.0121 200 0 200
0.0615 0.5753 -0.0121 200 0 200
0.0615 0.5755 -0.0121 200 0 200
0.0616 0.5756 -0.0121 200 0 200
0.0615 0.5755 -0.0122 200 0 200
0.0615 0.5752 -0.0120 200 0 200
0.0615 0.5753 -0.0121 200 0 200
0.0615 0.5754 -0.0121 200 0 200
0.0616 0.5752 -0.0121 200 0 200
0.0615 0.5753 -0.0121 200 0 200
0.0614 0.5752 -0.0121 200 0 200
0.0615 0.5752 -0.0121 200 0 200
0.0615 0.5754 -0.0121 200 0 200
0.0615 0.5752 -0.0121 200 0 200
0.0616 0.5754 -0.0121 200 0 200
0.0615 0.5756 -0.0121 200 0 200
0.0616 0.5756 -0.0121 200 0 200
0.0615 0.5752 -0.0121 200 0 200
0.0616 0.5756 -0.0121 200 0 200
0.0616 0.5753 -0.0121 200 0 200
0.0616 0.5752 -0.0121 200 0 200
0.0615 0.5755 -0.0121 200 0 200
0.0615 0.5751 -0.0121 200 0 200
0.0614 0.5746 -0.0120 200 0 200
0.0531 0.6039 -0.0234 200 0 200
0.0617 0.5764 -0.0117 200 0 200
0.0615 0.5763 -0.0116 200 0 200
0.0617 0.5767 -0.0116 200 0 200
-0.1731 0.8044 -0.0807 200 0 200
0.0613 0.6748 -0.0091 200 0 200
0.0616 0.5876 -0.0140 200 0 200
0.0615 0.5905 -0.0144 200 0 200
0.0614 0.5891 -0.0139 200 0 200
0.0613 0.5924 -0.0146 200 0 200
0.0615 0.5856 -0.0128 200 0 200
0.0616 0.5862 -0.0129 200 0 200
0.0616 0.5861 -0.0129 200 0 200
0.0616 0.5914 -0.0154 200 0 200
0.0615 0.5893 -0.0141 200 0 200
0.0609 0.5916 -0.0149 200 0 200
0.0613 0.5894 -0.0142 200 0 200
0.0617 0.5859 -0.0132 200 0 200
0.0616 0.5868 -0.0135 200 0 200
0.0616 0.5870 -0.0135 200 0 200
0.0616 0.5872 -0.0136 200 0 200
0.0616 0.5871 -0.0136 200 0 200
0.0616 0.5869 -0.0135 200 0 200
0.0616 0.5868 -0.0134 200 0 200
0.0616 0.5869 -0.0135 200 0 200
0.0616 0.5865 -0.0134 200 0 200
0.0610 0.5925 -0.0150 200 0 200
0.0604 0.5938 -0.0152 200 0 200
0.0635 0.5941 -0.0157 200 0 200
0.0623 0.5825 -0.0125 200 0 200
0.0619 0.5904 -0.0145 200 0 200
0.0824 0.6472 -0.0286 200 0 200
0.0603 0.5945 -0.0154 200 0 200
0.0595 0.5958 -0.0152 200 0 200
0.0609 0.5896 -0.0139 200 0 200
0.0609 0.5894 -0.0139 200 0 200
0.0609 0.5893 -0.0139 200 0 200
0.0609 0.5894 -0.0139 200 0 200
0.0609 0.5891 -0.0138 200 0 200
0.0609 0.5891 -0.0138 200 0 200
0.0625 0.5849 -0.0134 200 0 200
0.0486 0.5623 -0.0088 200 0 200
0.0631 0.5874 -0.0139 200 0 200
0.0562 0.5509 0.0032 200 0 200
0.0600 0.5928 -0.0159 200 0 200
0.0594 0.5937 -0.0160 200 0 200
0.0593 0.5939 -0.0162 200 0 200
0.0587 0.5951 -0.0169 200 0 200
0.0593 0.5937 -0.0162 200 0 200
0.0601 0.5919 -0.0152 200 0 200
0.0618 0.5875 -0.0139 200 0 200
0.0609 0.5898 -0.0140 200 0 200
0.0604 0.5915 -0.0145 200 0 200
0.0606 0.5910 -0.0145 200 0 200
0.0605 0.5914 -0.0146 200 0 200
0.0605 0.5911 -0.0145 200 0 200
0.0604 0.5914 -0.0146 200 0 200
0.0604 0.5914 -0.0145 200 0 200
0.0604 0.5914 -0.0145 200 0 200
0.0603 0.5918 -0.0146 200 0 200
0.0604 0.5913 -0.0145 200 0 200
0.0603 0.5918 -0.0146 200 0 200
0.0622 0.5859 -0.0133 200 0 200
0.0621 0.5815 -0.0120 200 0 200
0.0810 0.6426 -0.0541 200 0 200
0.0615 0.5867 -0.0134 200 0 200
0.0614 0.5877 -0.0134 200 0 200
0.0617 0.5820 -0.0122 200 0 200
0.0620 0.5906 -0.0146 200 0 200
0.0619 0.5906 -0.0146 200 0 200
0.0620 0.5906 -0.0144 200 0 200
0.0619 0.5907 -0.0145 200 0 200
0.0619 0.5921 -0.0141 200 0 200
0.0629 0.5851 -0.0133 200 0 200
0.0616 0.5928 -0.0151 200 0 200
0.0619 0.5907 -0.0150 200 0 200
0.0611 0.5950 -0.0152 200 0 200
0.0610 0.5951 -0.0155 200 0 200
0.0621 0.5920 -0.0153 200 0 200
0.0564 0.5915 -0.0130 200 0 200
0.0616 0.5912 -0.0148 200 0 200
0.0624 0.5885 -0.0141 200 0 200
0.0618 0.5886 -0.0140 200 0 200
0.0613 0.5911 -0.0148 200 0 200
0.0613 0.5911 -0.0147 200 0 200
0.0623 0.5880 -0.0139 200 0 200
0.0535 0.5690 -0.0065 200 0 200
0.0615 0.5870 -0.0137 200 0 200
0.0614 0.5871 -0.0134 200 0 200
0.0610 0.5922 -0.0148 200 0 200
