ply
format ascii 1.0
element vertex 135
property float x
property float y
property float z
property uchar red
property uchar green
property uchar blue
end_header
0.0000 0.0000 0.0750 0 220 0
-0.4622 0.1567 0.2846 0 220 0
-0.4769 0.1595 0.2645 0 220 0
0.0334 -0.0008 0.0696 0 220 0
-0.5670 0.2077 0.2472 0 220 0
-0.5556 0.1956 0.2301 0 220 0
-0.0833 0.0037 0.0668 0 220 0
-0.0194 -0.0007 0.0526 0 220 0
0.0268 -0.0011 0.0580 0 220 0
-0.4640 0.1556 0.2822 0 220 0
-0.0146 -0.0009 0.0601 0 220 0
0.0327 0.0009 0.0785 0 220 0
-0.4407 0.1494 0.2970 0 220 0
-0.4607 0.1550 0.2809 0 220 0
0.0130 -0.0013 0.0512 0 220 0
0.0334 0.0001 0.0717 0 220 0
-0.0526 0.0010 0.0654 0 220 0
-0.0735 0.5981 0.2480 0 220 0
-0.2664 0.6301 0.0495 0 220 0
0.0040 0.5358 -0.0128 0 220 0
0.0132 0.7107 -0.1116 0 220 0
-0.1546 0.8215 0.1355 0 220 0
-0.0724 0.7877 0.0277 0 220 0
0.1365 0.8216 0.0373 0 220 0
-0.1059 0.9066 0.0797 0 220 0
0.0315 1.1804 0.0601 0 220 0
0.0053 1.2212 -0.0002 0 220 0
0.0057 1.2199 0.0005 0 220 0
0.0158 1.2140 -0.0018 0 220 0
0.0158 1.2139 -0.0022 0 220 0
0.0176 1.2132 -0.0013 0 220 0
0.0174 1.2131 -0.0028 0 220 0
0.0423 1.1984 0.0110 0 220 0
0.0093 1.2499 -0.0099 0 220 0
0.0263 1.2772 -0.0111 0 220 0
0.0309 1.3164 -0.0261 0 220 0
0.0422 1.3218 -0.0144 0 220 0
0.0423 1.3213 -0.0147 0 220 0
0.0414 1.3219 -0.0156 0 220 0
0.0406 1.3226 -0.0151 0 220 0
0.0399 1.3230 -0.0150 0 220 0
0.0405 1.3227 -0.0150 0 220 0
0.0400 1.3232 -0.0138 0 220 0
0.0389 1.3238 -0.0141 0 220 0
0.0400 1.3230 -0.0148 0 220 0
0.0322 1.3144 -0.0109 0 220 0
-0.0242 1.3256 -0.0451 0 220 0
0.0079 1.1053 -0.0078 0 220 0
0.0046 1.1142 -0.0038 0 220 0
-0.0033 1.1171 -0.0296 0 220 0
0.0028 1.1146 -0.0235 0 220 0
0.0183 1.1592 0.1186 0 220 0
0.0287 1.1545 0.0121 0 220 0
0.0170 1.2199 -0.0052 0 220 0
-0.0135 1.2703 -0.0166 0 220 0
0.0462 1.0775 0.0787 0 220 0
0.1191 1.0826 0.0237 0 220 0
0.1167 1.0810 0.0126 0 220 0
0.1079 1.0820 0.0178 0 220 0
0.1181 1.0818 0.0166 0 220 0
0.1178 1.1030 0.0089 0 220 0
0.1232 1.1403 0.0085 0 220 0
0.1259 1.1659 -0.0045 0 220 0
0.1092 1.1956 -0.0128 0 220 0
0.1231 1.2431 -0.0104 0 220 0
0.1366 1.2763 -0.0227 0 220 0
0.1181 1.3161 -0.0334 0 220 0
0.1710 1.3426 -0.0337 0 220 0
0.1408 1.3553 -0.0237 0 220 0
0.1408 1.3585 -0.0240 0 220 0
0.1404 1.3579 -0.0250 0 220 0
0.1399 1.3517 -0.0253 0 220 0
0.1378 1.3402 -0.0237 0 220 0
0.1625 1.3199 -0.0089 0 220 0
0.0693 1.3246 -0.0162 0 220 0
0.1256 1.3632 -0.0249 0 220 0
0.1182 1.3608 -0.0230 0 220 0
0.1205 1.3614 -0.0234 0 220 0
0.1203 1.3613 -0.0238 0 220 0
0.1230 1.3514 -0.0153 0 220 0
0.1328 1.3114 -0.0405 0 220 0
0.1751 1.2968 -0.0147 0 220 0
-0.5759 0.3250 0.1953 0 220 0
-0.4013 0.2000 0.1622 0 220 0
-0.5206 0.2770 0.1888 0 220 0
-0.5296 0.2793 0.1814 0 220 0
-0.5122 0.2684 0.1827 0 220 0
-0.5303 0.2806 0.1848 0 220 0
-0.5153 0.2695 0.1813 0 220 0
-0.5152 0.2686 0.1775 0 220 0
0.0697 0.0929 -0.0832 0 220 0
-0.5160 0.2680 0.1692 0 220 0
-0.5149 0.2695 0.1758 0 220 0
0.0607 0.0939 -0.0904 0 220 0
-0.5196 0.2734 0.1782 0 220 0
-0.5026 0.2595 0.1676 0 220 0
-0.5048 0.2619 0.1752 0 220 0
-0.5011 0.2579 0.1674 0 220 0
-0.5096 0.2643 0.1750 0 220 0
-0.4544 0.2326 0.1763 0 220 0
-0.4719 0.2429 0.1842 0 220 0
-0.0861 0.1012 -0.1176 0 220 0
-0.4663 0.2346 0.1646 0 220 0
-0.4758 0.2412 0.1666 0 220 0
-0.4841 0.2474 0.1680 0 220 0
-0.5043 0.2626 0.1777 0 220 0
-0.1934 0.1139 0.0545 0 220 0
-0.4856 0.2483 0.1714 0 220 0
-0.4992 0.2597 0.1802 0 220 0
-0.4616 0.2321 0.1650 0 220 0
-0.4766 0.2426 0.1712 0 220 0
-0.4945 0.2550 0.1783 0 220 0
-0.4584 0.2307 0.1641 0 220 0
-0.4110 0.2025 0.1519 0 220 0
-0.4631 0.2347 0.1676 0 220 0
-0.3750 0.1846 0.1529 0 220 0
-0.4770 0.2470 0.1985 0 220 0
-0.4369 0.2197 0.1782 0 220 0
-0.0734 0.0999 -0.1176 0 220 0
-0.4136 0.2067 0.1656 0 220 0
-0.4638 0.2332 0.1672 0 220 0
-0.1791 0.1111 0.0444 0 220 0
-0.0787 0.1008 -0.1191 0 220 0
-0.1599 0.1060 0.0373 0 220 0
-0.4344 0.2177 0.1685 0 220 0
-0.4357 0.2187 0.1636 0 220 0
-0.1081 0.1041 -0.1167 0 220 0
-0.0960 0.1012 -0.1144 0 220 0
-0.2093 0.1185 0.0576 0 220 0
-0.1835 0.1108 0.0440 0 220 0
-0.2168 0.1190 0.0559 0 220 0
-0.1894 0.1129 0.0489 0 220 0
-0.2319 0.1235 0.0636 0 220 0
-0.2270 0.1220 0.0649 0 220 0
-0.2323 0.1241 0.0662 0 220 0
