ply
format ascii 1.0
element vertex 22
property float x
property float y
property float z
property uchar red
property uchar green
property uchar blue
end_header
0.0222 -0.0188 0.0772 0 220 0
0.0290 -0.0145 0.0790 0 220 0
0.0336 -0.0116 0.0804 0 220 0
0.0363 -0.0098 0.0812 0 220 0
0.0377 -0.0088 0.0819 0 220 0
0.0394 -0.0080 0.0821 0 220 0
0.0402 -0.0077 0.0821 0 220 0
0.0400 -0.0075 0.0824 0 220 0
0.0399 0.0059 0.0791 0 220 0
0.0465 0.0293 0.0787 0 220 0
0.0445 0.0415 0.0742 0 220 0
0.0522 0.0546 0.0780 0 220 0
0.0468 0.0566 0.0734 0 220 0
0.0434 0.0576 0.0702 0 220 0
0.0413 0.0581 0.0682 0 220 0
0.0400 0.0585 0.0670 0 220 0
0.0385 0.0554 0.0699 0 220 0
0.0407 0.0376 0.0684 0 220 0
0.0497 0.0083 0.0707 0 220 0
0.0463 0.0328 0.0726 0 220 0
0.0543 0.0316 0.0793 0 220 0
0.0660 -0.0029 0.0760 0 220 0
