ply
format ascii 1.0
element vertex 44
property float x
property float y
property float z
property uchar red
property uchar green
property uchar blue
end_header
-0.0617 0.2649 0.0156 220 180 0
0.0006 0.2886 0.0125 220 180 0
-0.0613 0.2649 0.0156 220 180 0
0.0003 0.2887 0.0126 220 180 0
-0.0613 0.2648 0.0156 220 180 0
0.0002 0.2888 0.0125 220 180 0
-0.0612 0.2648 0.0156 220 180 0
0.0002 0.2888 0.0125 220 180 0
-0.0613 0.2650 0.0156 220 180 0
0.0002 0.2886 0.0126 220 180 0
-0.0611 0.2646 0.0156 220 180 0
0.0001 0.2890 0.0125 220 180 0
-0.0612 0.2647 0.0156 220 180 0
0.0001 0.2889 0.0126 220 180 0
-0.0613 0.2649 0.0156 220 180 0
0.0002 0.2886 0.0126 220 180 0
-0.0617 0.2657 0.0154 220 180 0
0.0007 0.2879 0.0127 220 180 0
-0.0597 0.2597 0.0170 220 180 0
-0.0014 0.2938 0.0112 220 180 0
-0.0609 0.2634 0.0160 220 180 0
-0.0001 0.2901 0.0122 220 180 0
-0.0593 0.2604 0.0162 220 180 0
-0.0018 0.2931 0.0119 220 180 0
-0.0611 0.2640 0.0159 220 180 0
0.0000 0.2896 0.0122 220 180 0
-0.0611 0.2640 0.0159 220 180 0
0.0000 0.2895 0.0123 220 180 0
-0.0611 0.2641 0.0159 220 180 0
0.0001 0.2895 0.0123 220 180 0
-0.0611 0.2641 0.0159 220 180 0
0.0001 0.2895 0.0123 220 180 0
-0.0613 0.2647 0.0157 220 180 0
0.0002 0.2888 0.0124 220 180 0
-0.0610 0.2633 0.0159 220 180 0
-0.0001 0.2903 0.0123 220 180 0
-0.0606 0.2614 0.0161 220 180 0
-0.0004 0.2922 0.0120 220 180 0
-0.0610 0.2643 0.0160 220 180 0
-0.0000 0.2892 0.0122 220 180 0
-0.0610 0.2639 0.0161 220 180 0
-0.0001 0.2897 0.0120 220 180 0
-0.0613 0.2652 0.0157 220 180 0
0.0003 0.2883 0.0125 220 180 0
