ply
format ascii 1.0
element vertex 14
property float x
property float y
property float z
property uchar red
property uchar green
property uchar blue
end_header
-0.0614 0.2646 0.0158 220 180 0
0.0003 0.2889 0.0123 220 180 0
-0.0615 0.2654 0.0156 220 180 0
0.0004 0.2881 0.0126 220 180 0
-0.0623 0.2679 0.0149 220 180 0
0.0012 0.2856 0.0132 220 180 0
-0.0616 0.2649 0.0157 220 180 0
0.0006 0.2887 0.0125 220 180 0
-0.0621 0.2668 0.0154 220 180 0
0.0010 0.2867 0.0127 220 180 0
-0.0618 0.2644 0.0157 220 180 0
0.0007 0.2891 0.0124 220 180 0
-0.0606 0.2571 0.0173 220 180 0
-0.0004 0.2965 0.0108 220 180 0
