ply
format ascii 1.0
element vertex 22
property float x
property float y
property float z
property uchar red
property uchar green
property uchar blue
end_header
-0.0617 0.2649 0.0156 0 200 200
-0.0613 0.2649 0.0156 0 200 200
-0.0613 0.2648 0.0156 0 200 200
-0.0612 0.2648 0.0156 0 200 200
-0.0613 0.2650 0.0156 0 200 200
-0.0611 0.2646 0.0156 0 200 200
-0.0612 0.2647 0.0156 0 200 200
-0.0613 0.2649 0.0156 0 200 200
-0.0617 0.2657 0.0154 0 200 200
-0.0597 0.2597 0.0170 0 200 200
-0.0609 0.2634 0.0160 0 200 200
-0.0593 0.2604 0.0162 0 200 200
-0.0611 0.2640 0.0159 0 200 200
-0.0611 0.2640 0.0159 0 200 200
-0.0611 0.2641 0.0159 0 200 200
-0.0611 0.2641 0.0159 0 200 200
-0.0613 0.2647 0.0157 0 200 200
-0.0610 0.2633 0.0159 0 200 200
-0.0606 0.2614 0.0161 0 200 200
-0.0610 0.2643 0.0160 0 200 200
-0.0610 0.2639 0.0161 0 200 200
-0.0613 0.2652 0.0157 0 200 200
