ply
format ascii 1.0
element vertex 215
property float x
property float y
property float z
property uchar red
property uchar green
property uchar blue
end_header
0.2009 1.2469 -0.1176 200 0 200
0.2059 1.2828 -0.1232 200 0 200
0.2060 1.2832 -0.1233 200 0 200
0.2045 1.2718 -0.1215 200 0 200
0.2045 1.2722 -0.1215 200 0 200
0.2058 1.2820 -0.1232 200 0 200
0.2047 1.2732 -0.1217 200 0 200
0.2047 1.2731 -0.1217 200 0 200
0.2050 1.2752 -0.1221 200 0 200
0.2053 1.2776 -0.1224 200 0 200
0.2011 1.2480 -0.1178 200 0 200
0.2013 1.2494 -0.1180 200 0 200
0.2054 1.2784 -0.1226 200 0 200
0.2061 1.2842 -0.1235 200 0 200
0.2046 1.2727 -0.1217 200 0 200
0.2043 1.2703 -0.1212 200 0 200
0.2047 1.2733 -0.1218 200 0 200
0.0150 1.0535 -0.0794 200 0 200
0.0157 1.0035 -0.0705 200 0 200
0.0157 1.0015 -0.0702 200 0 200
0.0157 1.0053 -0.0709 200 0 200
0.0156 1.0078 -0.0713 200 0 200
0.0157 1.0061 -0.0710 200 0 200
0.0156 1.0089 -0.0715 200 0 200
-0.0023 0.9731 -0.0720 200 0 200
-0.0099 0.9101 -0.0560 200 0 200
-0.0244 0.9064 -0.0583 200 0 200
-0.0237 0.8842 -0.0522 200 0 200
-0.0232 0.8684 -0.0498 200 0 200
-0.0242 0.8910 -0.0532 200 0 200
-0.0640 0.8196 -0.0453 200 0 200
-0.0754 0.7692 -0.0345 200 0 200
-0.0788 0.7458 -0.0232 200 0 200
-0.0768 0.7322 -0.0256 200 0 200
-0.0752 0.7196 -0.0250 200 0 200
-0.0750 0.7188 -0.0253 200 0 200
-0.0798 0.7477 -0.0311 200 0 200
-0.0992 0.6520 -0.0194 200 0 200
-0.1018 0.6223 -0.0168 200 0 200
-0.1026 0.6288 -0.0180 200 0 200
-0.1022 0.6269 -0.0177 200 0 200
-0.1139 0.5891 -0.0219 200 0 200
-0.1333 0.5035 -0.0049 200 0 200
-0.1306 0.4875 -0.0076 200 0 200
-0.1314 0.4909 -0.0076 200 0 200
-0.1309 0.4871 -0.0060 200 0 200
-0.1332 0.4958 -0.0075 200 0 200
-0.1330 0.4951 -0.0074 200 0 200
-0.1398 0.4581 -0.0064 200 0 200
-0.1539 0.3695 0.0068 200 0 200
0.0006 0.2886 0.0125 200 0 200
0.0003 0.2887 0.0126 200 0 200
0.0002 0.2888 0.0125 200 0 200
0.0002 0.2888 0.0125 200 0 200
0.0002 0.2886 0.0126 200 0 200
0.0001 0.2890 0.0125 200 0 200
0.0001 0.2889 0.0126 200 0 200
0.0002 0.2886 0.0126 200 0 200
0.0007 0.2879 0.0127 200 0 200
-0.0014 0.2938 0.0112 200 0 200
-0.0001 0.2901 0.0122 200 0 200
-0.0018 0.2931 0.0119 200 0 200
0.0000 0.2896 0.0122 200 0 200
0.0000 0.2895 0.0123 200 0 200
0.0001 0.2895 0.0123 200 0 200
0.0001 0.2895 0.0123 200 0 200
0.0002 0.2888 0.0124 200 0 200
-0.0001 0.2903 0.0123 200 0 200
-0.0004 0.2922 0.0120 200 0 200
-0.0004 0.3344 0.0079 200 0 200
0.0006 0.3882 0.0022 200 0 200
0.0002 0.4566 -0.0034 200 0 200
0.0074 0.5327 -0.0094 200 0 200
0.0093 0.5147 -0.0075 200 0 200
0.0098 0.5095 -0.0065 200 0 200
0.0025 0.5259 -0.0077 200 0 200
-0.0040 0.5702 -0.0120 200 0 200
0.0040 0.5940 -0.0189 200 0 200
0.0052 0.5700 -0.0161 200 0 200
0.0036 0.5858 -0.0185 200 0 200
-0.0114 0.6322 -0.0232 200 0 200
-0.0063 0.6907 -0.0296 200 0 200
-0.0056 0.7019 -0.0308 200 0 200
-0.0036 0.6884 -0.0279 200 0 200
-0.0041 0.6934 -0.0291 200 0 200
-0.0171 0.7220 -0.0304 200 0 200
0.0495 0.7620 -0.0502 200 0 200
0.0488 0.7584 -0.0475 200 0 200
0.0487 0.7572 -0.0466 200 0 200
0.0491 0.7477 -0.0455 200 0 200
0.0492 0.7454 -0.0451 200 0 200
0.0490 0.7495 -0.0460 200 0 200
0.0490 0.7486 -0.0458 200 0 200
-0.0132 0.6550 -0.0169 200 0 200
-0.0104 0.6312 -0.0151 200 0 200
-0.0107 0.6328 -0.0153 200 0 200
-0.0107 0.6324 -0.0152 200 0 200
-0.0107 0.6328 -0.0153 200 0 200
-0.0107 0.6326 -0.0153 200 0 200
-0.0213 0.5858 -0.0075 200 0 200
-0.0258 0.5200 -0.0005 200 0 200
-0.0248 0.5163 0.0002 200 0 200
-0.0259 0.5204 -0.0006 200 0 200
-0.0280 0.4482 0.0015 200 0 200
-0.0311 0.4259 0.0079 200 0 200
-0.0291 0.4153 0.0068 200 0 200
-0.0276 0.4076 0.0072 200 0 200
-0.0278 0.4083 0.0071 200 0 200
-0.0264 0.3988 0.0086 200 0 200
-0.0265 0.3987 0.0086 200 0 200
-0.0262 0.3977 0.0088 200 0 200
-0.0257 0.4131 -0.0120 200 0 200
-0.0319 0.3226 0.0126 200 0 200
-0.0321 0.3247 0.0136 200 0 200
-0.0319 0.3242 0.0137 200 0 200
0.0124 0.2932 -0.0150 200 0 200
-0.0140 0.3256 0.0064 200 0 200
-0.0013 0.3631 -0.0036 200 0 200
0.0296 0.4770 -0.0077 200 0 200
0.1002 0.6386 -0.0359 200 0 200
0.0434 1.1005 -0.1514 200 0 200
-0.0456 1.2289 -0.1345 200 0 200
-0.0437 1.2109 -0.1311 200 0 200
-0.0431 1.2042 -0.1295 200 0 200
-0.0407 1.3028 -0.1161 200 0 200
-0.0604 1.3332 -0.1222 200 0 200
-0.0598 1.3280 -0.1213 200 0 200
-0.0602 1.3318 -0.1216 200 0 200
-0.0593 1.3239 -0.1206 200 0 200
-0.0589 1.3206 -0.1201 200 0 200
-0.0604 1.3334 -0.1219 200 0 200
-0.0607 1.3356 -0.1223 200 0 200
-0.0590 1.3214 -0.1202 200 0 200
-0.0602 1.3317 -0.1216 200 0 200
-0.0598 1.3273 -0.1212 200 0 200
-0.0593 1.3242 -0.1207 200 0 200
-0.0601 1.3312 -0.1216 200 0 200
-0.0594 1.3247 -0.1207 200 0 200
-0.0598 1.3284 -0.1213 200 0 200
-0.0594 1.3247 -0.1207 200 0 200
-0.0597 1.3274 -0.1212 200 0 200
-0.0594 1.3246 -0.1207 200 0 200
-0.0594 1.3247 -0.1208 200 0 200
-0.0594 1.3249 -0.1208 200 0 200
-0.0598 1.3272 -0.1212 200 0 200
-0.0591 1.3223 -0.1204 200 0 200
-0.0593 1.3240 -0.1207 200 0 200
-0.0595 1.3256 -0.1209 200 0 200
-0.0595 1.3260 -0.1210 200 0 200
-0.0595 1.3252 -0.1209 200 0 200
-0.0594 1.3248 -0.1208 200 0 200
-0.0597 1.3265 -0.1211 200 0 200
-0.0608 1.3365 -0.1225 200 0 200
-0.0609 1.3374 -0.1226 200 0 200
-0.0599 1.3291 -0.1215 200 0 200
-0.0599 1.3277 -0.1212 200 0 200
-0.0600 1.3300 -0.1216 200 0 200
-0.0607 1.3361 -0.1224 200 0 200
-0.0899 1.1832 -0.1651 200 0 200
-0.0084 1.0312 -0.1363 200 0 200
-0.1157 0.8539 -0.0690 200 0 200
-0.1226 0.8043 -0.0652 200 0 200
-0.1390 0.7551 -0.0608 200 0 200
-0.1611 0.6663 -0.0429 200 0 200
0.1519 0.5159 -0.0142 200 0 200
0.1422 0.3994 -0.0088 200 0 200
-0.0362 0.2867 0.0148 200 0 200
-0.0416 0.2340 0.0168 200 0 200
-0.0468 0.2001 0.0206 200 0 200
-0.0000 0.2892 0.0122 200 0 200
-0.0001 0.2897 0.0120 200 0 200
0.0003 0.2883 0.0125 200 0 200
-0.0155 0.3344 0.0076 200 0 200
-0.0048 0.3227 0.0187 200 0 200
-0.0199 0.3720 0.0236 200 0 200
-0.0285 0.4150 0.0262 200 0 200
-0.0134 0.4269 0.0231 200 0 200
-0.0110 0.4203 0.0219 200 0 200
-0.0108 0.4197 0.0219 200 0 200
-0.0097 0.3096 0.0122 200 0 200
-0.0530 0.2159 0.0259 200 0 200
-0.0344 0.1512 0.0220 200 0 200
0.0032 0.2837 0.0083 200 0 200
0.0046 0.2795 0.0097 200 0 200
0.0049 0.2792 0.0099 200 0 200
0.0048 0.2791 0.0099 200 0 200
0.0049 0.2790 0.0099 200 0 200
0.0050 0.2787 0.0099 200 0 200
0.0049 0.2788 0.0099 200 0 200
0.0050 0.2785 0.0100 200 0 200
0.0050 0.2786 0.0099 200 0 200
0.0050 0.2787 0.0099 200 0 200
0.0050 0.2785 0.0100 200 0 200
0.0050 0.2784 0.0100 200 0 200
0.0050 0.2785 0.0100 200 0 200
0.0049 0.2788 0.0099 200 0 200
0.0050 0.2787 0.0099 200 0 200
0.0050 0.2785 0.0100 200 0 200
0.0050 0.2786 0.0099 200 0 200
0.0051 0.2784 0.0100 200 0 200
0.0050 0.2787 0.0099 200 0 200
0.0051 0.2783 0.0100 200 0 200
0.0050 0.2785 0.0099 200 0 200
0.0050 0.2785 0.0099 200 0 200
0.0051 0.2783 0.0100 200 0 200
0.0050 0.2785 0.0100 200 0 200
0.0051 0.2784 0.0100 200 0 200
0.0051 0.2782 0.0100 200 0 200
0.0051 0.2783 0.0100 200 0 200
0.0051 0.2783 0.0100 200 0 200
0.0051 0.2783 0.0100 200 0 200
0.0051 0.2784 0.0100 200 0 200
0.0051 0.2782 0.0100 200 0 200
0.0051 0.2783 0.0100 200 0 200
0.0051 0.2782 0.0100 200 0 200
