ply
format ascii 1.0
element vertex 244
property float x
property float y
property float z
property uchar red
property uchar green
property uchar blue
end_header
0.0003 0.2889 0.0123 200 0 200
0.0004 0.2881 0.0126 200 0 200
0.0012 0.2856 0.0132 200 0 200
0.0006 0.2887 0.0125 200 0 200
0.0267 0.3431 0.0002 200 0 200
0.1051 0.3618 0.0044 200 0 200
0.1034 0.3550 0.0054 200 0 200
0.1139 0.3866 -0.0020 200 0 200
0.1409 0.4349 -0.0011 200 0 200
0.1649 0.5073 -0.0105 200 0 200
0.1685 0.5128 -0.0116 200 0 200
0.1867 0.5418 -0.0369 200 0 200
0.1605 0.4597 -0.0027 200 0 200
0.1534 0.4324 -0.0011 200 0 200
0.1458 0.4032 -0.0007 200 0 200
0.1441 0.3811 0.0026 200 0 200
0.1376 0.3316 0.0043 200 0 200
-0.0678 0.2294 0.0181 200 0 200
-0.0682 0.2301 0.0190 200 0 200
-0.0684 0.2309 0.0189 200 0 200
-0.0684 0.2308 0.0190 200 0 200
-0.0684 0.2307 0.0190 200 0 200
-0.0684 0.2307 0.0190 200 0 200
-0.0684 0.2308 0.0189 200 0 200
-0.0684 0.2308 0.0189 200 0 200
-0.0684 0.2308 0.0190 200 0 200
-0.0684 0.2307 0.0190 200 0 200
-0.0684 0.2307 0.0190 200 0 200
-0.0685 0.2310 0.0189 200 0 200
-0.0684 0.2307 0.0190 200 0 200
-0.0684 0.2308 0.0189 200 0 200
-0.0684 0.2309 0.0189 200 0 200
-0.0684 0.2307 0.0190 200 0 200
-0.0684 0.2307 0.0190 200 0 200
-0.0734 0.2205 0.0132 200 0 200
-0.0703 0.1879 0.0219 200 0 200
-0.0292 0.1824 0.0199 200 0 200
-0.0282 0.1714 0.0234 200 0 200
-0.0293 0.1749 0.0225 200 0 200
-0.0293 0.1749 0.0225 200 0 200
-0.0290 0.1734 0.0228 200 0 200
-0.0293 0.1749 0.0225 200 0 200
-0.0288 0.1727 0.0230 200 0 200
-0.0282 0.1712 0.0237 200 0 200
-0.0331 0.1836 0.0231 200 0 200
0.0010 0.2867 0.0127 200 0 200
0.0007 0.2891 0.0124 200 0 200
-0.0004 0.2965 0.0108 200 0 200
0.0093 0.3353 0.0096 200 0 200
0.0151 0.3739 0.0064 200 0 200
0.0252 0.4169 -0.0007 200 0 200
0.0370 0.4741 -0.0083 200 0 200
0.0481 0.5247 -0.0186 200 0 200
0.0624 0.5274 -0.0129 200 0 200
0.0617 0.5331 -0.0171 200 0 200
0.0609 0.5203 -0.0147 200 0 200
0.0608 0.5178 -0.0147 200 0 200
0.0607 0.5172 -0.0145 200 0 200
0.0607 0.5166 -0.0144 200 0 200
0.0607 0.5165 -0.0143 200 0 200
0.0607 0.5167 -0.0144 200 0 200
0.0607 0.5169 -0.0144 200 0 200
0.0607 0.5168 -0.0143 200 0 200
0.0607 0.5166 -0.0143 200 0 200
0.0607 0.5169 -0.0143 200 0 200
0.0607 0.5169 -0.0144 200 0 200
0.0607 0.5167 -0.0143 200 0 200
0.0607 0.5169 -0.0143 200 0 200
0.0349 0.5737 -0.0223 200 0 200
0.0425 0.5745 -0.0220 200 0 200
0.0415 0.5538 -0.0191 200 0 200
0.0415 0.5552 -0.0191 200 0 200
0.0415 0.5542 -0.0189 200 0 200
0.0415 0.5555 -0.0191 200 0 200
0.0252 0.5992 -0.0223 200 0 200
0.0342 0.6246 -0.0633 200 0 200
0.0333 0.6452 -0.0326 200 0 200
0.0328 0.6142 -0.0292 200 0 200
0.0326 0.6052 -0.0284 200 0 200
0.0326 0.6048 -0.0284 200 0 200
0.0332 0.6458 -0.0318 200 0 200
0.0340 0.6694 -0.0304 200 0 200
0.0603 0.7333 -0.0264 200 0 200
0.0830 0.8302 -0.0814 200 0 200
0.0842 0.8065 -0.0463 200 0 200
0.0844 0.8108 -0.0481 200 0 200
0.0840 0.8044 -0.0470 200 0 200
0.0841 0.8064 -0.0472 200 0 200
0.0842 0.8080 -0.0475 200 0 200
0.0841 0.8062 -0.0473 200 0 200
0.0841 0.8069 -0.0473 200 0 200
0.0841 0.8062 -0.0472 200 0 200
0.0840 0.8048 -0.0471 200 0 200
0.0840 0.8051 -0.0471 200 0 200
0.0841 0.8059 -0.0471 200 0 200
0.0840 0.8055 -0.0471 200 0 200
0.0839 0.8041 -0.0469 200 0 200
0.0840 0.8040 -0.0469 200 0 200
0.0840 0.8058 -0.0471 200 0 200
0.0841 0.8062 -0.0472 200 0 200
0.0840 0.8054 -0.0471 200 0 200
0.0840 0.8051 -0.0470 200 0 200
0.0840 0.8053 -0.0470 200 0 200
0.0840 0.8054 -0.0470 200 0 200
0.0840 0.8053 -0.0470 200 0 200
0.0840 0.8047 -0.0469 200 0 200
0.0840 0.8053 -0.0471 200 0 200
0.0840 0.8050 -0.0470 200 0 200
0.0839 0.8037 -0.0468 200 0 200
0.0839 0.8043 -0.0469 200 0 200
0.0839 0.8051 -0.0470 200 0 200
0.0840 0.8051 -0.0470 200 0 200
0.0839 0.8039 -0.0468 200 0 200
0.0838 0.8027 -0.0467 200 0 200
0.0839 0.8043 -0.0468 200 0 200
0.0839 0.8051 -0.0470 200 0 200
0.0840 0.8050 -0.0470 200 0 200
0.0840 0.8057 -0.0471 200 0 200
0.0840 0.8047 -0.0470 200 0 200
0.0840 0.8046 -0.0469 200 0 200
0.0839 0.8043 -0.0469 200 0 200
0.0839 0.8048 -0.0470 200 0 200
0.0839 0.8041 -0.0469 200 0 200
0.0839 0.8039 -0.0468 200 0 200
0.0839 0.8048 -0.0469 200 0 200
0.0839 0.8036 -0.0467 200 0 200
0.0839 0.8035 -0.0467 200 0 200
0.0839 0.8045 -0.0469 200 0 200
0.0840 0.8043 -0.0469 200 0 200
0.0839 0.8044 -0.0469 200 0 200
0.0839 0.8046 -0.0469 200 0 200
0.0839 0.8048 -0.0469 200 0 200
0.0839 0.8041 -0.0469 200 0 200
0.0839 0.8038 -0.0468 200 0 200
0.0839 0.8047 -0.0469 200 0 200
0.0839 0.8047 -0.0469 200 0 200
0.0839 0.8034 -0.0467 200 0 200
0.0839 0.8042 -0.0468 200 0 200
0.0840 0.8046 -0.0469 200 0 200
0.0839 0.8046 -0.0469 200 0 200
0.0839 0.8032 -0.0467 200 0 200
0.0839 0.8040 -0.0468 200 0 200
0.0839 0.8033 -0.0467 200 0 200
0.0838 0.8038 -0.0468 200 0 200
0.0839 0.8044 -0.0469 200 0 200
0.0839 0.8040 -0.0468 200 0 200
0.0839 0.8038 -0.0468 200 0 200
0.0839 0.8036 -0.0468 200 0 200
0.0839 0.8033 -0.0467 200 0 200
0.0839 0.8040 -0.0468 200 0 200
0.0839 0.8040 -0.0468 200 0 200
0.0839 0.8032 -0.0467 200 0 200
0.0839 0.8035 -0.0467 200 0 200
0.0838 0.8030 -0.0466 200 0 200
0.0838 0.8029 -0.0466 200 0 200
0.0839 0.8029 -0.0466 200 0 200
0.0839 0.8034 -0.0467 200 0 200
0.0838 0.8031 -0.0467 200 0 200
0.0839 0.8029 -0.0466 200 0 200
0.0838 0.8027 -0.0466 200 0 200
0.0838 0.8029 -0.0466 200 0 200
0.0839 0.8033 -0.0467 200 0 200
0.0839 0.8031 -0.0466 200 0 200
0.0838 0.8039 -0.0468 200 0 200
0.0838 0.8038 -0.0468 200 0 200
0.0839 0.8036 -0.0468 200 0 200
0.0839 0.8032 -0.0467 200 0 200
0.0839 0.8030 -0.0466 200 0 200
0.0838 0.8037 -0.0468 200 0 200
0.0838 0.8034 -0.0467 200 0 200
0.0839 0.8033 -0.0467 200 0 200
0.0839 0.8030 -0.0466 200 0 200
0.0837 0.8014 -0.0465 200 0 200
0.0839 0.8034 -0.0467 200 0 200
0.0839 0.8038 -0.0468 200 0 200
0.0838 0.8039 -0.0468 200 0 200
0.0837 0.8014 -0.0465 200 0 200
0.0839 0.8033 -0.0467 200 0 200
0.0838 0.8025 -0.0465 200 0 200
0.0838 0.8027 -0.0466 200 0 200
0.0839 0.8034 -0.0468 200 0 200
0.0838 0.8035 -0.0467 200 0 200
0.0839 0.8030 -0.0466 200 0 200
0.0838 0.8023 -0.0465 200 0 200
0.0838 0.8027 -0.0466 200 0 200
0.0838 0.8032 -0.0467 200 0 200
0.0838 0.8026 -0.0466 200 0 200
0.0838 0.8035 -0.0467 200 0 200
0.0839 0.8031 -0.0467 200 0 200
0.0838 0.8036 -0.0468 200 0 200
0.0838 0.8028 -0.0466 200 0 200
0.0839 0.8032 -0.0467 200 0 200
0.0838 0.8033 -0.0467 200 0 200
0.0838 0.8024 -0.0465 200 0 200
0.0838 0.8027 -0.0466 200 0 200
0.0837 0.8003 -0.0463 200 0 200
0.0838 0.8032 -0.0467 200 0 200
0.0839 0.8032 -0.0467 200 0 200
0.0915 0.8372 -0.0522 200 0 200
0.1220 0.9059 -0.0580 200 0 200
0.1371 0.9521 -0.0589 200 0 200
0.1545 0.9881 -0.0782 200 0 200
0.1292 0.9999 -0.0730 200 0 200
0.1959 1.1424 -0.0915 200 0 200
0.2029 1.2626 -0.1197 200 0 200
0.2007 1.2444 -0.1172 200 0 200
0.2061 1.2842 -0.1232 200 0 200
0.2051 1.2766 -0.1221 200 0 200
0.2050 1.2754 -0.1219 200 0 200
0.2004 1.2427 -0.1168 200 0 200
0.2042 1.2691 -0.1210 200 0 200
0.2053 1.2783 -0.1225 200 0 200
0.2047 1.2728 -0.1216 200 0 200
0.2056 1.2804 -0.1228 200 0 200
0.2049 1.2750 -0.1219 200 0 200
0.2044 1.2715 -0.1214 200 0 200
0.2006 1.2447 -0.1172 200 0 200
0.2051 1.2768 -0.1222 200 0 200
0.2045 1.2724 -0.1215 200 0 200
0.2046 1.2729 -0.1216 200 0 200
0.2043 1.2699 -0.1212 200 0 200
0.2007 1.2453 -0.1173 200 0 200
0.2046 1.2730 -0.1217 200 0 200
0.2008 1.2458 -0.1174 200 0 200
0.2007 1.2451 -0.1173 200 0 200
0.2008 1.2458 -0.1174 200 0 200
0.2046 1.2725 -0.1216 200 0 200
0.2055 1.2799 -0.1228 200 0 200
0.2026 1.2588 -0.1195 200 0 200
0.2008 1.2459 -0.1174 200 0 200
0.2053 1.2782 -0.1225 200 0 200
0.2051 1.2765 -0.1222 200 0 200
0.2011 1.2481 -0.1178 200 0 200
0.2055 1.2795 -0.1227 200 0 200
0.2009 1.2469 -0.1176 200 0 200
0.2008 1.2460 -0.1174 200 0 200
0.2050 1.2756 -0.1221 200 0 200
0.2010 1.2472 -0.1176 200 0 200
0.2009 1.2471 -0.1176 200 0 200
0.2058 1.2822 -0.1231 200 0 200
0.2053 1.2775 -0.1224 200 0 200
0.2056 1.2800 -0.1228 200 0 200
0.2009 1.2468 -0.1176 200 0 200
0.2049 1.2747 -0.1220 200 0 200
