ply
format ascii 1.0
element vertex 160
property float x
property float y
property float z
property uchar red
property uchar green
property uchar blue
end_header
-0.0000 0.0000 0.0750 0 220 0
0.0896 0.0072 0.0470 0 220 0
0.1215 0.0157 0.0157 0 220 0
-0.6230 0.2494 0.2344 0 220 0
0.1204 0.0473 0.0206 0 220 0
0.0867 0.0367 0.0734 0 220 0
-0.5382 0.1851 0.2341 0 220 0
0.0252 0.0305 -0.0169 0 220 0
-0.1695 0.0346 0.0976 0 220 0
-0.5073 0.1633 0.2233 0 220 0
-0.3120 0.0591 0.0277 0 220 0
-0.4521 0.1365 0.2248 0 220 0
-0.5276 0.1775 0.2305 0 220 0
-0.3671 0.0931 0.1879 0 220 0
-0.2173 0.0385 0.0221 0 220 0
-0.3653 0.0768 0.0589 0 220 0
-0.3601 0.0902 0.1849 0 220 0
-0.4451 0.1309 0.2181 0 220 0
-0.3415 0.0684 0.0489 0 220 0
-0.0642 0.0288 0.1080 0 220 0
-0.5134 0.1598 0.1934 0 220 0
-0.3451 0.0697 0.0218 0 220 0
0.0510 0.0326 0.0630 0 220 0
0.0385 0.0308 0.0637 0 220 0
0.0485 0.0328 0.0647 0 220 0
-0.5438 0.1682 0.1400 0 220 0
0.0593 0.0322 0.0512 0 220 0
0.0509 0.0328 0.0678 0 220 0
0.0467 0.0325 0.0630 0 220 0
0.0301 0.0305 0.0750 0 220 0
0.0549 0.0334 0.0576 0 220 0
-0.5541 0.1776 0.1543 0 220 0
-0.4338 0.1120 0.1494 0 220 0
0.0751 0.0352 0.0405 0 220 0
0.0506 0.0328 0.0603 0 220 0
-0.5622 0.1840 0.1609 0 220 0
0.0595 0.0334 0.0521 0 220 0
0.0592 0.0330 0.0574 0 220 0
0.0672 0.0344 0.0405 0 220 0
0.0352 0.0303 0.0702 0 220 0
0.0818 0.0360 0.0331 0 220 0
0.0647 0.0337 0.0512 0 220 0
0.0636 0.0339 0.0481 0 220 0
0.0685 0.0342 0.0469 0 220 0
0.0706 0.0350 0.0460 0 220 0
0.0473 0.0321 0.0650 0 220 0
0.0498 0.0324 0.0607 0 220 0
-0.5607 0.1844 0.1725 0 220 0
0.0783 0.0354 0.0380 0 220 0
-0.5625 0.1834 0.1646 0 220 0
0.0674 0.0343 0.0476 0 220 0
0.0719 0.0348 0.0389 0 220 0
0.0683 0.0348 0.0395 0 220 0
0.0778 0.0360 0.0310 0 220 0
-0.5547 0.1810 0.1653 0 220 0
-0.0170 0.0271 0.0922 0 220 0
0.0742 0.0357 0.0343 0 220 0
0.0830 0.0360 0.0299 0 220 0
0.0749 0.0356 0.0218 0 220 0
-0.5540 0.1805 0.1696 0 220 0
0.0558 0.0330 0.0540 0 220 0
0.0576 0.0333 0.0545 0 220 0
0.0679 0.0333 0.0392 0 220 0
0.0861 0.0369 0.0303 0 220 0
-0.5544 0.1783 0.1630 0 220 0
-0.5644 0.1866 0.1654 0 220 0
0.0230 0.0293 0.0756 0 220 0
-0.5768 0.1955 0.1750 0 220 0
-0.5639 0.1865 0.1665 0 220 0
0.0859 0.0366 0.0341 0 220 0
-0.5584 0.1820 0.1668 0 220 0
0.0773 0.0356 0.0390 0 220 0
0.0804 0.0358 0.0334 0 220 0
0.0902 0.0375 0.0262 0 220 0
0.0710 0.0349 0.0451 0 220 0
0.0841 0.0369 0.0283 0 220 0
-0.5684 0.1897 0.1666 0 220 0
0.0920 0.0384 0.0199 0 220 0
0.0786 0.0358 0.0387 0 220 0
0.1084 0.1466 0.0952 0 220 0
0.1283 0.1514 0.0762 0 220 0
0.1069 0.1496 0.1128 0 220 0
-0.5240 0.2861 0.1760 0 220 0
0.1042 0.1512 0.1238 0 220 0
-0.5234 0.3866 0.1839 0 220 0
-0.3819 0.4693 0.1380 0 220 0
-0.0786 0.4011 0.2009 0 220 0
-0.2946 0.5628 0.2264 0 220 0
0.0923 0.4825 -0.0113 0 220 0
-0.3021 0.6274 0.1095 0 220 0
-0.2831 0.6610 0.1011 0 220 0
-0.0306 0.6175 -0.1210 0 220 0
-0.2143 0.6820 0.1022 0 220 0
-0.1809 0.7342 0.1831 0 220 0
-0.1620 0.7576 0.0936 0 220 0
-0.1195 0.7733 0.0434 0 220 0
-0.1383 0.8291 0.0966 0 220 0
-0.0154 1.0646 0.0289 0 220 0
-0.0204 1.0671 0.0295 0 220 0
-0.0197 1.0688 0.0359 0 220 0
-0.0086 1.0629 0.0398 0 220 0
-0.0329 1.0525 -0.0484 0 220 0
-0.0066 1.0521 -0.0020 0 220 0
-0.0204 1.0603 0.0153 0 220 0
-0.0221 1.0680 0.0389 0 220 0
-0.0107 1.0673 0.0366 0 220 0
-0.0107 1.0679 0.0378 0 220 0
-0.0115 1.0678 0.0376 0 220 0
0.0448 1.1673 0.0131 0 220 0
0.0066 1.1726 0.0125 0 220 0
0.0629 1.1728 0.0235 0 220 0
0.0024 1.1789 0.0198 0 220 0
-0.0034 1.2028 0.0139 0 220 0
0.0014 1.2020 0.0035 0 220 0
-0.0016 1.2033 0.0020 0 220 0
-0.0025 1.2033 0.0015 0 220 0
-0.0033 1.2035 0.0018 0 220 0
-0.0030 1.2033 0.0014 0 220 0
-0.0030 1.2034 0.0020 0 220 0
-0.0029 1.2033 0.0017 0 220 0
-0.0008 1.1941 -0.0483 0 220 0
-0.0043 1.1899 0.0184 0 220 0
-0.0117 1.1567 0.0147 0 220 0
-0.0304 1.1111 0.0032 0 220 0
-0.0403 1.0783 0.0182 0 220 0
-0.0572 1.0330 0.0226 0 220 0
-0.0577 0.9969 0.0340 0 220 0
-0.0769 0.9666 0.1582 0 220 0
-0.0231 0.8858 0.0802 0 220 0
-0.0910 0.8609 -0.0301 0 220 0
-0.0635 0.8255 0.0192 0 220 0
-0.0136 0.7837 0.0763 0 220 0
-0.0898 0.7383 0.0463 0 220 0
-0.1184 0.7257 0.1704 0 220 0
-0.0611 0.6475 0.1486 0 220 0
-0.1624 0.6542 -0.0606 0 220 0
-0.0153 0.6505 0.1278 0 220 0
-0.0437 0.6412 0.0808 0 220 0
-0.0225 0.6453 0.1035 0 220 0
-0.0210 0.6408 0.0837 0 220 0
-0.0220 0.6457 0.1068 0 220 0
-0.0329 0.6490 0.1202 0 220 0
-0.0303 0.6455 0.1069 0 220 0
-0.0254 0.6451 0.1031 0 220 0
-0.0293 0.6472 0.1119 0 220 0
-0.0285 0.6504 0.1248 0 220 0
-0.0310 0.6515 0.1302 0 220 0
-0.0328 0.6497 0.1222 0 220 0
-0.0258 0.6483 0.1184 0 220 0
-0.0269 0.6441 0.0994 0 220 0
-0.0277 0.6492 0.1221 0 220 0
-0.0286 0.6448 0.1022 0 220 0
-0.0325 0.6487 0.1188 0 220 0
-0.0292 0.6450 0.1025 0 220 0
-0.0313 0.6455 0.1051 0 220 0
-0.0297 0.6440 0.0979 0 220 0
-0.0288 0.6457 0.1066 0 220 0
-0.0292 0.6468 0.1114 0 220 0
-0.0330 0.6474 0.1136 0 220 0
-0.0301 0.6497 0.1241 0 220 0
